<svg xmlns="http://www.w3.org/2000/svg" xmlns:xlink="http://www.w3.org/1999/xlink" width="6822" height="1024" viewBox="0 0 6822 1024">
  <defs>
    <linearGradient id="linear-gradient" x1="0.025" y1="0.032" x2="0.7" y2="0.715" gradientUnits="objectBoundingBox">
      <stop offset="0" stop-color="#002248"/>
      <stop offset="1" stop-color="#001224" stop-opacity="0.722"/>
    </linearGradient>
    <clipPath id="clip-path">
      <path id="Path_1" data-name="Path 1" d="M649.5,853.584V457.029H979.266V12.316H437.212V853.584Z" transform="translate(-437.212 -12.316)" fill="rgba(255,255,255,0.36)"/>
    </clipPath>
    <clipPath id="clip-path-2">
      <path id="Path_2" data-name="Path 2" d="M1121.93,450.925,1255.345,551.86,1147.171,710.868,974.093,416.358,980.1,88.664l310.1,110.614L1233.71,304.362l-111.78,17.975Z" transform="translate(-974.093 -88.664)" fill="rgba(255,255,255,0.31)"/>
    </clipPath>
    <clipPath id="clip-PFTMS_-_With_Full_Label">
      <rect width="6822" height="1024"/>
    </clipPath>
  </defs>
  <g id="PFTMS_-_With_Full_Label" data-name="PFTMS - With Full Label" clip-path="url(#clip-PFTMS_-_With_Full_Label)">
    <rect width="6822" height="1024" fill="rgba(255,255,255,0)"/>
    <g id="Group_2" data-name="Group 2">
      <g id="Rectangle_3" data-name="Rectangle 3" stroke="#fff" stroke-width="30" fill="url(#linear-gradient)">
        <rect width="1024" height="1024" rx="100" stroke="none"/>
        <rect x="15" y="15" width="994" height="994" rx="85" fill="none"/>
      </g>
      <g id="Ellipse_2" data-name="Ellipse 2" transform="translate(456.409 430.366)" fill="none" stroke="#fff" stroke-width="100">
        <ellipse cx="255.206" cy="254.717" rx="255.206" ry="254.717" stroke="none"/>
        <ellipse cx="255.206" cy="254.717" rx="205.206" ry="204.717" fill="none"/>
      </g>
      <g id="Mask_Group_1" data-name="Mask Group 1" transform="translate(80.359 95.444)" clip-path="url(#clip-path)">
        <path id="Polygon_1" data-name="Polygon 1" d="M181.655,17.9a7,7,0,0,1,13.142,0L373,503.31a7,7,0,0,1-6.571,9.412H10.027a7,7,0,0,1-6.571-9.412Z" transform="translate(403.428 854.445) rotate(180)" fill="#fff"/>
        <g id="Ellipse_1" data-name="Ellipse 1" transform="translate(12.308 1.492)" fill="none" stroke="#fff" stroke-width="125">
          <circle cx="255.206" cy="255.206" r="255.206" stroke="none"/>
          <circle cx="255.206" cy="255.206" r="192.706" fill="none"/>
        </g>
        <path id="Polygon_2" data-name="Polygon 2" d="M181.655,17.9a7,7,0,0,1,13.142,0L373,503.31a7,7,0,0,1-6.571,9.412H10.027a7,7,0,0,1-6.571-9.412Z" transform="translate(403.428 854.445) rotate(180)" fill="#fff"/>
      </g>
      <g id="Mask_Group_2" data-name="Mask Group 2" transform="translate(604.838 58.632)" clip-path="url(#clip-path-2)">
        <g id="Ellipse_3" data-name="Ellipse 3" transform="translate(11.084 90.316)" fill="none" stroke="#fff" stroke-width="75">
          <ellipse cx="179.61" cy="183.282" rx="179.61" ry="183.282" stroke="none"/>
          <ellipse cx="179.61" cy="183.282" rx="142.11" ry="145.782" fill="none"/>
        </g>
      </g>
      <rect id="Rectangle_5" data-name="Rectangle 5" width="684.044" height="32.267" rx="16.134" transform="translate(57.179 282.384)" fill="#fff"/>
      <rect id="Rectangle_6" data-name="Rectangle 6" width="684.044" height="32.267" rx="16.134" transform="translate(57.179 343.986)" fill="#fff"/>
      <rect id="Rectangle_7" data-name="Rectangle 7" width="397" height="58" rx="22" transform="translate(315 645)" fill="#fff"/>
      <path id="Polygon_3" data-name="Polygon 3" d="M181.576,20.27a7,7,0,0,1,13.3,0L373.44,564.454a7,7,0,0,1-6.651,9.182H9.664a7,7,0,0,1-6.651-9.182Z" transform="translate(483.787 949.889) rotate(180)" fill="rgba(255,255,255,0.41)"/>
      <text id="Procurement_Financial_Transaction_Management_System" data-name="Procurement &amp; Financial Transaction 
Management System" transform="translate(1153.5 396.5)" fill="#002248" stroke="#fff" stroke-width="3" font-size="289" font-family="Poppins-Bold, Poppins" font-weight="700"><tspan x="0" y="0">Procurement &amp; Financial Transaction </tspan><tspan x="0" y="433">Management System</tspan></text>
      <g id="Rectangle_8" data-name="Rectangle 8" stroke="#fff" stroke-width="30" fill="url(#linear-gradient)">
        <rect width="1024" height="1024" rx="100" stroke="none"/>
        <rect x="15" y="15" width="994" height="994" rx="85" fill="none"/>
      </g>
      <g id="Ellipse_4" data-name="Ellipse 4" transform="translate(456.409 430.366)" fill="none" stroke="#fff" stroke-width="100">
        <ellipse cx="255.206" cy="254.717" rx="255.206" ry="254.717" stroke="none"/>
        <ellipse cx="255.206" cy="254.717" rx="205.206" ry="204.717" fill="none"/>
      </g>
      <g id="Mask_Group_3" data-name="Mask Group 3" transform="translate(80.359 95.444)" clip-path="url(#clip-path)">
        <path id="Polygon_4" data-name="Polygon 4" d="M181.655,17.9a7,7,0,0,1,13.142,0L373,503.31a7,7,0,0,1-6.571,9.412H10.027a7,7,0,0,1-6.571-9.412Z" transform="translate(403.428 854.445) rotate(180)" fill="#fff"/>
        <g id="Ellipse_5" data-name="Ellipse 5" transform="translate(12.308 1.492)" fill="none" stroke="#fff" stroke-width="125">
          <circle cx="255.206" cy="255.206" r="255.206" stroke="none"/>
          <circle cx="255.206" cy="255.206" r="192.706" fill="none"/>
        </g>
        <path id="Polygon_5" data-name="Polygon 5" d="M181.655,17.9a7,7,0,0,1,13.142,0L373,503.31a7,7,0,0,1-6.571,9.412H10.027a7,7,0,0,1-6.571-9.412Z" transform="translate(403.428 854.445) rotate(180)" fill="#fff"/>
      </g>
      <g id="Mask_Group_4" data-name="Mask Group 4" transform="translate(604.838 58.632)" clip-path="url(#clip-path-2)">
        <g id="Ellipse_6" data-name="Ellipse 6" transform="translate(11.084 90.316)" fill="none" stroke="#fff" stroke-width="75">
          <ellipse cx="179.61" cy="183.282" rx="179.61" ry="183.282" stroke="none"/>
          <ellipse cx="179.61" cy="183.282" rx="142.11" ry="145.782" fill="none"/>
        </g>
      </g>
      <rect id="Rectangle_9" data-name="Rectangle 9" width="684.044" height="32.267" rx="16.134" transform="translate(57.179 282.384)" fill="#fff"/>
      <rect id="Rectangle_10" data-name="Rectangle 10" width="684.044" height="32.267" rx="16.134" transform="translate(57.179 343.986)" fill="#fff"/>
      <rect id="Rectangle_11" data-name="Rectangle 11" width="397" height="58" rx="22" transform="translate(315 645)" fill="#fff"/>
      <path id="Polygon_6" data-name="Polygon 6" d="M181.576,20.27a7,7,0,0,1,13.3,0L373.44,564.454a7,7,0,0,1-6.651,9.182H9.664a7,7,0,0,1-6.651-9.182Z" transform="translate(483.787 949.889) rotate(180)" fill="rgba(255,255,255,0.41)"/>
      <text id="Procurement_Financial_Transaction_Management_System-2" data-name="Procurement &amp; Financial Transaction 
Management System" transform="translate(1153.5 396.5)" fill="#fff" font-size="289" font-family="Poppins-Bold, Poppins" font-weight="700"><tspan x="0" y="0">Procurement &amp; Financial Transaction </tspan><tspan x="0" y="433">Management System</tspan></text>
      <g id="M" transform="translate(335.969 765.955)" fill="#fff">
        <path d="M53.306,125.122q1.294-2.065,4.276-7.014t7.642-12.765q1.969-3.307,4.516-7.33t5.668-8.754q3.121-4.732,6.813-10.168t7.95-11.569q9.763-14.042,17.591-23.4,4.65-5.6,8.216-5.433,2.043.094,3.4,1.77,1.206,1.328,1.206,3.279,0,2.885-3.095,8.962-.3.627-1.857,3.657t-4.364,8.473q-5.048,9.867-8.483,16.94T97.54,93.095q-5.008,11.749-8.691,21.811t-6.031,18.408q-2.752,9.993-2.752,14.678,0,1.041.157,2.167.394,3.377.394,3.984,0,2.515-1.733,4.717-1.5,2.027-3.4,2.066-2.218.046-3.647-2.8-1.192-2.157-1.192-6.081,0-1.532.145-3.25t.434-3.62q.289-1.9.723-3.99t1.012-4.358q.578-2.271,1.3-4.725t1.59-5.09q.867-2.636,1.877-5.454T79.9,115.74q1.154-3,2.451-6.177t2.737-6.535q1.44-3.357,3.022-6.891t3.306-7.246q1.724-3.711,3.589-7.6t3.871-7.947q2.006-4.061,4.152-8.294t4.431-8.639q-9.545,11.062-20.237,27.2T64.663,121q-5.3,9.382-8.767,12.735-3.4,3.278-6.487,3.3t-4.568-2.883q-.982-1.94-.982-4.5,0-2.752.377-5.9t1.129-6.683q.753-3.537,1.881-7.462t2.632-8.235q1.5-4.31,3.38-9T57.384,82.6q2.249-5.07,4.868-10.514t5.607-11.257Q59.766,69.6,52.252,81.36q-13.81,21.961-24.822,45.4Q22.169,138.133,14.6,157.235q-3.805,9.787-8.817,9.9-1.278.029-2.132-1.125-.683-.8-.683-1.973,0-1.717,3.155-9.449,3.353-8.464,5.913-14.538t4.334-9.768q8.964-18.643,19.458-35.99t22.484-33.34q4.935-6.566,8.333-10.808t5.27-6.173q3.884-3.923,6.413-3.811,1.577.07,3.072,1.7,1.807,1.9,1.807,4.236,0,2.6-3.3,8.453-9.5,16.744-17.571,37.893-3.5,9.607-5.762,17.783T53.306,125.122Z" stroke="none"/>
        <path d="M 5.786455154418945 168.685546875 C 5.463794231414795 168.6932373046875 5.15137243270874 168.6631622314453 4.851057529449463 168.5963439941406 C 4.550649166107178 168.5294952392578 4.262361526489258 168.4258270263672 3.988060474395752 168.2863006591797 C 3.71368145942688 168.1467590332031 3.453303813934326 167.9713287353516 3.208797216415405 167.7609558105469 C 2.964229583740234 167.550537109375 2.73554801940918 167.3051910400391 2.524622917175293 167.0258636474609 C 2.355486392974854 166.8236389160156 2.207177400588989 166.6098327636719 2.079850435256958 166.3849182128906 C 1.952507853507996 166.1599426269531 1.84615695476532 165.923828125 1.760952115058899 165.6770172119141 C 1.675739645957947 165.4301300048828 1.611680746078491 165.1725921630859 1.568923830986023 164.9047241210938 C 1.526165366172791 164.6368713378906 1.504712820053101 164.3587341308594 1.504712820053101 164.0707244873047 C 1.504712820053101 163.833251953125 1.528045296669006 163.5298309326172 1.608511447906494 163.0969543457031 C 1.688971638679504 162.6640930175781 1.826545715332031 162.1018371582031 2.054996967315674 161.3466949462891 C 2.283394575119019 160.5917358398438 2.602582931518555 159.6441345214844 3.046223402023315 158.440673828125 C 3.489660978317261 157.23779296875 4.057323455810547 155.7795715332031 4.782683372497559 154.0032348632812 C 5.90255069732666 151.1784820556641 6.958964824676514 148.5470275878906 7.950628280639648 146.1118469238281 C 8.941272735595703 143.6791687011719 9.867431640625 141.4420471191406 10.72778701782227 139.4035491943359 C 11.58737468719482 137.3668823242188 12.38139152526855 135.5281829833984 13.10850238800049 133.8905792236328 C 13.83506679534912 132.2542419433594 14.4949254989624 130.8184509277344 15.08672428131104 129.58642578125 C 16.59536552429199 126.4514007568359 18.14195823669434 123.3339538574219 19.72343635559082 120.2395858764648 C 21.30231285095215 117.1503067016602 22.91584205627441 114.0842666625977 24.56097412109375 111.0468444824219 C 26.20328521728516 108.0146408081055 27.87697601318359 105.0111694335938 29.57902908325195 102.0418090820312 C 31.27805328369141 99.07772827148438 33.00523376464844 96.14781188964844 34.75756454467773 93.25732421875 C 36.50666427612305 90.37216949462891 38.29300689697266 87.50621795654297 40.11307144165039 84.66452026367188 C 41.92964935302734 81.82823181152344 43.77968978881836 79.01631164550781 45.65969085693359 76.23367309570312 C 47.53597259521484 73.45656585693359 49.44197845458984 70.70882415771484 51.37423706054688 67.99532318115234 C 53.30255508422852 65.28738403320312 55.25692367553711 62.61372756958008 57.23392105102539 59.97916412353516 C 58.91130447387695 57.74945831298828 60.44923782348633 55.72852325439453 61.8524169921875 53.91036987304688 C 63.25351333618164 52.09493255615234 64.52064514160156 50.48115921020508 65.65841674804688 49.06330108642578 C 66.79478454589844 47.64717102050781 67.80240631103516 46.42606353759766 68.68567657470703 45.39444351196289 C 69.568115234375 44.36380386352539 70.32668304443359 43.52201080322266 70.96566009521484 42.86369323730469 L 70.9705810546875 42.8586311340332 L 70.97554016113281 42.85361480712891 C 71.69737243652344 42.12541961669922 72.38915252685547 41.49398040771484 73.05312347412109 40.95793914794922 C 73.71661376953125 40.42228317260742 74.35234832763672 39.98185729980469 74.96255493164062 39.63532257080078 C 75.57238006591797 39.28902435302734 76.15670776367188 39.03647232055664 76.71775817871094 38.87636566162109 C 77.27847290039062 38.71635437011719 77.81594848632812 38.64865493774414 78.33238983154297 38.6719856262207 C 78.68275451660156 38.68780899047852 79.02947998046875 38.74470901489258 79.37197113037109 38.84236145019531 C 79.71434020996094 38.93997955322266 80.052490234375 39.07830429077148 80.38585662841797 39.25702285766602 C 80.71910858154297 39.43567276000977 81.04756927490234 39.65468215942383 81.37067413330078 39.9137077331543 C 81.69366455078125 40.17264175415039 82.01131439208984 40.47158432006836 82.32302856445312 40.81018829345703 C 82.69399261474609 41.20121002197266 83.01913452148438 41.60673904418945 83.29814910888672 42.02603530883789 C 83.57707214355469 42.44519424438477 83.80994415283203 42.87815093994141 83.99645233154297 43.32414627075195 C 84.18291473388672 43.77004241943359 84.32307434082031 44.22902679443359 84.41661071777344 44.70034027099609 C 84.51013946533203 45.17160797119141 84.55705261230469 45.65525817871094 84.55705261230469 46.15054321289062 C 84.55705261230469 46.66443252563477 84.48779296875 47.23252487182617 84.34669494628906 47.86161422729492 C 84.20558166503906 48.49081039428711 83.99259948730469 49.18110656738281 83.70513916015625 49.93933868408203 C 83.4176025390625 50.69781875610352 83.05549621582031 51.52438735961914 82.61617279052734 52.42592239379883 C 82.17665100097656 53.32789611816406 81.65978240966797 54.3050537109375 81.06288146972656 55.36433410644531 C 79.50475311279297 58.11309432983398 77.9698486328125 60.96442031860352 76.46077728271484 63.91304397583008 C 74.94926452636719 66.86644744873047 73.46376037597656 69.91729736328125 72.00691986083984 73.06024932861328 C 70.54779815673828 76.20812225341797 69.11750793457031 79.44818115234375 67.71871948242188 82.77500915527344 C 66.31784820556641 86.10682678222656 64.94865417480469 89.52544403076172 63.61385726928711 93.02540588378906 C 62.77537155151367 95.32783508300781 61.98946380615234 97.5731201171875 61.25677871704102 99.75911712646484 C 60.52352142333984 101.9468231201172 59.84365463256836 104.0748901367188 59.21781539916992 106.1412200927734 C 58.59156036376953 108.2089233398438 58.01947402954102 110.2145538330078 57.50217437744141 112.1560134887695 C 56.98459625244141 114.0985412597656 56.52191543579102 115.9765853881836 56.11474609375 117.7880554199219 C 56.62453842163086 116.943473815918 57.17329406738281 116.032356262207 57.76071548461914 115.0552749633789 C 58.34775924682617 114.0787734985352 58.97336196899414 113.0364608764648 59.63717651367188 111.9288864135742 C 60.30053329467773 110.8221054077148 61.00199890136719 109.6502380371094 61.74122619628906 108.4138565063477 C 62.47987747192383 107.178466796875 63.25617980957031 105.8787536621094 64.06977081298828 104.5153198242188 C 65.38877868652344 102.3015289306641 66.90885925292969 99.83741760253906 68.62532806396484 97.1300048828125 C 70.33865356445312 94.42756652832031 72.24694061279297 91.48385620117188 74.34529113769531 88.30610656738281 C 76.43892669677734 85.135498046875 78.72093963623047 81.73320007324219 81.18627166748047 78.10666656494141 C 83.64505767822266 74.48972320556641 86.28521728515625 70.65116119384766 89.1015625 66.59857940673828 C 90.73616027832031 64.24970245361328 92.33444976806641 61.99342727661133 93.89400482177734 59.83282089233398 C 95.45093536376953 57.67586135864258 96.96939849853516 55.61407089233398 98.44701385498047 53.6505126953125 C 99.92227935791016 51.69010925292969 101.35693359375 49.82744979858398 102.7486190795898 48.06560516357422 C 104.1381988525391 46.30643844604492 105.4850616455078 44.64760971069336 106.7868423461914 43.09218597412109 C 107.6366271972656 42.07026290893555 108.4620132446289 41.18410873413086 109.2657089233398 40.43182373046875 C 110.0686950683594 39.68020248413086 110.8500823974609 39.06219482421875 111.6125411987305 38.57593536376953 C 112.374382019043 38.09009170532227 113.1173553466797 37.73575973510742 113.8441696166992 37.51111221313477 C 114.5704040527344 37.28664779663086 115.2805099487305 37.19165420532227 115.9771728515625 37.22432708740234 C 116.4057464599609 37.24441909790039 116.8179168701172 37.30666351318359 117.2130813598633 37.41068649291992 C 117.6080474853516 37.51465606689453 117.9860458374023 37.66038131713867 118.3464660644531 37.84751129150391 C 118.7067413330078 38.03456878662109 119.0494384765625 38.26299667358398 119.3739852905273 38.53246307373047 C 119.6984100341797 38.80183410644531 120.0047149658203 39.11221694946289 120.2922744750977 39.46327972412109 C 120.5554656982422 39.75696182250977 120.7861557006836 40.06818008422852 120.9841384887695 40.39634323120117 C 121.1820907592773 40.72443008422852 121.3473510742188 41.06946182250977 121.4797134399414 41.43083190917969 C 121.6120529174805 41.79215621948242 121.7115325927734 42.16983795166016 121.7779159545898 42.56328582763672 C 121.8442916870117 42.95669937133789 121.8776168823242 43.36591339111328 121.8776168823242 43.79030609130859 C 121.8776168823242 44.33883666992188 121.8112869262695 44.94719314575195 121.6776962280273 45.61828994750977 C 121.544075012207 46.28947448730469 121.3431549072266 47.02350234985352 121.0739059448242 47.82328033447266 C 120.804573059082 48.62328720092773 120.4668579101562 49.48921585083008 120.0597457885742 50.42401123046875 C 119.6524276733398 51.35921096801758 119.1755752563477 52.36347961425781 118.6281204223633 53.4398078918457 C 118.5213012695312 53.660400390625 118.3143157958984 54.07343673706055 118.0053176879883 54.68251419067383 C 117.6962051391602 55.29178619384766 117.2849273681641 56.09736633300781 116.7695999145508 57.10300064086914 C 116.2539520263672 58.10918807983398 115.6340103149414 59.31587982177734 114.9077682495117 60.72696685791016 C 114.1809310913086 62.13916778564453 113.3474807739258 63.75642395019531 112.4052734375 65.582763671875 C 110.7429733276367 68.83470153808594 109.2081069946289 71.86717987060547 107.8032760620117 74.67486572265625 C 106.3963012695312 77.48687744140625 105.1201705932617 80.07260131835938 103.9774398803711 82.42691040039062 C 102.8332901000977 84.78415679931641 101.8232192993164 86.90872955322266 100.9496383666992 88.79562377929688 C 100.0752258300781 90.68431854248047 99.33786010742188 92.33432006835938 98.7398681640625 93.74089050292969 C 97.09359741210938 97.60634613037109 95.5506591796875 101.347053527832 94.11372375488281 104.9562377929688 C 92.67453002929688 108.5710525512695 91.34199523925781 112.0530853271484 90.11872100830078 115.3955764770508 C 88.89382171630859 118.7424850463867 87.77877044677734 121.9486846923828 86.77610778808594 125.007453918457 C 85.77234649658203 128.0695495605469 84.88147735595703 130.983154296875 84.10597229003906 133.7416381835938 C 83.66045379638672 135.3606109619141 83.26966857910156 136.8744201660156 82.93405914306641 138.2807464599609 C 82.59833526611328 139.6875762939453 82.31787109375 140.9866790771484 82.09313201904297 142.1758270263672 C 81.86833190917969 143.3652496337891 81.69930267333984 144.4445037841797 81.58645629882812 145.4113616943359 C 81.47361755371094 146.3783569335938 81.4169921875 147.2327880859375 81.41699981689453 147.9725189208984 C 81.41699981689453 148.1262359619141 81.41996765136719 148.2823028564453 81.42591094970703 148.4404296875 C 81.43184661865234 148.5985565185547 81.44073486328125 148.7587585449219 81.45256042480469 148.9207153320312 C 81.46437835693359 149.0826721191406 81.47914886474609 149.2464141845703 81.49681091308594 149.4116363525391 C 81.51449584960938 149.5768737792969 81.53507995605469 149.7435913085938 81.55856323242188 149.9115142822266 L 81.56114196777344 149.9299926757812 L 81.56329345703125 149.9485015869141 C 81.65282440185547 150.7171630859375 81.72283935546875 151.3416748046875 81.77749633789062 151.8511962890625 C 81.8321533203125 152.3606872558594 81.8714599609375 152.7552032470703 81.89958190917969 153.0638732910156 C 81.92769622802734 153.3725280761719 81.94461822509766 153.5953369140625 81.95450592041016 153.7613983154297 C 81.96439361572266 153.9274444580078 81.96727752685547 154.0367736816406 81.96727752685547 154.1184387207031 C 81.96727752685547 154.6267242431641 81.92414855957031 155.1274261474609 81.83817291259766 155.6197052001953 C 81.75218200683594 156.1119842529297 81.62333679199219 156.595947265625 81.45193481445312 157.0707397460938 C 81.28048706054688 157.5456085205078 81.06642150878906 158.0113525390625 80.81003570556641 158.4671936035156 C 80.5535888671875 158.9231414794922 80.25474548339844 159.3692016601562 79.91380310058594 159.8045959472656 C 79.59893798828125 160.2287292480469 79.26983642578125 160.601806640625 78.92708587646484 160.9233856201172 C 78.58421325683594 161.2451171875 78.22767639160156 161.5153198242188 77.85812377929688 161.7336273193359 C 77.48842620849609 161.9520263671875 77.10567474365234 162.1184692382812 76.71050262451172 162.2325744628906 C 76.31516265869141 162.3467254638672 75.90738677978516 162.4084777832031 75.48779296875 162.4174194335938 C 75.14407348632812 162.4247436523438 74.76423645019531 162.3935241699219 74.36437225341797 162.2962646484375 C 73.96431732177734 162.1989440917969 73.54420471191406 162.0355377197266 73.12014007568359 161.7785034179688 C 72.69588470458984 161.5213623046875 72.26766967773438 161.1705017089844 71.85165405273438 160.6983947753906 C 71.43544769287109 160.2260589599609 71.03147125244141 159.6323699951172 70.65591430664062 158.8898010253906 C 70.42487335205078 158.4685363769531 70.22346496582031 158.0130004882812 70.05131530761719 157.5212707519531 C 69.87913513183594 157.0294189453125 69.73622131347656 156.5013885498047 69.62220001220703 155.9351806640625 C 69.50815582275391 155.3689270019531 69.42301940917969 154.7645263671875 69.36639404296875 154.1200408935547 C 69.30976104736328 153.4755249023438 69.28163909912109 152.7909698486328 69.28163909912109 152.0644073486328 C 69.28163909912109 151.0060119628906 69.33213043212891 149.8806762695312 69.43276214599609 148.6908416748047 C 69.53336334228516 147.5011138916016 69.68409729003906 146.2470397949219 69.88455963134766 144.9309997558594 C 70.08496856689453 143.6152191162109 70.33509063720703 142.2376708984375 70.63449859619141 140.8007507324219 C 70.93382263183594 139.3643188476562 71.28237915039062 137.8686828613281 71.67976379394531 136.3163452148438 C 72.07244873046875 134.7824401855469 72.51580810546875 133.1810760498047 73.00875091552734 131.5155639648438 C 73.50143432617188 129.8509216308594 74.04358673095703 128.1223754882812 74.63410949707031 126.3332824707031 C 75.22422790527344 124.5453033447266 75.86259460449219 122.6969985961914 76.54807281494141 120.7917175292969 C 77.23303985595703 118.8878326416016 77.9649658203125 116.9272308349609 78.74272155761719 114.9132690429688 C 80.01470947265625 111.619499206543 81.42047882080078 108.1538619995117 82.95720672607422 104.5222854614258 C 84.49137115478516 100.8967132568359 86.15562438964844 97.10678100585938 87.94704437255859 93.15852355957031 C 89.7349853515625 89.21788787841797 91.64909362792969 85.12061309814453 93.68637084960938 80.872802734375 C 95.71917724609375 76.63434600830078 97.87404632568359 72.24714660644531 100.1479339599609 67.71734619140625 C 97.54879760742188 71.14860534667969 94.88509368896484 74.84553527832031 92.15932464599609 78.80511474609375 C 89.42549133300781 82.77643585205078 86.62887573242188 87.01244354248047 83.77196502685547 91.51014709472656 C 80.90623474121094 96.02175903320312 77.97950744628906 100.797233581543 74.99430847167969 105.833610534668 C 71.99952697753906 110.8861541748047 68.94554138183594 116.2018661499023 65.83494567871094 121.7777862548828 L 65.83311462402344 121.7810745239258 L 65.83126831054688 121.7843322753906 C 64.92507934570312 123.3901062011719 64.06104278564453 124.8619232177734 63.23666763305664 126.2033157348633 C 62.41157150268555 127.5458831787109 61.62625503540039 128.7576599121094 60.87820053100586 129.8422698974609 C 60.12954330444336 130.9277191162109 59.41827011108398 131.8856964111328 58.74181365966797 132.7198028564453 C 58.06486511230469 133.5545043945312 57.4228401184082 134.2651214599609 56.81316375732422 134.8553161621094 C 56.18492889404297 135.4615325927734 55.55821990966797 135.9938812255859 54.93408966064453 136.4517669677734 C 54.30953979492188 136.9099273681641 53.68757629394531 137.2935180664062 53.06924438476562 137.6019134521484 C 52.45051574707031 137.9105072021484 51.8354377746582 138.1438446044922 51.2250862121582 138.3013153076172 C 50.61433029174805 138.4588775634766 50.00830841064453 138.5404663085938 49.40808868408203 138.5455017089844 C 48.76658630371094 138.5508880615234 48.1600456237793 138.4759826660156 47.59191131591797 138.3228454589844 C 47.02344512939453 138.1696319580078 46.49347305297852 137.9380950927734 46.00546264648438 137.6303253173828 C 45.5172004699707 137.3224182128906 45.07098007202148 136.938232421875 44.67026138305664 136.4798736572266 C 44.26937103271484 136.0213470458984 43.91405868530273 135.4886322021484 43.60777282714844 134.8838653564453 C 43.41632080078125 134.5058746337891 43.24842834472656 134.1122741699219 43.10428237915039 133.7039031982422 C 42.96011734008789 133.2954559326172 42.8397102355957 132.8722229003906 42.74323654174805 132.4349975585938 C 42.64675521850586 131.9977264404297 42.57421875 131.5464782714844 42.52579879760742 131.0820007324219 C 42.47738265991211 130.6175231933594 42.45308303833008 130.1398315429688 42.45308303833008 129.6497650146484 C 42.45308303833008 128.703369140625 42.48583602905273 127.7202682495117 42.55110931396484 126.7023849487305 C 42.61637878417969 125.6845932006836 42.71416091918945 124.6321029663086 42.84421539306641 123.5468978881836 C 42.97425079345703 122.4618225097656 43.13655090332031 121.344108581543 43.33086013793945 120.1957092285156 C 43.52512359619141 119.0475463867188 43.75138473510742 117.8687896728516 44.00937652587891 116.6613998413086 C 44.26485061645508 115.4657974243164 44.55332565307617 114.2331771850586 44.87411880493164 112.9659805297852 C 45.19479751586914 111.6992034912109 45.5477409362793 110.39794921875 45.93224334716797 109.0646362304688 C 46.31657791137695 107.7318420410156 46.732421875 106.3671188354492 47.17905426025391 104.9728393554688 C 47.6254768371582 103.5792236328125 48.10263061523438 102.1562042236328 48.60979843139648 100.7061767578125 C 49.37042999267578 98.531494140625 50.20481491088867 96.27824401855469 51.11161804199219 93.94937896728516 C 52.01755523681641 91.62273406982422 52.99563980102539 89.22096252441406 54.04450225830078 86.74700927734375 C 55.09220504760742 84.27581024169922 56.21037673950195 81.73295593261719 57.39763641357422 79.12139892578125 C 58.58339309692383 76.51313781738281 59.8379020690918 73.83675384521484 61.15973663330078 71.09519195556641 C 60.50082015991211 71.95912933349609 59.84479522705078 72.83934020996094 59.19198226928711 73.73546600341797 C 58.53871536254883 74.63220977783203 57.88866424560547 75.54485321044922 57.24214172363281 76.47305297851562 C 56.59517669677734 77.40188598632812 55.95173645019531 78.34626007080078 55.31215286254883 79.30580139160156 C 54.67212295532227 80.26598358154297 54.03596115112305 81.24135589599609 53.40395355224609 82.23149871826172 C 51.13825988769531 85.83769226074219 48.92049789428711 89.49042510986328 46.75461196899414 93.18295288085938 C 44.58375549316406 96.88395690917969 42.46526718139648 100.6245269775391 40.40313339233398 104.3978042602539 C 38.33651351928711 108.1792984008789 36.32675552368164 111.9931869506836 34.37786865234375 115.83251953125 C 32.42498397827148 119.6797256469727 30.53348731994629 123.5519790649414 28.70741844177246 127.4422225952148 C 27.84120559692383 129.3164672851562 26.92385482788086 131.3585510253906 25.95706748962402 133.5644989013672 C 24.98930358886719 135.7726745605469 23.97189712524414 138.145263671875 22.90655326843262 140.6783142089844 C 21.84002113342285 143.2141571044922 20.72533416748047 145.9110870361328 19.56418609619141 148.7651519775391 C 18.4016284942627 151.6226501464844 17.19238471984863 154.637939453125 15.93814563751221 157.8070831298828 C 15.60160446166992 158.6732025146484 15.25953674316406 159.4829711914062 14.9106559753418 160.2387390136719 C 14.56164932250977 160.9947814941406 14.20582008361816 161.6967620849609 13.84187698364258 162.3469696044922 C 13.47779655456543 162.9974060058594 13.10558795928955 163.5960235595703 12.72396087646484 164.1451263427734 C 12.34218215942383 164.6944580078125 11.95096588134766 165.1941833496094 11.54901695251465 165.6466522216797 C 11.11265563964844 166.1378784179688 10.66433525085449 166.5701904296875 10.20488452911377 166.9432067871094 C 9.745212554931641 167.3163757324219 9.274388313293457 167.6302032470703 8.793232917785645 167.8841247558594 C 8.31183910369873 168.13818359375 7.820096492767334 168.3323211669922 7.318829536437988 168.4660339355469 C 6.817304134368896 168.599853515625 6.306235313415527 168.6731719970703 5.786455154418945 168.685546875 Z M 72.86754608154297 45.08716583251953 C 72.25817108154297 45.71669387817383 71.51930236816406 46.5411376953125 70.65254211425781 47.55844879150391 C 69.78498840332031 48.57670593261719 68.78908538818359 49.78845977783203 67.66640472412109 51.19184112548828 C 66.54237365722656 52.5969123840332 65.29093170166016 54.19443893432617 63.91355514526367 55.982666015625 C 62.53415679931641 57.77354431152344 61.02806854248047 59.75614929199219 59.39667129516602 61.92890167236328 C 55.47643280029297 67.16314697265625 51.66021728515625 72.53376007080078 47.9554443359375 78.03054046630859 C 44.23609161376953 83.54894256591797 40.6300048828125 89.193115234375 37.14468002319336 94.95250701904297 C 33.64652633666992 100.7331085205078 30.27097511291504 106.6282272338867 27.02557945251465 112.6269989013672 C 23.76912689208984 118.6462020874023 20.64465141296387 124.7680511474609 17.65974235534668 130.9813385009766 C 17.07758712768555 132.1953277587891 16.42738342285156 133.6128387451172 15.71048641204834 135.230712890625 C 14.99305057525635 136.8497924804688 14.20872116088867 138.6697387695312 13.35882759094238 140.6874389648438 C 12.50818347930908 142.7069244384766 11.59174537658691 144.9248046875 10.61082363128662 147.3380126953125 C 9.628901481628418 149.7536773681641 8.58223819732666 152.3654174804688 7.472120761871338 155.1701965332031 L 7.469042301177979 155.1779632568359 L 7.46587610244751 155.1856842041016 C 6.764016628265381 156.9070739746094 6.223637104034424 158.2989807128906 5.807913303375244 159.423583984375 C 5.392009735107422 160.5486602783203 5.10097599029541 161.4058990478516 4.897792339324951 162.0579071044922 C 4.69456672668457 162.7100677490234 4.579265594482422 163.1567840576172 4.514772415161133 163.4608612060547 C 4.450276374816895 163.7649841308594 4.436600685119629 163.9264221191406 4.436600685119629 164.0081024169922 C 4.436600685119629 164.1091918945312 4.442626476287842 164.2032928466797 4.455042839050293 164.2915802001953 C 4.467458724975586 164.3798522949219 4.486265182495117 164.4622955322266 4.51182746887207 164.5399932861328 C 4.537388324737549 164.61767578125 4.569703102111816 164.6906127929688 4.609136581420898 164.7599639892578 C 4.648568153381348 164.8292694091797 4.695118427276611 164.8949737548828 4.749149799346924 164.9581451416016 L 4.783627986907959 164.9984741210938 L 4.815285205841064 165.0413665771484 C 4.906328678131104 165.1646881103516 4.995313167572021 165.2609558105469 5.081887722015381 165.3358764648438 C 5.168453693389893 165.4107666015625 5.25261116027832 165.4643402099609 5.334009647369385 165.5022888183594 C 5.415400981903076 165.5402526855469 5.494035720825195 165.5626220703125 5.569561958312988 165.5751190185547 C 5.645082473754883 165.5876007080078 5.717496871948242 165.5902252197266 5.786455154418945 165.5886840820312 C 6.10448694229126 165.5816345214844 6.418007850646973 165.5345764160156 6.728094100952148 165.4469604492188 C 7.03808069229126 165.3593597412109 7.3446364402771 165.2312316894531 7.648836135864258 165.0619964599609 C 7.952939033508301 164.8927764892578 8.25468921661377 164.6824798583984 8.555159568786621 164.4305267333984 C 8.855535507202148 164.1786193847656 9.154630661010742 163.8851013183594 9.453517913818359 163.5493469238281 C 9.787903785705566 163.1737060546875 10.11888885498047 162.7470855712891 10.44591808319092 162.2705535888672 C 10.77283668518066 161.7941589355469 11.09580516815186 161.2678680419922 11.41427040100098 160.6926879882812 C 11.73263263702393 160.1177062988281 12.04649639129639 159.4938659667969 12.35531234741211 158.8221740722656 C 12.66403007507324 158.1507110595703 12.96770572662354 157.4314270019531 13.26578807830811 156.6653594970703 L 13.26765441894531 156.6605987548828 L 13.26955223083496 156.6558074951172 C 14.53324317932129 153.4679107666016 15.75190925598145 150.4341430664062 16.92383193969727 147.5584564208984 C 18.09432601928711 144.6862945556641 19.21830177307129 141.9715576171875 20.29404067993164 139.4182586669922 C 21.36857604980469 136.8678283691406 22.39509010314941 134.4782104492188 23.37185859680176 132.2534332275391 C 24.34763336181641 130.0309143066406 25.27386474609375 127.97265625 26.14882850646973 126.0827255249023 L 26.15078735351562 126.0784683227539 L 26.15278244018555 126.0742492675781 C 27.99744415283203 122.1507873535156 29.90810585021973 118.2457427978516 31.88070106506348 114.3662185668945 C 33.84922027587891 110.4946823120117 35.87914657592773 106.6490478515625 37.9664421081543 102.8362884521484 C 40.04916000366211 99.03189086914062 42.18872451782227 95.26069641113281 44.38111877441406 91.52957916259766 C 46.56845474243164 87.80707550048828 48.80811309814453 84.12488555908203 51.09612655639648 80.48979187011719 L 51.09893417358398 80.48533630371094 L 51.10177230834961 80.48091888427734 C 52.36550140380859 78.50447082519531 53.64595413208008 76.58544158935547 54.94075012207031 74.72679901123047 C 56.23376846313477 72.87071228027344 57.54103469848633 71.07489776611328 58.86020660400391 69.34233856201172 C 60.17752075195312 67.61220550537109 61.50665664672852 65.94517517089844 62.84526443481445 64.34415435791016 C 64.18198394775391 62.74542999267578 65.52810668945312 61.21256256103516 66.88130950927734 59.74844360351562 L 69.05698394775391 61.59513092041016 C 67.09989166259766 65.40660858154297 65.25644683837891 69.11102294921875 63.52991104125977 72.70149230957031 C 61.80020141601562 76.29859924316406 60.18827819824219 79.78043365478516 58.69737243652344 83.14015960693359 C 57.20409393310547 86.50520324707031 55.83260726928711 89.74689483642578 54.58607482910156 92.85836791992188 C 53.3378791809082 95.97396850585938 52.21530532836914 98.95819091796875 51.22142791748047 101.8042678833008 C 50.23549270629883 104.6275787353516 49.37022399902344 107.3313674926758 48.62680816650391 109.9109115600586 C 47.88280868530273 112.4924774169922 47.26105880737305 114.9489135742188 46.76266479492188 117.2755508422852 C 46.26400756835938 119.6034164428711 45.88896560668945 121.8007354736328 45.63857269287109 123.8629302978516 C 45.38810348510742 125.9256744384766 45.26241302490234 127.8526916503906 45.26241302490234 129.6394500732422 C 45.26241302490234 130.0004730224609 45.27943420410156 130.3506774902344 45.31335830688477 130.6895141601562 C 45.3472785949707 131.0283355712891 45.39809799194336 131.3557586669922 45.4656982421875 131.6712646484375 C 45.53329467773438 131.9867401123047 45.61766815185547 132.2902374267578 45.71868133544922 132.5812377929688 C 45.8196907043457 132.8721923828125 45.93734741210938 133.1506500244141 46.07151794433594 133.4160003662109 C 46.25424575805664 133.7774200439453 46.45762634277344 134.0902252197266 46.68408203125 134.35595703125 C 46.91047668457031 134.6216278076172 47.15993499755859 134.8402862548828 47.43486404418945 135.013427734375 C 47.70971298217773 135.1865234375 48.010009765625 135.3141174316406 48.33815002441406 135.3977813720703 C 48.66617965698242 135.4814300537109 49.02202606201172 135.5211486816406 49.40808868408203 135.5185394287109 C 49.83343887329102 135.5156555175781 50.26969528198242 135.4520416259766 50.71602630615234 135.3282012939453 C 51.16215133666992 135.2044219970703 51.61833572387695 135.0204315185547 52.0837516784668 134.7767639160156 C 52.54893493652344 134.5331726074219 53.02333831787109 134.2299652099609 53.50611877441406 133.8675537109375 C 53.98865127563477 133.5053558349609 54.47956466674805 133.0840301513672 54.97801971435547 132.6040954589844 C 55.5287971496582 132.0721130371094 56.12133026123047 131.4116973876953 56.75426483154297 130.6248626708984 C 57.38678359985352 129.8385467529297 58.05958938598633 128.9260559082031 58.77133178710938 127.8893890380859 C 59.48254013061523 126.8535232543945 60.23256301879883 125.6937637329102 61.02005386352539 124.4121932983398 C 61.80688095092773 123.1316757202148 62.63104248046875 121.7296447753906 63.49117660522461 120.2081680297852 C 65.48809814453125 116.6348037719727 67.46565246582031 113.1610336303711 69.42059326171875 109.7920532226562 C 71.37143707275391 106.4301071166992 73.29985046386719 103.1723403930664 75.20261383056641 100.0238876342773 C 77.10150146484375 96.8818359375 78.97492980957031 93.84848022460938 80.81974029541016 90.92888641357422 C 82.66089630126953 88.01507568359375 84.47362518310547 85.21437835693359 86.25483703613281 82.53185272216797 C 88.03589630126953 79.84953308105469 89.79824829101562 77.26600646972656 91.53901672363281 74.78491973876953 C 93.27650451660156 72.30850219726562 94.99256896972656 69.93403625488281 96.68437957763672 67.66514587402344 C 98.37306213378906 65.40039825439453 100.0376739501953 63.24073028564453 101.6753463745117 61.18969345092773 C 103.3101119995117 59.14230728149414 104.9181289672852 57.20306777954102 106.4966506958008 55.37554550170898 L 108.5945816040039 57.17962646484375 C 105.6069030761719 62.94381713867188 102.7893676757812 68.50675964355469 100.1476135253906 73.85738372802734 C 97.49822235107422 79.22341156005859 95.02665710449219 84.37377166748047 92.73835754394531 89.29742431640625 C 90.44436645507812 94.23329925537109 88.33549499511719 98.9393310546875 86.41706085205078 103.4045715332031 C 84.49464416503906 107.8790893554688 82.76426696777344 112.1099624633789 81.23105621337891 116.0864486694336 C 79.70804595947266 120.0364685058594 78.37067413330078 123.7570343017578 77.22109985351562 127.2412719726562 C 76.07010650634766 130.7298126220703 75.10781860351562 133.9800262451172 74.33620452880859 136.9852905273438 C 73.56394195556641 139.9930267333984 72.98297119140625 142.7541809082031 72.59500885009766 145.2623901367188 C 72.20688629150391 147.7716217041016 72.01210021972656 150.0267028808594 72.01210021972656 152.0214996337891 C 72.01210021972656 152.6032409667969 72.03305816650391 153.1512603759766 72.07485961914062 153.6648101806641 C 72.11663818359375 154.1783294677734 72.17926025390625 154.6573333740234 72.26252746582031 155.1010437011719 C 72.34580230712891 155.5447235107422 72.44973754882812 155.9530944824219 72.57417297363281 156.3253479003906 C 72.69859313964844 156.6975708007812 72.84352111816406 157.03369140625 73.00878143310547 157.3329010009766 L 73.02317047119141 157.3589630126953 L 73.03656005859375 157.3856811523438 C 73.26985168457031 157.8507080078125 73.50188446044922 158.2118988037109 73.72819519042969 158.4919128417969 C 73.95445251464844 158.7718353271484 74.17497253417969 158.9706420898438 74.38524627685547 159.1109313964844 C 74.59548187255859 159.251220703125 74.79549407958984 159.3330383300781 74.98076629638672 159.3790435791016 C 75.16599273681641 159.4250335693359 75.33650970458984 159.4352416992188 75.48779296875 159.4322357177734 C 75.69966125488281 159.4280700683594 75.90667724609375 159.3941802978516 76.10951995849609 159.3301544189453 C 76.31232452392578 159.2661437988281 76.51096343994141 159.1719970703125 76.70613098144531 159.0472869873047 C 76.90126800537109 158.922607421875 77.09291839599609 158.7673950195312 77.28178405761719 158.5811767578125 C 77.47061920166016 158.3950042724609 77.65667724609375 158.1778869628906 77.84064483642578 157.9293518066406 L 77.85411071777344 157.9111785888672 L 77.86808013916016 157.8934631347656 C 78.10337066650391 157.5947723388672 78.30838012695312 157.2945556640625 78.48355102539062 156.9916687011719 C 78.65869140625 156.6888427734375 78.80400085449219 156.3833160400391 78.91990661621094 156.0740356445312 C 79.03579711914062 155.7647857666016 79.12229919433594 155.4517517089844 79.17981719970703 155.1338043212891 C 79.23733520507812 154.8158721923828 79.26590728759766 154.4930419921875 79.26590728759766 154.1641845703125 C 79.26590728759766 154.1257476806641 79.26358032226562 154.0546569824219 79.25472259521484 153.9236145019531 C 79.24587249755859 153.7926025390625 79.23048400878906 153.6015777587891 79.204345703125 153.3231964111328 C 79.17822265625 153.0448303222656 79.14134979248047 152.6790924072266 79.08951568603516 152.1986236572266 C 79.03766632080078 151.7181091308594 78.97087097167969 151.1228637695312 78.8848876953125 150.3854217529297 C 78.85653686523438 150.1815795898438 78.83169555664062 149.9787139892578 78.81035614013672 149.7772216796875 C 78.78901672363281 149.5757141113281 78.77120208740234 149.3755493164062 78.75692749023438 149.1770629882812 C 78.74266052246094 148.9785919189453 78.73192596435547 148.7818145751953 78.72476959228516 148.5870819091797 C 78.71760559082031 148.392333984375 78.71401977539062 148.1996459960938 78.71401977539062 148.0093078613281 C 78.71401214599609 147.183349609375 78.77162933349609 146.2543029785156 78.88771057128906 145.2178955078125 C 79.00374603271484 144.1815643310547 79.17821502685547 143.0380249023438 79.41185760498047 141.7829437255859 C 79.64546966552734 140.5282135009766 79.93820953369141 139.1621398925781 80.29086303710938 137.6805572509766 C 80.64337921142578 136.1995086669922 81.05570983886719 134.6032257080078 81.52861022949219 132.8874969482422 L 81.52977752685547 132.8832397460938 L 81.53096771240234 132.8789978027344 C 82.31783294677734 130.0840606689453 83.22092437744141 127.1339569091797 84.23772430419922 124.0354156494141 C 85.25342559814453 120.9402770996094 86.38233184814453 117.6977920532227 87.62188720703125 114.3147354125977 C 88.85978698730469 110.9362106323242 90.20774078369141 107.4183120727539 91.66307830810547 103.7678451538086 C 93.11613464355469 100.1231155395508 94.67591857910156 96.34711456298828 96.33975219726562 92.44668579101562 C 96.94620513916016 91.02251434326172 97.69259643554688 89.35460662841797 98.57656860351562 87.44780731201172 C 99.45967864990234 85.54283142089844 100.4798355102539 83.40000152587891 101.6345291137695 81.02436065673828 C 102.7877807617188 78.65169525146484 104.0749130249023 76.04749298095703 105.4933319091797 73.21695709228516 C 106.9095764160156 70.39080810546875 108.456298828125 67.33983612060547 110.1308364868164 64.06941223144531 L 110.1320877075195 64.06696319580078 L 110.1333312988281 64.06453704833984 C 111.067008972168 62.25775527954102 111.8974456787109 60.64904022216797 112.6240463256836 59.23963928222656 C 113.3500595092773 57.83135223388672 113.9725570678711 56.62173843383789 114.4908447265625 55.61215972900391 C 115.0088272094727 54.60315322875977 115.4228363037109 53.7937126159668 115.7320938110352 53.18532562255859 C 116.0412521362305 52.57714462280273 116.2458114624023 52.16975021362305 116.3449401855469 51.96475982666016 L 116.3516006469727 51.95100784301758 L 116.3585357666016 51.93740081787109 C 116.9652862548828 50.74710083007812 117.4518814086914 49.70722579956055 117.8405151367188 48.79907989501953 C 118.2289886474609 47.89131927490234 118.519645690918 47.11499404907227 118.7345581054688 46.45158004760742 C 118.9494094848633 45.78832244873047 119.0885772705078 45.23783111572266 119.1740188598633 44.78169250488281 C 119.2594680786133 44.32559967041016 119.2912063598633 43.96380233764648 119.2912063598633 43.67797088623047 C 119.2912063598633 43.4525146484375 119.2753524780273 43.23975372314453 119.2430801391602 43.03808975219727 C 119.2108001708984 42.83641815185547 119.1620788574219 42.64581680297852 119.0963287353516 42.46468353271484 C 119.0305862426758 42.28353881835938 118.9478073120117 42.11186981201172 118.8474426269531 41.94804763793945 C 118.7470397949219 41.78420257568359 118.6290130615234 41.62820053100586 118.4927978515625 41.47845840454102 L 118.4647827148438 41.44765090942383 L 118.438346862793 41.41510009765625 C 118.2741394042969 41.21277618408203 118.1006927490234 41.03505706787109 117.9172821044922 40.8815803527832 C 117.7338409423828 40.72806167602539 117.5404434204102 40.59879302978516 117.3363571166992 40.49340057373047 C 117.1322250366211 40.38798141479492 116.9173889160156 40.30644607543945 116.6911315917969 40.24844741821289 C 116.4648284912109 40.1904296875 116.2270812988281 40.15593719482422 115.9771728515625 40.14462280273438 C 115.7441329956055 40.13405990600586 115.5034103393555 40.14885711669922 115.2554626464844 40.18886184692383 C 115.0074615478516 40.22887420654297 114.7522201538086 40.29411315917969 114.4902191162109 40.3844108581543 C 114.2281494140625 40.47474670410156 113.9592895507812 40.59017181396484 113.6840896606445 40.73052597045898 C 113.408805847168 40.87092590332031 113.127197265625 41.03628540039062 112.8396911621094 41.22647476196289 C 112.5248413085938 41.43474578857422 112.2024841308594 41.67310333251953 111.8732223510742 41.94100952148438 C 111.5438537597656 42.20901489257812 111.2075576782227 42.506591796875 110.8649215698242 42.83318328857422 C 110.5221710205078 43.15988922119141 110.1730804443359 43.51564788818359 109.8182373046875 43.89989471435547 C 109.463264465332 44.2842903137207 109.1025390625 44.69719696044922 108.7366485595703 45.13806915283203 C 107.4497909545898 46.67875289916992 106.118034362793 48.32230758666992 104.7436752319336 50.06574249267578 C 103.3672714233398 51.81180953979492 101.9480133056641 53.65822219848633 100.4882354736328 55.60197830200195 C 99.02613067626953 57.54883193969727 97.52324676513672 59.59351348876953 95.98193359375 61.73303604125977 C 94.43800354003906 63.87613296508789 92.85538482666016 66.11454772949219 91.23641204833984 68.44528961181641 C 88.43626403808594 72.48204803466797 85.81183624267578 76.30466461181641 83.36826324462891 79.90557098388672 C 80.91824340820312 83.51599884033203 78.65102386474609 86.90210723876953 76.57162475585938 90.05651092529297 C 74.48757171630859 93.21798706054688 72.59303283691406 96.14540863037109 70.89285278320312 98.83159637451172 C 69.18956756591797 101.5226974487305 67.68206787109375 103.9705429077148 66.37499237060547 106.1681747436523 C 64.83437347412109 108.7544937133789 63.42742156982422 111.1120147705078 62.15649032592773 113.2368469238281 C 60.88383102416992 115.3645553588867 59.74791717529297 117.25830078125 58.75099182128906 118.9143753051758 C 57.75301361083984 120.5722198486328 56.89461517333984 121.9913711547852 56.17791366577148 123.1683120727539 C 55.46067047119141 124.3461532592773 54.88555908203125 125.2810363769531 54.45458984375 125.9696655273438 L 51.93224716186523 124.8796844482422 C 52.27273941040039 122.6177444458008 52.7206916809082 120.2249908447266 53.27458190917969 117.7067031860352 C 53.82815170288086 115.1899032592773 54.4874267578125 112.5482940673828 55.2508544921875 109.7873001098633 C 56.01366806030273 107.028564453125 56.88028717041016 104.1512145996094 57.84909820556641 101.1607284545898 C 58.81692123413086 98.17333221435547 59.88651275634766 95.07369232177734 61.05619812011719 91.86727905273438 L 61.06023025512695 91.85624694824219 L 61.06441116333008 91.84529113769531 C 62.41684341430664 88.30442810058594 63.80442047119141 84.84539794921875 65.22437286376953 81.47380065917969 C 66.64218139648438 78.10732269287109 68.09217834472656 74.8282470703125 69.57160186767578 71.64211273193359 C 71.0487060546875 68.46102142333984 72.55506134033203 65.37279510498047 74.08795166015625 62.38292694091797 C 75.61831665039062 59.39795684814453 77.17505645751953 56.51117706298828 78.75543975830078 53.72799301147461 C 79.43227386474609 52.52894973754883 79.96483612060547 51.49990844726562 80.38298797607422 50.61807250976562 C 80.80094909667969 49.73662185668945 81.10472106933594 49.00200653076172 81.32398986816406 48.39162826538086 C 81.543212890625 47.78139495849609 81.67801666259766 47.29523468017578 81.75801849365234 46.91067504882812 C 81.83799743652344 46.52614212036133 81.86321258544922 46.24315643310547 81.86321258544922 46.03932952880859 C 81.86321258544922 45.75603103637695 81.83523559570312 45.47980117797852 81.77888488769531 45.20970916748047 C 81.72252655029297 44.93960189819336 81.63777923583984 44.67562484741211 81.52424621582031 44.41685104370117 C 81.41071319580078 44.15804672241211 81.26836395263672 43.90443420410156 81.0968017578125 43.65508270263672 C 80.92519378662109 43.40568542480469 80.724365234375 43.16055297851562 80.49385833740234 42.91873550415039 L 80.48466491699219 42.90910339355469 L 80.47564697265625 42.89929580688477 C 80.28977966308594 42.6972770690918 80.1065673828125 42.52025604248047 79.92540740966797 42.36790466308594 C 79.74419403076172 42.21551132202148 79.56502532958984 42.0877799987793 79.38726043701172 41.98435974121094 C 79.20947265625 41.88090896606445 79.03310394287109 41.80178070068359 78.85751342773438 41.74660873413086 C 78.68189239501953 41.69142532348633 78.50706481933594 41.66020965576172 78.33238983154297 41.6525993347168 C 78.10662841796875 41.64275360107422 77.83233642578125 41.6705207824707 77.50301361083984 41.76307678222656 C 77.17355346679688 41.85566329956055 76.78897857666016 42.01308822631836 76.34270477294922 42.26260757446289 C 75.89621734619141 42.51224517822266 75.38790893554688 42.85409164428711 74.81119537353516 43.31547927856445 C 74.23412322998047 43.77714538574219 73.58846282958984 44.35856246948242 72.86754608154297 45.08716583251953 Z" stroke="none" fill="#fff"/>
      </g>
      <g id="M-2" data-name="M" transform="translate(335.969 765.955)" fill="#fff">
        <path d="M53.306,125.122q1.294-2.065,4.276-7.014t7.642-12.765q1.969-3.307,4.516-7.33t5.668-8.754q3.121-4.732,6.813-10.168t7.95-11.569q9.763-14.042,17.591-23.4,4.65-5.6,8.216-5.433,2.043.094,3.4,1.77,1.206,1.328,1.206,3.279,0,2.885-3.095,8.962-.3.627-1.857,3.657t-4.364,8.473q-5.048,9.867-8.483,16.94T97.54,93.095q-5.008,11.749-8.691,21.811t-6.031,18.408q-2.752,9.993-2.752,14.678,0,1.041.157,2.167.394,3.377.394,3.984,0,2.515-1.733,4.717-1.5,2.027-3.4,2.066-2.218.046-3.647-2.8-1.192-2.157-1.192-6.081,0-1.532.145-3.25t.434-3.62q.289-1.9.723-3.99t1.012-4.358q.578-2.271,1.3-4.725t1.59-5.09q.867-2.636,1.877-5.454T79.9,115.74q1.154-3,2.451-6.177t2.737-6.535q1.44-3.357,3.022-6.891t3.306-7.246q1.724-3.711,3.589-7.6t3.871-7.947q2.006-4.061,4.152-8.294t4.431-8.639q-9.545,11.062-20.237,27.2T64.663,121q-5.3,9.382-8.767,12.735-3.4,3.278-6.487,3.3t-4.568-2.883q-.982-1.94-.982-4.5,0-2.752.377-5.9t1.129-6.683q.753-3.537,1.881-7.462t2.632-8.235q1.5-4.31,3.38-9T57.384,82.6q2.249-5.07,4.868-10.514t5.607-11.257Q59.766,69.6,52.252,81.36q-13.81,21.961-24.822,45.4Q22.169,138.133,14.6,157.235q-3.805,9.787-8.817,9.9-1.278.029-2.132-1.125-.683-.8-.683-1.973,0-1.717,3.155-9.449,3.353-8.464,5.913-14.538t4.334-9.768q8.964-18.643,19.458-35.99t22.484-33.34q4.935-6.566,8.333-10.808t5.27-6.173q3.884-3.923,6.413-3.811,1.577.07,3.072,1.7,1.807,1.9,1.807,4.236,0,2.6-3.3,8.453-9.5,16.744-17.571,37.893-3.5,9.607-5.762,17.783T53.306,125.122Z" stroke="none"/>
        <path d="M 5.786455154418945 168.685546875 C 5.463794231414795 168.6932373046875 5.15137243270874 168.6631622314453 4.851057529449463 168.5963439941406 C 4.550649166107178 168.5294952392578 4.262361526489258 168.4258270263672 3.988060474395752 168.2863006591797 C 3.71368145942688 168.1467590332031 3.453303813934326 167.9713287353516 3.208797216415405 167.7609558105469 C 2.964229583740234 167.550537109375 2.73554801940918 167.3051910400391 2.524622917175293 167.0258636474609 C 2.355486392974854 166.8236389160156 2.207177400588989 166.6098327636719 2.079850435256958 166.3849182128906 C 1.952507853507996 166.1599426269531 1.84615695476532 165.923828125 1.760952115058899 165.6770172119141 C 1.675739645957947 165.4301300048828 1.611680746078491 165.1725921630859 1.568923830986023 164.9047241210938 C 1.526165366172791 164.6368713378906 1.504712820053101 164.3587341308594 1.504712820053101 164.0707244873047 C 1.504712820053101 163.833251953125 1.528045296669006 163.5298309326172 1.608511447906494 163.0969543457031 C 1.688971638679504 162.6640930175781 1.826545715332031 162.1018371582031 2.054996967315674 161.3466949462891 C 2.283394575119019 160.5917358398438 2.602582931518555 159.6441345214844 3.046223402023315 158.440673828125 C 3.489660978317261 157.23779296875 4.057323455810547 155.7795715332031 4.782683372497559 154.0032348632812 C 5.90255069732666 151.1784820556641 6.958964824676514 148.5470275878906 7.950628280639648 146.1118469238281 C 8.941272735595703 143.6791687011719 9.867431640625 141.4420471191406 10.72778701782227 139.4035491943359 C 11.58737468719482 137.3668823242188 12.38139152526855 135.5281829833984 13.10850238800049 133.8905792236328 C 13.83506679534912 132.2542419433594 14.4949254989624 130.8184509277344 15.08672428131104 129.58642578125 C 16.59536552429199 126.4514007568359 18.14195823669434 123.3339538574219 19.72343635559082 120.2395858764648 C 21.30231285095215 117.1503067016602 22.91584205627441 114.0842666625977 24.56097412109375 111.0468444824219 C 26.20328521728516 108.0146408081055 27.87697601318359 105.0111694335938 29.57902908325195 102.0418090820312 C 31.27805328369141 99.07772827148438 33.00523376464844 96.14781188964844 34.75756454467773 93.25732421875 C 36.50666427612305 90.37216949462891 38.29300689697266 87.50621795654297 40.11307144165039 84.66452026367188 C 41.92964935302734 81.82823181152344 43.77968978881836 79.01631164550781 45.65969085693359 76.23367309570312 C 47.53597259521484 73.45656585693359 49.44197845458984 70.70882415771484 51.37423706054688 67.99532318115234 C 53.30255508422852 65.28738403320312 55.25692367553711 62.61372756958008 57.23392105102539 59.97916412353516 C 58.91130447387695 57.74945831298828 60.44923782348633 55.72852325439453 61.8524169921875 53.91036987304688 C 63.25351333618164 52.09493255615234 64.52064514160156 50.48115921020508 65.65841674804688 49.06330108642578 C 66.79478454589844 47.64717102050781 67.80240631103516 46.42606353759766 68.68567657470703 45.39444351196289 C 69.568115234375 44.36380386352539 70.32668304443359 43.52201080322266 70.96566009521484 42.86369323730469 L 70.9705810546875 42.8586311340332 L 70.97554016113281 42.85361480712891 C 71.69737243652344 42.12541961669922 72.38915252685547 41.49398040771484 73.05312347412109 40.95793914794922 C 73.71661376953125 40.42228317260742 74.35234832763672 39.98185729980469 74.96255493164062 39.63532257080078 C 75.57238006591797 39.28902435302734 76.15670776367188 39.03647232055664 76.71775817871094 38.87636566162109 C 77.27847290039062 38.71635437011719 77.81594848632812 38.64865493774414 78.33238983154297 38.6719856262207 C 78.68275451660156 38.68780899047852 79.02947998046875 38.74470901489258 79.37197113037109 38.84236145019531 C 79.71434020996094 38.93997955322266 80.052490234375 39.07830429077148 80.38585662841797 39.25702285766602 C 80.71910858154297 39.43567276000977 81.04756927490234 39.65468215942383 81.37067413330078 39.9137077331543 C 81.69366455078125 40.17264175415039 82.01131439208984 40.47158432006836 82.32302856445312 40.81018829345703 C 82.69399261474609 41.20121002197266 83.01913452148438 41.60673904418945 83.29814910888672 42.02603530883789 C 83.57707214355469 42.44519424438477 83.80994415283203 42.87815093994141 83.99645233154297 43.32414627075195 C 84.18291473388672 43.77004241943359 84.32307434082031 44.22902679443359 84.41661071777344 44.70034027099609 C 84.51013946533203 45.17160797119141 84.55705261230469 45.65525817871094 84.55705261230469 46.15054321289062 C 84.55705261230469 46.66443252563477 84.48779296875 47.23252487182617 84.34669494628906 47.86161422729492 C 84.20558166503906 48.49081039428711 83.99259948730469 49.18110656738281 83.70513916015625 49.93933868408203 C 83.4176025390625 50.69781875610352 83.05549621582031 51.52438735961914 82.61617279052734 52.42592239379883 C 82.17665100097656 53.32789611816406 81.65978240966797 54.3050537109375 81.06288146972656 55.36433410644531 C 79.50475311279297 58.11309432983398 77.9698486328125 60.96442031860352 76.46077728271484 63.91304397583008 C 74.94926452636719 66.86644744873047 73.46376037597656 69.91729736328125 72.00691986083984 73.06024932861328 C 70.54779815673828 76.20812225341797 69.11750793457031 79.44818115234375 67.71871948242188 82.77500915527344 C 66.31784820556641 86.10682678222656 64.94865417480469 89.52544403076172 63.61385726928711 93.02540588378906 C 62.77537155151367 95.32783508300781 61.98946380615234 97.5731201171875 61.25677871704102 99.75911712646484 C 60.52352142333984 101.9468231201172 59.84365463256836 104.0748901367188 59.21781539916992 106.1412200927734 C 58.59156036376953 108.2089233398438 58.01947402954102 110.2145538330078 57.50217437744141 112.1560134887695 C 56.98459625244141 114.0985412597656 56.52191543579102 115.9765853881836 56.11474609375 117.7880554199219 C 56.62453842163086 116.943473815918 57.17329406738281 116.032356262207 57.76071548461914 115.0552749633789 C 58.34775924682617 114.0787734985352 58.97336196899414 113.0364608764648 59.63717651367188 111.9288864135742 C 60.30053329467773 110.8221054077148 61.00199890136719 109.6502380371094 61.74122619628906 108.4138565063477 C 62.47987747192383 107.178466796875 63.25617980957031 105.8787536621094 64.06977081298828 104.5153198242188 C 65.38877868652344 102.3015289306641 66.90885925292969 99.83741760253906 68.62532806396484 97.1300048828125 C 70.33865356445312 94.42756652832031 72.24694061279297 91.48385620117188 74.34529113769531 88.30610656738281 C 76.43892669677734 85.135498046875 78.72093963623047 81.73320007324219 81.18627166748047 78.10666656494141 C 83.64505767822266 74.48972320556641 86.28521728515625 70.65116119384766 89.1015625 66.59857940673828 C 90.73616027832031 64.24970245361328 92.33444976806641 61.99342727661133 93.89400482177734 59.83282089233398 C 95.45093536376953 57.67586135864258 96.96939849853516 55.61407089233398 98.44701385498047 53.6505126953125 C 99.92227935791016 51.69010925292969 101.35693359375 49.82744979858398 102.7486190795898 48.06560516357422 C 104.1381988525391 46.30643844604492 105.4850616455078 44.64760971069336 106.7868423461914 43.09218597412109 C 107.6366271972656 42.07026290893555 108.4620132446289 41.18410873413086 109.2657089233398 40.43182373046875 C 110.0686950683594 39.68020248413086 110.8500823974609 39.06219482421875 111.6125411987305 38.57593536376953 C 112.374382019043 38.09009170532227 113.1173553466797 37.73575973510742 113.8441696166992 37.51111221313477 C 114.5704040527344 37.28664779663086 115.2805099487305 37.19165420532227 115.9771728515625 37.22432708740234 C 116.4057464599609 37.24441909790039 116.8179168701172 37.30666351318359 117.2130813598633 37.41068649291992 C 117.6080474853516 37.51465606689453 117.9860458374023 37.66038131713867 118.3464660644531 37.84751129150391 C 118.7067413330078 38.03456878662109 119.0494384765625 38.26299667358398 119.3739852905273 38.53246307373047 C 119.6984100341797 38.80183410644531 120.0047149658203 39.11221694946289 120.2922744750977 39.46327972412109 C 120.5554656982422 39.75696182250977 120.7861557006836 40.06818008422852 120.9841384887695 40.39634323120117 C 121.1820907592773 40.72443008422852 121.3473510742188 41.06946182250977 121.4797134399414 41.43083190917969 C 121.6120529174805 41.79215621948242 121.7115325927734 42.16983795166016 121.7779159545898 42.56328582763672 C 121.8442916870117 42.95669937133789 121.8776168823242 43.36591339111328 121.8776168823242 43.79030609130859 C 121.8776168823242 44.33883666992188 121.8112869262695 44.94719314575195 121.6776962280273 45.61828994750977 C 121.544075012207 46.28947448730469 121.3431549072266 47.02350234985352 121.0739059448242 47.82328033447266 C 120.804573059082 48.62328720092773 120.4668579101562 49.48921585083008 120.0597457885742 50.42401123046875 C 119.6524276733398 51.35921096801758 119.1755752563477 52.36347961425781 118.6281204223633 53.4398078918457 C 118.5213012695312 53.660400390625 118.3143157958984 54.07343673706055 118.0053176879883 54.68251419067383 C 117.6962051391602 55.29178619384766 117.2849273681641 56.09736633300781 116.7695999145508 57.10300064086914 C 116.2539520263672 58.10918807983398 115.6340103149414 59.31587982177734 114.9077682495117 60.72696685791016 C 114.1809310913086 62.13916778564453 113.3474807739258 63.75642395019531 112.4052734375 65.582763671875 C 110.7429733276367 68.83470153808594 109.2081069946289 71.86717987060547 107.8032760620117 74.67486572265625 C 106.3963012695312 77.48687744140625 105.1201705932617 80.07260131835938 103.9774398803711 82.42691040039062 C 102.8332901000977 84.78415679931641 101.8232192993164 86.90872955322266 100.9496383666992 88.79562377929688 C 100.0752258300781 90.68431854248047 99.33786010742188 92.33432006835938 98.7398681640625 93.74089050292969 C 97.09359741210938 97.60634613037109 95.5506591796875 101.347053527832 94.11372375488281 104.9562377929688 C 92.67453002929688 108.5710525512695 91.34199523925781 112.0530853271484 90.11872100830078 115.3955764770508 C 88.89382171630859 118.7424850463867 87.77877044677734 121.9486846923828 86.77610778808594 125.007453918457 C 85.77234649658203 128.0695495605469 84.88147735595703 130.983154296875 84.10597229003906 133.7416381835938 C 83.66045379638672 135.3606109619141 83.26966857910156 136.8744201660156 82.93405914306641 138.2807464599609 C 82.59833526611328 139.6875762939453 82.31787109375 140.9866790771484 82.09313201904297 142.1758270263672 C 81.86833190917969 143.3652496337891 81.69930267333984 144.4445037841797 81.58645629882812 145.4113616943359 C 81.47361755371094 146.3783569335938 81.4169921875 147.2327880859375 81.41699981689453 147.9725189208984 C 81.41699981689453 148.1262359619141 81.41996765136719 148.2823028564453 81.42591094970703 148.4404296875 C 81.43184661865234 148.5985565185547 81.44073486328125 148.7587585449219 81.45256042480469 148.9207153320312 C 81.46437835693359 149.0826721191406 81.47914886474609 149.2464141845703 81.49681091308594 149.4116363525391 C 81.51449584960938 149.5768737792969 81.53507995605469 149.7435913085938 81.55856323242188 149.9115142822266 L 81.56114196777344 149.9299926757812 L 81.56329345703125 149.9485015869141 C 81.65282440185547 150.7171630859375 81.72283935546875 151.3416748046875 81.77749633789062 151.8511962890625 C 81.8321533203125 152.3606872558594 81.8714599609375 152.7552032470703 81.89958190917969 153.0638732910156 C 81.92769622802734 153.3725280761719 81.94461822509766 153.5953369140625 81.95450592041016 153.7613983154297 C 81.96439361572266 153.9274444580078 81.96727752685547 154.0367736816406 81.96727752685547 154.1184387207031 C 81.96727752685547 154.6267242431641 81.92414855957031 155.1274261474609 81.83817291259766 155.6197052001953 C 81.75218200683594 156.1119842529297 81.62333679199219 156.595947265625 81.45193481445312 157.0707397460938 C 81.28048706054688 157.5456085205078 81.06642150878906 158.0113525390625 80.81003570556641 158.4671936035156 C 80.5535888671875 158.9231414794922 80.25474548339844 159.3692016601562 79.91380310058594 159.8045959472656 C 79.59893798828125 160.2287292480469 79.26983642578125 160.601806640625 78.92708587646484 160.9233856201172 C 78.58421325683594 161.2451171875 78.22767639160156 161.5153198242188 77.85812377929688 161.7336273193359 C 77.48842620849609 161.9520263671875 77.10567474365234 162.1184692382812 76.71050262451172 162.2325744628906 C 76.31516265869141 162.3467254638672 75.90738677978516 162.4084777832031 75.48779296875 162.4174194335938 C 75.14407348632812 162.4247436523438 74.76423645019531 162.3935241699219 74.36437225341797 162.2962646484375 C 73.96431732177734 162.1989440917969 73.54420471191406 162.0355377197266 73.12014007568359 161.7785034179688 C 72.69588470458984 161.5213623046875 72.26766967773438 161.1705017089844 71.85165405273438 160.6983947753906 C 71.43544769287109 160.2260589599609 71.03147125244141 159.6323699951172 70.65591430664062 158.8898010253906 C 70.42487335205078 158.4685363769531 70.22346496582031 158.0130004882812 70.05131530761719 157.5212707519531 C 69.87913513183594 157.0294189453125 69.73622131347656 156.5013885498047 69.62220001220703 155.9351806640625 C 69.50815582275391 155.3689270019531 69.42301940917969 154.7645263671875 69.36639404296875 154.1200408935547 C 69.30976104736328 153.4755249023438 69.28163909912109 152.7909698486328 69.28163909912109 152.0644073486328 C 69.28163909912109 151.0060119628906 69.33213043212891 149.8806762695312 69.43276214599609 148.6908416748047 C 69.53336334228516 147.5011138916016 69.68409729003906 146.2470397949219 69.88455963134766 144.9309997558594 C 70.08496856689453 143.6152191162109 70.33509063720703 142.2376708984375 70.63449859619141 140.8007507324219 C 70.93382263183594 139.3643188476562 71.28237915039062 137.8686828613281 71.67976379394531 136.3163452148438 C 72.07244873046875 134.7824401855469 72.51580810546875 133.1810760498047 73.00875091552734 131.5155639648438 C 73.50143432617188 129.8509216308594 74.04358673095703 128.1223754882812 74.63410949707031 126.3332824707031 C 75.22422790527344 124.5453033447266 75.86259460449219 122.6969985961914 76.54807281494141 120.7917175292969 C 77.23303985595703 118.8878326416016 77.9649658203125 116.9272308349609 78.74272155761719 114.9132690429688 C 80.01470947265625 111.619499206543 81.42047882080078 108.1538619995117 82.95720672607422 104.5222854614258 C 84.49137115478516 100.8967132568359 86.15562438964844 97.10678100585938 87.94704437255859 93.15852355957031 C 89.7349853515625 89.21788787841797 91.64909362792969 85.12061309814453 93.68637084960938 80.872802734375 C 95.71917724609375 76.63434600830078 97.87404632568359 72.24714660644531 100.1479339599609 67.71734619140625 C 97.54879760742188 71.14860534667969 94.88509368896484 74.84553527832031 92.15932464599609 78.80511474609375 C 89.42549133300781 82.77643585205078 86.62887573242188 87.01244354248047 83.77196502685547 91.51014709472656 C 80.90623474121094 96.02175903320312 77.97950744628906 100.797233581543 74.99430847167969 105.833610534668 C 71.99952697753906 110.8861541748047 68.94554138183594 116.2018661499023 65.83494567871094 121.7777862548828 L 65.83311462402344 121.7810745239258 L 65.83126831054688 121.7843322753906 C 64.92507934570312 123.3901062011719 64.06104278564453 124.8619232177734 63.23666763305664 126.2033157348633 C 62.41157150268555 127.5458831787109 61.62625503540039 128.7576599121094 60.87820053100586 129.8422698974609 C 60.12954330444336 130.9277191162109 59.41827011108398 131.8856964111328 58.74181365966797 132.7198028564453 C 58.06486511230469 133.5545043945312 57.4228401184082 134.2651214599609 56.81316375732422 134.8553161621094 C 56.18492889404297 135.4615325927734 55.55821990966797 135.9938812255859 54.93408966064453 136.4517669677734 C 54.30953979492188 136.9099273681641 53.68757629394531 137.2935180664062 53.06924438476562 137.6019134521484 C 52.45051574707031 137.9105072021484 51.8354377746582 138.1438446044922 51.2250862121582 138.3013153076172 C 50.61433029174805 138.4588775634766 50.00830841064453 138.5404663085938 49.40808868408203 138.5455017089844 C 48.76658630371094 138.5508880615234 48.1600456237793 138.4759826660156 47.59191131591797 138.3228454589844 C 47.02344512939453 138.1696319580078 46.49347305297852 137.9380950927734 46.00546264648438 137.6303253173828 C 45.5172004699707 137.3224182128906 45.07098007202148 136.938232421875 44.67026138305664 136.4798736572266 C 44.26937103271484 136.0213470458984 43.91405868530273 135.4886322021484 43.60777282714844 134.8838653564453 C 43.41632080078125 134.5058746337891 43.24842834472656 134.1122741699219 43.10428237915039 133.7039031982422 C 42.96011734008789 133.2954559326172 42.8397102355957 132.8722229003906 42.74323654174805 132.4349975585938 C 42.64675521850586 131.9977264404297 42.57421875 131.5464782714844 42.52579879760742 131.0820007324219 C 42.47738265991211 130.6175231933594 42.45308303833008 130.1398315429688 42.45308303833008 129.6497650146484 C 42.45308303833008 128.703369140625 42.48583602905273 127.7202682495117 42.55110931396484 126.7023849487305 C 42.61637878417969 125.6845932006836 42.71416091918945 124.6321029663086 42.84421539306641 123.5468978881836 C 42.97425079345703 122.4618225097656 43.13655090332031 121.344108581543 43.33086013793945 120.1957092285156 C 43.52512359619141 119.0475463867188 43.75138473510742 117.8687896728516 44.00937652587891 116.6613998413086 C 44.26485061645508 115.4657974243164 44.55332565307617 114.2331771850586 44.87411880493164 112.9659805297852 C 45.19479751586914 111.6992034912109 45.5477409362793 110.39794921875 45.93224334716797 109.0646362304688 C 46.31657791137695 107.7318420410156 46.732421875 106.3671188354492 47.17905426025391 104.9728393554688 C 47.6254768371582 103.5792236328125 48.10263061523438 102.1562042236328 48.60979843139648 100.7061767578125 C 49.37042999267578 98.531494140625 50.20481491088867 96.27824401855469 51.11161804199219 93.94937896728516 C 52.01755523681641 91.62273406982422 52.99563980102539 89.22096252441406 54.04450225830078 86.74700927734375 C 55.09220504760742 84.27581024169922 56.21037673950195 81.73295593261719 57.39763641357422 79.12139892578125 C 58.58339309692383 76.51313781738281 59.8379020690918 73.83675384521484 61.15973663330078 71.09519195556641 C 60.50082015991211 71.95912933349609 59.84479522705078 72.83934020996094 59.19198226928711 73.73546600341797 C 58.53871536254883 74.63220977783203 57.88866424560547 75.54485321044922 57.24214172363281 76.47305297851562 C 56.59517669677734 77.40188598632812 55.95173645019531 78.34626007080078 55.31215286254883 79.30580139160156 C 54.67212295532227 80.26598358154297 54.03596115112305 81.24135589599609 53.40395355224609 82.23149871826172 C 51.13825988769531 85.83769226074219 48.92049789428711 89.49042510986328 46.75461196899414 93.18295288085938 C 44.58375549316406 96.88395690917969 42.46526718139648 100.6245269775391 40.40313339233398 104.3978042602539 C 38.33651351928711 108.1792984008789 36.32675552368164 111.9931869506836 34.37786865234375 115.83251953125 C 32.42498397827148 119.6797256469727 30.53348731994629 123.5519790649414 28.70741844177246 127.4422225952148 C 27.84120559692383 129.3164672851562 26.92385482788086 131.3585510253906 25.95706748962402 133.5644989013672 C 24.98930358886719 135.7726745605469 23.97189712524414 138.145263671875 22.90655326843262 140.6783142089844 C 21.84002113342285 143.2141571044922 20.72533416748047 145.9110870361328 19.56418609619141 148.7651519775391 C 18.4016284942627 151.6226501464844 17.19238471984863 154.637939453125 15.93814563751221 157.8070831298828 C 15.60160446166992 158.6732025146484 15.25953674316406 159.4829711914062 14.9106559753418 160.2387390136719 C 14.56164932250977 160.9947814941406 14.20582008361816 161.6967620849609 13.84187698364258 162.3469696044922 C 13.47779655456543 162.9974060058594 13.10558795928955 163.5960235595703 12.72396087646484 164.1451263427734 C 12.34218215942383 164.6944580078125 11.95096588134766 165.1941833496094 11.54901695251465 165.6466522216797 C 11.11265563964844 166.1378784179688 10.66433525085449 166.5701904296875 10.20488452911377 166.9432067871094 C 9.745212554931641 167.3163757324219 9.274388313293457 167.6302032470703 8.793232917785645 167.8841247558594 C 8.31183910369873 168.13818359375 7.820096492767334 168.3323211669922 7.318829536437988 168.4660339355469 C 6.817304134368896 168.599853515625 6.306235313415527 168.6731719970703 5.786455154418945 168.685546875 Z M 72.86754608154297 45.08716583251953 C 72.25817108154297 45.71669387817383 71.51930236816406 46.5411376953125 70.65254211425781 47.55844879150391 C 69.78498840332031 48.57670593261719 68.78908538818359 49.78845977783203 67.66640472412109 51.19184112548828 C 66.54237365722656 52.5969123840332 65.29093170166016 54.19443893432617 63.91355514526367 55.982666015625 C 62.53415679931641 57.77354431152344 61.02806854248047 59.75614929199219 59.39667129516602 61.92890167236328 C 55.47643280029297 67.16314697265625 51.66021728515625 72.53376007080078 47.9554443359375 78.03054046630859 C 44.23609161376953 83.54894256591797 40.6300048828125 89.193115234375 37.14468002319336 94.95250701904297 C 33.64652633666992 100.7331085205078 30.27097511291504 106.6282272338867 27.02557945251465 112.6269989013672 C 23.76912689208984 118.6462020874023 20.64465141296387 124.7680511474609 17.65974235534668 130.9813385009766 C 17.07758712768555 132.1953277587891 16.42738342285156 133.6128387451172 15.71048641204834 135.230712890625 C 14.99305057525635 136.8497924804688 14.20872116088867 138.6697387695312 13.35882759094238 140.6874389648438 C 12.50818347930908 142.7069244384766 11.59174537658691 144.9248046875 10.61082363128662 147.3380126953125 C 9.628901481628418 149.7536773681641 8.58223819732666 152.3654174804688 7.472120761871338 155.1701965332031 L 7.469042301177979 155.1779632568359 L 7.46587610244751 155.1856842041016 C 6.764016628265381 156.9070739746094 6.223637104034424 158.2989807128906 5.807913303375244 159.423583984375 C 5.392009735107422 160.5486602783203 5.10097599029541 161.4058990478516 4.897792339324951 162.0579071044922 C 4.69456672668457 162.7100677490234 4.579265594482422 163.1567840576172 4.514772415161133 163.4608612060547 C 4.450276374816895 163.7649841308594 4.436600685119629 163.9264221191406 4.436600685119629 164.0081024169922 C 4.436600685119629 164.1091918945312 4.442626476287842 164.2032928466797 4.455042839050293 164.2915802001953 C 4.467458724975586 164.3798522949219 4.486265182495117 164.4622955322266 4.51182746887207 164.5399932861328 C 4.537388324737549 164.61767578125 4.569703102111816 164.6906127929688 4.609136581420898 164.7599639892578 C 4.648568153381348 164.8292694091797 4.695118427276611 164.8949737548828 4.749149799346924 164.9581451416016 L 4.783627986907959 164.9984741210938 L 4.815285205841064 165.0413665771484 C 4.906328678131104 165.1646881103516 4.995313167572021 165.2609558105469 5.081887722015381 165.3358764648438 C 5.168453693389893 165.4107666015625 5.25261116027832 165.4643402099609 5.334009647369385 165.5022888183594 C 5.415400981903076 165.5402526855469 5.494035720825195 165.5626220703125 5.569561958312988 165.5751190185547 C 5.645082473754883 165.5876007080078 5.717496871948242 165.5902252197266 5.786455154418945 165.5886840820312 C 6.10448694229126 165.5816345214844 6.418007850646973 165.5345764160156 6.728094100952148 165.4469604492188 C 7.03808069229126 165.3593597412109 7.3446364402771 165.2312316894531 7.648836135864258 165.0619964599609 C 7.952939033508301 164.8927764892578 8.25468921661377 164.6824798583984 8.555159568786621 164.4305267333984 C 8.855535507202148 164.1786193847656 9.154630661010742 163.8851013183594 9.453517913818359 163.5493469238281 C 9.787903785705566 163.1737060546875 10.11888885498047 162.7470855712891 10.44591808319092 162.2705535888672 C 10.77283668518066 161.7941589355469 11.09580516815186 161.2678680419922 11.41427040100098 160.6926879882812 C 11.73263263702393 160.1177062988281 12.04649639129639 159.4938659667969 12.35531234741211 158.8221740722656 C 12.66403007507324 158.1507110595703 12.96770572662354 157.4314270019531 13.26578807830811 156.6653594970703 L 13.26765441894531 156.6605987548828 L 13.26955223083496 156.6558074951172 C 14.53324317932129 153.4679107666016 15.75190925598145 150.4341430664062 16.92383193969727 147.5584564208984 C 18.09432601928711 144.6862945556641 19.21830177307129 141.9715576171875 20.29404067993164 139.4182586669922 C 21.36857604980469 136.8678283691406 22.39509010314941 134.4782104492188 23.37185859680176 132.2534332275391 C 24.34763336181641 130.0309143066406 25.27386474609375 127.97265625 26.14882850646973 126.0827255249023 L 26.15078735351562 126.0784683227539 L 26.15278244018555 126.0742492675781 C 27.99744415283203 122.1507873535156 29.90810585021973 118.2457427978516 31.88070106506348 114.3662185668945 C 33.84922027587891 110.4946823120117 35.87914657592773 106.6490478515625 37.9664421081543 102.8362884521484 C 40.04916000366211 99.03189086914062 42.18872451782227 95.26069641113281 44.38111877441406 91.52957916259766 C 46.56845474243164 87.80707550048828 48.80811309814453 84.12488555908203 51.09612655639648 80.48979187011719 L 51.09893417358398 80.48533630371094 L 51.10177230834961 80.48091888427734 C 52.36550140380859 78.50447082519531 53.64595413208008 76.58544158935547 54.94075012207031 74.72679901123047 C 56.23376846313477 72.87071228027344 57.54103469848633 71.07489776611328 58.86020660400391 69.34233856201172 C 60.17752075195312 67.61220550537109 61.50665664672852 65.94517517089844 62.84526443481445 64.34415435791016 C 64.18198394775391 62.74542999267578 65.52810668945312 61.21256256103516 66.88130950927734 59.74844360351562 L 69.05698394775391 61.59513092041016 C 67.09989166259766 65.40660858154297 65.25644683837891 69.11102294921875 63.52991104125977 72.70149230957031 C 61.80020141601562 76.29859924316406 60.18827819824219 79.78043365478516 58.69737243652344 83.14015960693359 C 57.20409393310547 86.50520324707031 55.83260726928711 89.74689483642578 54.58607482910156 92.85836791992188 C 53.3378791809082 95.97396850585938 52.21530532836914 98.95819091796875 51.22142791748047 101.8042678833008 C 50.23549270629883 104.6275787353516 49.37022399902344 107.3313674926758 48.62680816650391 109.9109115600586 C 47.88280868530273 112.4924774169922 47.26105880737305 114.9489135742188 46.76266479492188 117.2755508422852 C 46.26400756835938 119.6034164428711 45.88896560668945 121.8007354736328 45.63857269287109 123.8629302978516 C 45.38810348510742 125.9256744384766 45.26241302490234 127.8526916503906 45.26241302490234 129.6394500732422 C 45.26241302490234 130.0004730224609 45.27943420410156 130.3506774902344 45.31335830688477 130.6895141601562 C 45.3472785949707 131.0283355712891 45.39809799194336 131.3557586669922 45.4656982421875 131.6712646484375 C 45.53329467773438 131.9867401123047 45.61766815185547 132.2902374267578 45.71868133544922 132.5812377929688 C 45.8196907043457 132.8721923828125 45.93734741210938 133.1506500244141 46.07151794433594 133.4160003662109 C 46.25424575805664 133.7774200439453 46.45762634277344 134.0902252197266 46.68408203125 134.35595703125 C 46.91047668457031 134.6216278076172 47.15993499755859 134.8402862548828 47.43486404418945 135.013427734375 C 47.70971298217773 135.1865234375 48.010009765625 135.3141174316406 48.33815002441406 135.3977813720703 C 48.66617965698242 135.4814300537109 49.02202606201172 135.5211486816406 49.40808868408203 135.5185394287109 C 49.83343887329102 135.5156555175781 50.26969528198242 135.4520416259766 50.71602630615234 135.3282012939453 C 51.16215133666992 135.2044219970703 51.61833572387695 135.0204315185547 52.0837516784668 134.7767639160156 C 52.54893493652344 134.5331726074219 53.02333831787109 134.2299652099609 53.50611877441406 133.8675537109375 C 53.98865127563477 133.5053558349609 54.47956466674805 133.0840301513672 54.97801971435547 132.6040954589844 C 55.5287971496582 132.0721130371094 56.12133026123047 131.4116973876953 56.75426483154297 130.6248626708984 C 57.38678359985352 129.8385467529297 58.05958938598633 128.9260559082031 58.77133178710938 127.8893890380859 C 59.48254013061523 126.8535232543945 60.23256301879883 125.6937637329102 61.02005386352539 124.4121932983398 C 61.80688095092773 123.1316757202148 62.63104248046875 121.7296447753906 63.49117660522461 120.2081680297852 C 65.48809814453125 116.6348037719727 67.46565246582031 113.1610336303711 69.42059326171875 109.7920532226562 C 71.37143707275391 106.4301071166992 73.29985046386719 103.1723403930664 75.20261383056641 100.0238876342773 C 77.10150146484375 96.8818359375 78.97492980957031 93.84848022460938 80.81974029541016 90.92888641357422 C 82.66089630126953 88.01507568359375 84.47362518310547 85.21437835693359 86.25483703613281 82.53185272216797 C 88.03589630126953 79.84953308105469 89.79824829101562 77.26600646972656 91.53901672363281 74.78491973876953 C 93.27650451660156 72.30850219726562 94.99256896972656 69.93403625488281 96.68437957763672 67.66514587402344 C 98.37306213378906 65.40039825439453 100.0376739501953 63.24073028564453 101.6753463745117 61.18969345092773 C 103.3101119995117 59.14230728149414 104.9181289672852 57.20306777954102 106.4966506958008 55.37554550170898 L 108.5945816040039 57.17962646484375 C 105.6069030761719 62.94381713867188 102.7893676757812 68.50675964355469 100.1476135253906 73.85738372802734 C 97.49822235107422 79.22341156005859 95.02665710449219 84.37377166748047 92.73835754394531 89.29742431640625 C 90.44436645507812 94.23329925537109 88.33549499511719 98.9393310546875 86.41706085205078 103.4045715332031 C 84.49464416503906 107.8790893554688 82.76426696777344 112.1099624633789 81.23105621337891 116.0864486694336 C 79.70804595947266 120.0364685058594 78.37067413330078 123.7570343017578 77.22109985351562 127.2412719726562 C 76.07010650634766 130.7298126220703 75.10781860351562 133.9800262451172 74.33620452880859 136.9852905273438 C 73.56394195556641 139.9930267333984 72.98297119140625 142.7541809082031 72.59500885009766 145.2623901367188 C 72.20688629150391 147.7716217041016 72.01210021972656 150.0267028808594 72.01210021972656 152.0214996337891 C 72.01210021972656 152.6032409667969 72.03305816650391 153.1512603759766 72.07485961914062 153.6648101806641 C 72.11663818359375 154.1783294677734 72.17926025390625 154.6573333740234 72.26252746582031 155.1010437011719 C 72.34580230712891 155.5447235107422 72.44973754882812 155.9530944824219 72.57417297363281 156.3253479003906 C 72.69859313964844 156.6975708007812 72.84352111816406 157.03369140625 73.00878143310547 157.3329010009766 L 73.02317047119141 157.3589630126953 L 73.03656005859375 157.3856811523438 C 73.26985168457031 157.8507080078125 73.50188446044922 158.2118988037109 73.72819519042969 158.4919128417969 C 73.95445251464844 158.7718353271484 74.17497253417969 158.9706420898438 74.38524627685547 159.1109313964844 C 74.59548187255859 159.251220703125 74.79549407958984 159.3330383300781 74.98076629638672 159.3790435791016 C 75.16599273681641 159.4250335693359 75.33650970458984 159.4352416992188 75.48779296875 159.4322357177734 C 75.69966125488281 159.4280700683594 75.90667724609375 159.3941802978516 76.10951995849609 159.3301544189453 C 76.31232452392578 159.2661437988281 76.51096343994141 159.1719970703125 76.70613098144531 159.0472869873047 C 76.90126800537109 158.922607421875 77.09291839599609 158.7673950195312 77.28178405761719 158.5811767578125 C 77.47061920166016 158.3950042724609 77.65667724609375 158.1778869628906 77.84064483642578 157.9293518066406 L 77.85411071777344 157.9111785888672 L 77.86808013916016 157.8934631347656 C 78.10337066650391 157.5947723388672 78.30838012695312 157.2945556640625 78.48355102539062 156.9916687011719 C 78.65869140625 156.6888427734375 78.80400085449219 156.3833160400391 78.91990661621094 156.0740356445312 C 79.03579711914062 155.7647857666016 79.12229919433594 155.4517517089844 79.17981719970703 155.1338043212891 C 79.23733520507812 154.8158721923828 79.26590728759766 154.4930419921875 79.26590728759766 154.1641845703125 C 79.26590728759766 154.1257476806641 79.26358032226562 154.0546569824219 79.25472259521484 153.9236145019531 C 79.24587249755859 153.7926025390625 79.23048400878906 153.6015777587891 79.204345703125 153.3231964111328 C 79.17822265625 153.0448303222656 79.14134979248047 152.6790924072266 79.08951568603516 152.1986236572266 C 79.03766632080078 151.7181091308594 78.97087097167969 151.1228637695312 78.8848876953125 150.3854217529297 C 78.85653686523438 150.1815795898438 78.83169555664062 149.9787139892578 78.81035614013672 149.7772216796875 C 78.78901672363281 149.5757141113281 78.77120208740234 149.3755493164062 78.75692749023438 149.1770629882812 C 78.74266052246094 148.9785919189453 78.73192596435547 148.7818145751953 78.72476959228516 148.5870819091797 C 78.71760559082031 148.392333984375 78.71401977539062 148.1996459960938 78.71401977539062 148.0093078613281 C 78.71401214599609 147.183349609375 78.77162933349609 146.2543029785156 78.88771057128906 145.2178955078125 C 79.00374603271484 144.1815643310547 79.17821502685547 143.0380249023438 79.41185760498047 141.7829437255859 C 79.64546966552734 140.5282135009766 79.93820953369141 139.1621398925781 80.29086303710938 137.6805572509766 C 80.64337921142578 136.1995086669922 81.05570983886719 134.6032257080078 81.52861022949219 132.8874969482422 L 81.52977752685547 132.8832397460938 L 81.53096771240234 132.8789978027344 C 82.31783294677734 130.0840606689453 83.22092437744141 127.1339569091797 84.23772430419922 124.0354156494141 C 85.25342559814453 120.9402770996094 86.38233184814453 117.6977920532227 87.62188720703125 114.3147354125977 C 88.85978698730469 110.9362106323242 90.20774078369141 107.4183120727539 91.66307830810547 103.7678451538086 C 93.11613464355469 100.1231155395508 94.67591857910156 96.34711456298828 96.33975219726562 92.44668579101562 C 96.94620513916016 91.02251434326172 97.69259643554688 89.35460662841797 98.57656860351562 87.44780731201172 C 99.45967864990234 85.54283142089844 100.4798355102539 83.40000152587891 101.6345291137695 81.02436065673828 C 102.7877807617188 78.65169525146484 104.0749130249023 76.04749298095703 105.4933319091797 73.21695709228516 C 106.9095764160156 70.39080810546875 108.456298828125 67.33983612060547 110.1308364868164 64.06941223144531 L 110.1320877075195 64.06696319580078 L 110.1333312988281 64.06453704833984 C 111.067008972168 62.25775527954102 111.8974456787109 60.64904022216797 112.6240463256836 59.23963928222656 C 113.3500595092773 57.83135223388672 113.9725570678711 56.62173843383789 114.4908447265625 55.61215972900391 C 115.0088272094727 54.60315322875977 115.4228363037109 53.7937126159668 115.7320938110352 53.18532562255859 C 116.0412521362305 52.57714462280273 116.2458114624023 52.16975021362305 116.3449401855469 51.96475982666016 L 116.3516006469727 51.95100784301758 L 116.3585357666016 51.93740081787109 C 116.9652862548828 50.74710083007812 117.4518814086914 49.70722579956055 117.8405151367188 48.79907989501953 C 118.2289886474609 47.89131927490234 118.519645690918 47.11499404907227 118.7345581054688 46.45158004760742 C 118.9494094848633 45.78832244873047 119.0885772705078 45.23783111572266 119.1740188598633 44.78169250488281 C 119.2594680786133 44.32559967041016 119.2912063598633 43.96380233764648 119.2912063598633 43.67797088623047 C 119.2912063598633 43.4525146484375 119.2753524780273 43.23975372314453 119.2430801391602 43.03808975219727 C 119.2108001708984 42.83641815185547 119.1620788574219 42.64581680297852 119.0963287353516 42.46468353271484 C 119.0305862426758 42.28353881835938 118.9478073120117 42.11186981201172 118.8474426269531 41.94804763793945 C 118.7470397949219 41.78420257568359 118.6290130615234 41.62820053100586 118.4927978515625 41.47845840454102 L 118.4647827148438 41.44765090942383 L 118.438346862793 41.41510009765625 C 118.2741394042969 41.21277618408203 118.1006927490234 41.03505706787109 117.9172821044922 40.8815803527832 C 117.7338409423828 40.72806167602539 117.5404434204102 40.59879302978516 117.3363571166992 40.49340057373047 C 117.1322250366211 40.38798141479492 116.9173889160156 40.30644607543945 116.6911315917969 40.24844741821289 C 116.4648284912109 40.1904296875 116.2270812988281 40.15593719482422 115.9771728515625 40.14462280273438 C 115.7441329956055 40.13405990600586 115.5034103393555 40.14885711669922 115.2554626464844 40.18886184692383 C 115.0074615478516 40.22887420654297 114.7522201538086 40.29411315917969 114.4902191162109 40.3844108581543 C 114.2281494140625 40.47474670410156 113.9592895507812 40.59017181396484 113.6840896606445 40.73052597045898 C 113.408805847168 40.87092590332031 113.127197265625 41.03628540039062 112.8396911621094 41.22647476196289 C 112.5248413085938 41.43474578857422 112.2024841308594 41.67310333251953 111.8732223510742 41.94100952148438 C 111.5438537597656 42.20901489257812 111.2075576782227 42.506591796875 110.8649215698242 42.83318328857422 C 110.5221710205078 43.15988922119141 110.1730804443359 43.51564788818359 109.8182373046875 43.89989471435547 C 109.463264465332 44.2842903137207 109.1025390625 44.69719696044922 108.7366485595703 45.13806915283203 C 107.4497909545898 46.67875289916992 106.118034362793 48.32230758666992 104.7436752319336 50.06574249267578 C 103.3672714233398 51.81180953979492 101.9480133056641 53.65822219848633 100.4882354736328 55.60197830200195 C 99.02613067626953 57.54883193969727 97.52324676513672 59.59351348876953 95.98193359375 61.73303604125977 C 94.43800354003906 63.87613296508789 92.85538482666016 66.11454772949219 91.23641204833984 68.44528961181641 C 88.43626403808594 72.48204803466797 85.81183624267578 76.30466461181641 83.36826324462891 79.90557098388672 C 80.91824340820312 83.51599884033203 78.65102386474609 86.90210723876953 76.57162475585938 90.05651092529297 C 74.48757171630859 93.21798706054688 72.59303283691406 96.14540863037109 70.89285278320312 98.83159637451172 C 69.18956756591797 101.5226974487305 67.68206787109375 103.9705429077148 66.37499237060547 106.1681747436523 C 64.83437347412109 108.7544937133789 63.42742156982422 111.1120147705078 62.15649032592773 113.2368469238281 C 60.88383102416992 115.3645553588867 59.74791717529297 117.25830078125 58.75099182128906 118.9143753051758 C 57.75301361083984 120.5722198486328 56.89461517333984 121.9913711547852 56.17791366577148 123.1683120727539 C 55.46067047119141 124.3461532592773 54.88555908203125 125.2810363769531 54.45458984375 125.9696655273438 L 51.93224716186523 124.8796844482422 C 52.27273941040039 122.6177444458008 52.7206916809082 120.2249908447266 53.27458190917969 117.7067031860352 C 53.82815170288086 115.1899032592773 54.4874267578125 112.5482940673828 55.2508544921875 109.7873001098633 C 56.01366806030273 107.028564453125 56.88028717041016 104.1512145996094 57.84909820556641 101.1607284545898 C 58.81692123413086 98.17333221435547 59.88651275634766 95.07369232177734 61.05619812011719 91.86727905273438 L 61.06023025512695 91.85624694824219 L 61.06441116333008 91.84529113769531 C 62.41684341430664 88.30442810058594 63.80442047119141 84.84539794921875 65.22437286376953 81.47380065917969 C 66.64218139648438 78.10732269287109 68.09217834472656 74.8282470703125 69.57160186767578 71.64211273193359 C 71.0487060546875 68.46102142333984 72.55506134033203 65.37279510498047 74.08795166015625 62.38292694091797 C 75.61831665039062 59.39795684814453 77.17505645751953 56.51117706298828 78.75543975830078 53.72799301147461 C 79.43227386474609 52.52894973754883 79.96483612060547 51.49990844726562 80.38298797607422 50.61807250976562 C 80.80094909667969 49.73662185668945 81.10472106933594 49.00200653076172 81.32398986816406 48.39162826538086 C 81.543212890625 47.78139495849609 81.67801666259766 47.29523468017578 81.75801849365234 46.91067504882812 C 81.83799743652344 46.52614212036133 81.86321258544922 46.24315643310547 81.86321258544922 46.03932952880859 C 81.86321258544922 45.75603103637695 81.83523559570312 45.47980117797852 81.77888488769531 45.20970916748047 C 81.72252655029297 44.93960189819336 81.63777923583984 44.67562484741211 81.52424621582031 44.41685104370117 C 81.41071319580078 44.15804672241211 81.26836395263672 43.90443420410156 81.0968017578125 43.65508270263672 C 80.92519378662109 43.40568542480469 80.724365234375 43.16055297851562 80.49385833740234 42.91873550415039 L 80.48466491699219 42.90910339355469 L 80.47564697265625 42.89929580688477 C 80.28977966308594 42.6972770690918 80.1065673828125 42.52025604248047 79.92540740966797 42.36790466308594 C 79.74419403076172 42.21551132202148 79.56502532958984 42.0877799987793 79.38726043701172 41.98435974121094 C 79.20947265625 41.88090896606445 79.03310394287109 41.80178070068359 78.85751342773438 41.74660873413086 C 78.68189239501953 41.69142532348633 78.50706481933594 41.66020965576172 78.33238983154297 41.6525993347168 C 78.10662841796875 41.64275360107422 77.83233642578125 41.6705207824707 77.50301361083984 41.76307678222656 C 77.17355346679688 41.85566329956055 76.78897857666016 42.01308822631836 76.34270477294922 42.26260757446289 C 75.89621734619141 42.51224517822266 75.38790893554688 42.85409164428711 74.81119537353516 43.31547927856445 C 74.23412322998047 43.77714538574219 73.58846282958984 44.35856246948242 72.86754608154297 45.08716583251953 Z" stroke="none" fill="#fff"/>
      </g>
    </g>
  </g>
</svg>
