<svg xmlns="http://www.w3.org/2000/svg" xmlns:xlink="http://www.w3.org/1999/xlink" width="1024" height="1024" viewBox="0 0 1024 1024">
  <defs>
    <linearGradient id="linear-gradient" x1="0.025" y1="0.032" x2="0.7" y2="0.715" gradientUnits="objectBoundingBox">
      <stop offset="0" stop-color="#002248"/>
      <stop offset="1" stop-color="#001224" stop-opacity="0.722"/>
    </linearGradient>
    <clipPath id="clip-path">
      <path id="Path_1" data-name="Path 1" d="M649.5,853.584V457.029H979.266V12.316H437.212V853.584Z" transform="translate(-437.212 -12.316)" fill="rgba(255,255,255,0.36)"/>
    </clipPath>
    <clipPath id="clip-path-2">
      <path id="Path_2" data-name="Path 2" d="M1121.93,450.925,1255.345,551.86,1147.171,710.868,974.093,416.358,980.1,88.664l310.1,110.614L1233.71,304.362l-111.78,17.975Z" transform="translate(-974.093 -88.664)" fill="rgba(255,255,255,0.31)"/>
    </clipPath>
    <clipPath id="clip-PFTMS_-_Square">
      <rect width="1024" height="1024"/>
    </clipPath>
  </defs>
  <g id="PFTMS_-_Square" data-name="PFTMS - Square" clip-path="url(#clip-PFTMS_-_Square)">
    <rect width="1024" height="1024" fill="rgba(255,255,255,0)"/>
    <g id="Group_1" data-name="Group 1">
      <g id="Rectangle_3" data-name="Rectangle 3" stroke="#fff" stroke-width="30" fill="url(#linear-gradient)">
        <rect width="1024" height="1024" rx="100" stroke="none"/>
        <rect x="15" y="15" width="994" height="994" rx="85" fill="none"/>
      </g>
      <g id="Ellipse_2" data-name="Ellipse 2" transform="translate(456.409 430.366)" fill="none" stroke="#fff" stroke-width="100">
        <ellipse cx="255.206" cy="254.717" rx="255.206" ry="254.717" stroke="none"/>
        <ellipse cx="255.206" cy="254.717" rx="205.206" ry="204.717" fill="none"/>
      </g>
      <g id="Mask_Group_1" data-name="Mask Group 1" transform="translate(80.359 95.444)" clip-path="url(#clip-path)">
        <path id="Polygon_1" data-name="Polygon 1" d="M181.655,17.9a7,7,0,0,1,13.142,0L373,503.31a7,7,0,0,1-6.571,9.412H10.027a7,7,0,0,1-6.571-9.412Z" transform="translate(403.428 854.445) rotate(180)" fill="#fff"/>
        <g id="Ellipse_1" data-name="Ellipse 1" transform="translate(12.308 1.492)" fill="none" stroke="#fff" stroke-width="125">
          <circle cx="255.206" cy="255.206" r="255.206" stroke="none"/>
          <circle cx="255.206" cy="255.206" r="192.706" fill="none"/>
        </g>
        <path id="Polygon_2" data-name="Polygon 2" d="M181.655,17.9a7,7,0,0,1,13.142,0L373,503.31a7,7,0,0,1-6.571,9.412H10.027a7,7,0,0,1-6.571-9.412Z" transform="translate(403.428 854.445) rotate(180)" fill="#fff"/>
      </g>
      <g id="Mask_Group_2" data-name="Mask Group 2" transform="translate(604.838 58.632)" clip-path="url(#clip-path-2)">
        <g id="Ellipse_3" data-name="Ellipse 3" transform="translate(11.084 90.316)" fill="none" stroke="#fff" stroke-width="75">
          <ellipse cx="179.61" cy="183.282" rx="179.61" ry="183.282" stroke="none"/>
          <ellipse cx="179.61" cy="183.282" rx="142.11" ry="145.782" fill="none"/>
        </g>
      </g>
      <rect id="Rectangle_5" data-name="Rectangle 5" width="684.044" height="32.267" rx="16.134" transform="translate(57.179 282.384)" fill="#fff"/>
      <rect id="Rectangle_6" data-name="Rectangle 6" width="684.044" height="32.267" rx="16.134" transform="translate(57.179 343.986)" fill="#fff"/>
      <rect id="Rectangle_7" data-name="Rectangle 7" width="397" height="58" rx="22" transform="translate(315 645)" fill="#fff"/>
      <path id="Polygon_3" data-name="Polygon 3" d="M181.576,20.27a7,7,0,0,1,13.3,0L373.44,564.454a7,7,0,0,1-6.651,9.182H9.664a7,7,0,0,1-6.651-9.182Z" transform="translate(483.787 949.889) rotate(180)" fill="rgba(255,255,255,0.41)"/>
      <g id="Rectangle_12" data-name="Rectangle 12" stroke="#fff" stroke-width="30" fill="url(#linear-gradient)">
        <rect width="1024" height="1024" rx="100" stroke="none"/>
        <rect x="15" y="15" width="994" height="994" rx="85" fill="none"/>
      </g>
      <g id="Ellipse_7" data-name="Ellipse 7" transform="translate(456.409 430.366)" fill="none" stroke="#fff" stroke-width="100">
        <ellipse cx="255.206" cy="254.717" rx="255.206" ry="254.717" stroke="none"/>
        <ellipse cx="255.206" cy="254.717" rx="205.206" ry="204.717" fill="none"/>
      </g>
      <g id="Mask_Group_5" data-name="Mask Group 5" transform="translate(80.359 95.444)" clip-path="url(#clip-path)">
        <path id="Polygon_7" data-name="Polygon 7" d="M181.655,17.9a7,7,0,0,1,13.142,0L373,503.31a7,7,0,0,1-6.571,9.412H10.027a7,7,0,0,1-6.571-9.412Z" transform="translate(403.428 854.445) rotate(180)" fill="#fff"/>
        <g id="Ellipse_8" data-name="Ellipse 8" transform="translate(12.308 1.492)" fill="none" stroke="#fff" stroke-width="125">
          <circle cx="255.206" cy="255.206" r="255.206" stroke="none"/>
          <circle cx="255.206" cy="255.206" r="192.706" fill="none"/>
        </g>
        <path id="Polygon_8" data-name="Polygon 8" d="M181.655,17.9a7,7,0,0,1,13.142,0L373,503.31a7,7,0,0,1-6.571,9.412H10.027a7,7,0,0,1-6.571-9.412Z" transform="translate(403.428 854.445) rotate(180)" fill="#fff"/>
      </g>
      <g id="Mask_Group_6" data-name="Mask Group 6" transform="translate(604.838 58.632)" clip-path="url(#clip-path-2)">
        <g id="Ellipse_9" data-name="Ellipse 9" transform="translate(11.084 90.316)" fill="none" stroke="#fff" stroke-width="75">
          <ellipse cx="179.61" cy="183.282" rx="179.61" ry="183.282" stroke="none"/>
          <ellipse cx="179.61" cy="183.282" rx="142.11" ry="145.782" fill="none"/>
        </g>
      </g>
      <rect id="Rectangle_13" data-name="Rectangle 13" width="684.044" height="32.267" rx="16.134" transform="translate(57.179 282.384)" fill="#fff"/>
      <rect id="Rectangle_14" data-name="Rectangle 14" width="684.044" height="32.267" rx="16.134" transform="translate(57.179 343.986)" fill="#fff"/>
      <rect id="Rectangle_15" data-name="Rectangle 15" width="397" height="58" rx="22" transform="translate(315 645)" fill="#fff"/>
      <path id="Polygon_9" data-name="Polygon 9" d="M181.576,20.27a7,7,0,0,1,13.3,0L373.44,564.454a7,7,0,0,1-6.651,9.182H9.664a7,7,0,0,1-6.651-9.182Z" transform="translate(483.787 949.889) rotate(180)" fill="rgba(255,255,255,0.41)"/>
      <g id="M" transform="translate(335.969 765.955)" fill="#fff">
        <path d="M53.306,125.122q1.294-2.065,4.276-7.014t7.642-12.765q1.969-3.307,4.516-7.33t5.668-8.754q3.121-4.732,6.813-10.168t7.95-11.569q9.763-14.042,17.591-23.4,4.65-5.6,8.216-5.433,2.043.094,3.4,1.77,1.206,1.328,1.206,3.279,0,2.885-3.095,8.962-.3.627-1.857,3.657t-4.364,8.473q-5.048,9.867-8.483,16.94T97.54,93.095q-5.008,11.749-8.691,21.811t-6.031,18.408q-2.752,9.993-2.752,14.678,0,1.041.157,2.167.394,3.377.394,3.984,0,2.515-1.733,4.717-1.5,2.027-3.4,2.066-2.218.046-3.647-2.8-1.192-2.157-1.192-6.081,0-1.532.145-3.25t.434-3.62q.289-1.9.723-3.99t1.012-4.358q.578-2.271,1.3-4.725t1.59-5.09q.867-2.636,1.877-5.454T79.9,115.74q1.154-3,2.451-6.177t2.737-6.535q1.44-3.357,3.022-6.891t3.306-7.246q1.724-3.711,3.589-7.6t3.871-7.947q2.006-4.061,4.152-8.294t4.431-8.639q-9.545,11.062-20.237,27.2T64.663,121q-5.3,9.382-8.767,12.735-3.4,3.278-6.487,3.3T44.84,134.15q-.982-1.94-.982-4.5,0-2.752.377-5.9t1.129-6.683q.753-3.537,1.881-7.462t2.632-8.235q1.5-4.31,3.38-9T57.384,82.6q2.249-5.07,4.868-10.514t5.607-11.257Q59.766,69.6,52.252,81.36q-13.81,21.961-24.822,45.4Q22.169,138.133,14.6,157.235q-3.805,9.787-8.817,9.9-1.278.029-2.132-1.125-.683-.8-.683-1.973,0-1.717,3.155-9.449,3.353-8.464,5.913-14.538t4.334-9.768q8.964-18.643,19.458-35.99t22.484-33.34q4.935-6.566,8.333-10.808t5.27-6.173q3.884-3.923,6.413-3.811,1.577.07,3.072,1.7,1.807,1.9,1.807,4.236,0,2.6-3.3,8.453-9.5,16.744-17.571,37.893-3.5,9.607-5.762,17.783T53.306,125.122Z" stroke="none"/>
        <path d="M 5.786456108093262 168.6856079101562 C 5.463794708251953 168.6932983398438 5.151373386383057 168.6632232666016 4.851058483123779 168.5964050292969 C 4.550650119781494 168.5295562744141 4.262362480163574 168.4259033203125 3.988061428070068 168.2863616943359 C 3.713682413101196 168.1468200683594 3.453304767608643 167.9714050292969 3.208799123764038 167.7610321044922 C 2.96423077583313 167.5505981445312 2.735548973083496 167.3052520751953 2.524624824523926 167.0259246826172 C 2.355488300323486 166.8236999511719 2.207178354263306 166.6098937988281 2.079851388931274 166.3849792480469 C 1.952508807182312 166.1600036621094 1.846158027648926 165.9238891601562 1.760954141616821 165.6770782470703 C 1.67574155330658 165.4301910400391 1.611682653427124 165.1726531982422 1.568925857543945 164.90478515625 C 1.526167273521423 164.6369323730469 1.504713773727417 164.3587951660156 1.504713773727417 164.0707855224609 C 1.504713773727417 163.8333129882812 1.528046250343323 163.5298919677734 1.608512401580811 163.0970153808594 C 1.688973665237427 162.6641540527344 1.826546788215637 162.1018981933594 2.05499792098999 161.3467559814453 C 2.283396482467651 160.591796875 2.602583885192871 159.6441955566406 3.046224355697632 158.4407501220703 C 3.489661931991577 157.2378540039062 4.057324409484863 155.7796325683594 4.782684326171875 154.0032958984375 C 5.902551651000977 151.1785430908203 6.95896577835083 148.5470886230469 7.950629234313965 146.1119079589844 C 8.94127368927002 143.6792297363281 9.867431640625 141.4421081542969 10.72778701782227 139.4036254882812 C 11.58737468719482 137.366943359375 12.38139152526855 135.5282440185547 13.10850238800049 133.8906402587891 C 13.83506679534912 132.2543029785156 14.4949254989624 130.8185119628906 15.08672428131104 129.5864868164062 C 16.59536552429199 126.4514617919922 18.1419563293457 123.3340148925781 19.72343635559082 120.2396469116211 C 21.30231285095215 117.1503677368164 22.91584014892578 114.0843276977539 24.56097412109375 111.0469055175781 C 26.20328330993652 108.0147018432617 27.87697410583496 105.0112457275391 29.57902717590332 102.0418701171875 C 31.27805137634277 99.07780456542969 33.00522994995117 96.14787292480469 34.75756072998047 93.25738525390625 C 36.50666427612305 90.37223815917969 38.29299926757812 87.50628662109375 40.11307144165039 84.66458892822266 C 41.92964553833008 81.82830047607422 43.77968978881836 79.01637268066406 45.65968704223633 76.23373413085938 C 47.53596496582031 73.45662689208984 49.44197463989258 70.70888519287109 51.37423324584961 67.99539184570312 C 53.30254745483398 65.28744506835938 55.25691986083984 62.61379623413086 57.23391342163086 59.97923278808594 C 58.91129684448242 57.74951934814453 60.4492301940918 55.72859191894531 61.85240936279297 53.91043853759766 C 63.25350952148438 52.09500122070312 64.52064514160156 50.48122024536133 65.65840148925781 49.06336975097656 C 66.79478454589844 47.64723205566406 67.80239868164062 46.42613220214844 68.68567657470703 45.39451217651367 C 69.56810760498047 44.36387252807617 70.32667541503906 43.52207946777344 70.96566009521484 42.86375427246094 L 70.97057342529297 42.85869979858398 L 70.97553253173828 42.85368347167969 C 71.69735717773438 42.12548065185547 72.38915252685547 41.49404144287109 73.05311584472656 40.9580078125 C 73.71659851074219 40.4223518371582 74.35234832763672 39.98192596435547 74.96254730224609 39.63539123535156 C 75.57237243652344 39.28908538818359 76.15670013427734 39.03653335571289 76.71775054931641 38.87643432617188 C 77.27846527099609 38.71642303466797 77.81594085693359 38.64871978759766 78.33238220214844 38.67204666137695 C 78.68274688720703 38.6878776550293 79.02947235107422 38.74477767944336 79.37196350097656 38.84243011474609 C 79.71433258056641 38.94004821777344 80.05247497558594 39.07837295532227 80.38584899902344 39.25708770751953 C 80.71910095214844 39.43574142456055 81.04756164550781 39.65474319458008 81.37066650390625 39.91377639770508 C 81.69365692138672 40.17270660400391 82.01130676269531 40.47165298461914 82.32302093505859 40.81025695800781 C 82.69398498535156 41.20127868652344 83.01912689208984 41.60680770874023 83.29813385009766 42.02609634399414 C 83.57706451416016 42.44526290893555 83.8099365234375 42.87821960449219 83.99644470214844 43.32421493530273 C 84.18290710449219 43.77010726928711 84.32306671142578 44.22908782958984 84.41660308837891 44.70040893554688 C 84.51012420654297 45.17167663574219 84.55704498291016 45.65532302856445 84.55704498291016 46.15061187744141 C 84.55704498291016 46.66450119018555 84.48778533935547 47.23259353637695 84.34668731689453 47.8616828918457 C 84.20557403564453 48.49087524414062 83.99259185791016 49.18117523193359 83.70513153076172 49.93940734863281 C 83.41759490966797 50.6978874206543 83.05548095703125 51.52445220947266 82.61616516113281 52.42599105834961 C 82.17664337158203 53.32796096801758 81.65977478027344 54.30512237548828 81.0628662109375 55.36440277099609 C 79.50474548339844 58.11316299438477 77.96984100341797 60.9644889831543 76.46076965332031 63.91310501098633 C 74.94925689697266 66.86650848388672 73.46376037597656 69.91736602783203 72.00691223144531 73.06031799316406 C 70.54778289794922 76.20819091796875 69.11750030517578 79.4482421875 67.71871185302734 82.77507781982422 C 66.31783294677734 86.10688781738281 64.94865417480469 89.5255126953125 63.61384963989258 93.02547454833984 C 62.77536773681641 95.32790374755859 61.98945617675781 97.57318878173828 61.25677108764648 99.75918579101562 C 60.52351379394531 101.9468841552734 59.84364700317383 104.0749588012695 59.21781158447266 106.1412811279297 C 58.591552734375 108.2089920043945 58.01947021484375 110.2146148681641 57.50217056274414 112.1560745239258 C 56.98458862304688 114.0986022949219 56.52191162109375 115.9766464233398 56.11474227905273 117.7881317138672 C 56.62452697753906 116.9435348510742 57.17329025268555 116.0324172973633 57.76071166992188 115.0553359985352 C 58.34775161743164 114.0788345336914 58.97335433959961 113.0365219116211 59.63717269897461 111.928955078125 C 60.30052947998047 110.8221740722656 61.00199127197266 109.6503067016602 61.74121856689453 108.413932800293 C 62.47987365722656 107.1785278320312 63.25617218017578 105.8788223266602 64.06976318359375 104.5153884887695 C 65.38877868652344 102.3015975952148 66.90885162353516 99.83747863769531 68.62532043457031 97.13007354736328 C 70.33865356445312 94.42762756347656 72.24694061279297 91.48392486572266 74.34528350830078 88.30617523193359 C 76.43891906738281 85.13556671142578 78.72093200683594 81.73326873779297 81.18625640869141 78.10672760009766 C 83.64505004882812 74.48979187011719 86.28520965576172 70.65122985839844 89.10154724121094 66.59864044189453 C 90.73615264892578 64.24977111816406 92.33443450927734 61.99349594116211 93.89398956298828 59.83288955688477 C 95.45092010498047 57.67592620849609 96.96939086914062 55.6141357421875 98.44700622558594 53.65058135986328 C 99.92226409912109 51.6901741027832 101.3569183349609 49.82751846313477 102.7486038208008 48.065673828125 C 104.13818359375 46.3065071105957 105.4850463867188 44.64767837524414 106.7868347167969 43.09226226806641 C 107.6366119384766 42.07033157348633 108.4619979858398 41.18417358398438 109.2656936645508 40.43188858032227 C 110.0686874389648 39.68026733398438 110.8500671386719 39.06226348876953 111.6125259399414 38.57600021362305 C 112.3743667602539 38.09016036987305 113.1173400878906 37.7358283996582 113.8441543579102 37.51117706298828 C 114.5703964233398 37.28671646118164 115.2805023193359 37.19171905517578 115.9771575927734 37.22439193725586 C 116.4057312011719 37.24449157714844 116.8179092407227 37.30672836303711 117.2130661010742 37.4107551574707 C 117.6080322265625 37.51472473144531 117.9860382080078 37.66044616699219 118.3464584350586 37.84757995605469 C 118.7067260742188 38.03463745117188 119.0494232177734 38.26306533813477 119.3739700317383 38.53253936767578 C 119.6984024047852 38.80190277099609 120.0047073364258 39.11228561401367 120.2922592163086 39.46335220336914 C 120.5554504394531 39.75702667236328 120.7861404418945 40.06825256347656 120.9841232299805 40.39640808105469 C 121.1820755004883 40.72449493408203 121.3473358154297 41.06953048706055 121.4796981811523 41.43090057373047 C 121.6120376586914 41.7922248840332 121.7115173339844 42.16991424560547 121.7779006958008 42.5633544921875 C 121.8442840576172 42.9567756652832 121.8776016235352 43.36598587036133 121.8776016235352 43.79037857055664 C 121.8776016235352 44.33890914916992 121.8112716674805 44.94726943969727 121.6776809692383 45.61835861206055 C 121.544075012207 46.28954315185547 121.3431396484375 47.0235710144043 121.0738906860352 47.82334899902344 C 120.804557800293 48.62336349487305 120.4668426513672 49.48928070068359 120.0597305297852 50.42407608032227 C 119.6524124145508 51.35927581787109 119.1755599975586 52.36354827880859 118.6281051635742 53.43987274169922 C 118.5212860107422 53.66046905517578 118.3143005371094 54.07350540161133 118.0053024291992 54.68257904052734 C 117.6961975097656 55.29186248779297 117.284912109375 56.09744262695312 116.7695846557617 57.10306549072266 C 116.2539367675781 58.10925674438477 115.6340026855469 59.31594848632812 114.9077529907227 60.72703170776367 C 114.1809234619141 62.13923645019531 113.3474655151367 63.75649261474609 112.4052581787109 65.58282470703125 C 110.7429580688477 68.83477783203125 109.2080917358398 71.86724853515625 107.8032608032227 74.67493438720703 C 106.3962860107422 77.48694610595703 105.1201553344727 80.07266998291016 103.9774322509766 82.42697906494141 C 102.8332824707031 84.78421783447266 101.8232116699219 86.90879821777344 100.9496307373047 88.79569244384766 C 100.0752182006836 90.68437957763672 99.33784484863281 92.33438873291016 98.73985290527344 93.74095153808594 C 97.09358978271484 97.60641479492188 95.55065155029297 101.3471221923828 94.11370849609375 104.9563140869141 C 92.67452239990234 108.5711288452148 91.34198760986328 112.0531539916992 90.11871337890625 115.395637512207 C 88.89381408691406 118.7425537109375 87.77876281738281 121.9487609863281 86.77609252929688 125.0075302124023 C 85.7723388671875 128.0696258544922 84.88146209716797 130.9832153320312 84.10595703125 133.74169921875 C 83.66044616699219 135.3606719970703 83.2696533203125 136.8744812011719 82.93405151367188 138.2808074951172 C 82.59832763671875 139.6876373291016 82.31786346435547 140.9867553710938 82.09312438964844 142.1759033203125 C 81.86832427978516 143.3653106689453 81.69928741455078 144.4445648193359 81.58644866943359 145.4114227294922 C 81.47360992431641 146.3784332275391 81.41698455810547 147.2328491210938 81.4169921875 147.9725799560547 C 81.4169921875 148.1263122558594 81.41996002197266 148.2823638916016 81.4259033203125 148.4404907226562 C 81.43183135986328 148.5986175537109 81.44072723388672 148.7588195800781 81.45255279541016 148.9207763671875 C 81.46436309814453 149.0827331542969 81.47914123535156 149.2464904785156 81.49680328369141 149.4116973876953 C 81.51448822021484 149.5769500732422 81.53507232666016 149.74365234375 81.55854797363281 149.9115905761719 L 81.56112670898438 149.9300537109375 L 81.56328582763672 149.9485778808594 C 81.65281677246094 150.7172241210938 81.72283172607422 151.3417510986328 81.77748870849609 151.8512573242188 C 81.83213806152344 152.3607482910156 81.87145233154297 152.7552642822266 81.89957427978516 153.0639495849609 C 81.92768859863281 153.3726043701172 81.94461059570312 153.5954132080078 81.95449829101562 153.7614593505859 C 81.96438598632812 153.9275054931641 81.96726989746094 154.0368347167969 81.96726989746094 154.1185150146484 C 81.96726989746094 154.6268005371094 81.92414093017578 155.1274871826172 81.83816528320312 155.6197662353516 C 81.75216674804688 156.112060546875 81.62332916259766 156.5960235595703 81.45192718505859 157.07080078125 C 81.28047180175781 157.5456848144531 81.06641387939453 158.0114135742188 80.81002807617188 158.4672546386719 C 80.55358123779297 158.9232025146484 80.25473785400391 159.3692779541016 79.91379547119141 159.8046569824219 C 79.59893035888672 160.2288055419922 79.26982879638672 160.6018676757812 78.92707824707031 160.9234619140625 C 78.58420562744141 161.2451782226562 78.22766876220703 161.515380859375 77.85811614990234 161.7337036132812 C 77.48841857910156 161.9520874023438 77.10566711425781 162.1185455322266 76.71049499511719 162.2326354980469 C 76.31515502929688 162.3468017578125 75.90737152099609 162.4085388183594 75.48777770996094 162.4174957275391 C 75.14405822753906 162.4248046875 74.76422882080078 162.3936004638672 74.36436462402344 162.2963256835938 C 73.96431732177734 162.1990051269531 73.54420471191406 162.0356140136719 73.12014007568359 161.778564453125 C 72.69588470458984 161.5214385986328 72.26765441894531 161.1705627441406 71.85164642333984 160.6984710693359 C 71.43544006347656 160.2261199951172 71.03145599365234 159.6324310302734 70.65589904785156 158.8898620605469 C 70.42486572265625 158.4685974121094 70.22346496582031 158.0130615234375 70.05131530761719 157.5213317871094 C 69.87912750244141 157.0294799804688 69.73621368408203 156.5014495849609 69.6221923828125 155.9352416992188 C 69.50815582275391 155.3689880371094 69.42301177978516 154.7645874023438 69.36638641357422 154.1201171875 C 69.30975341796875 153.4756011962891 69.28163909912109 152.7910308837891 69.28163909912109 152.0644683837891 C 69.28163909912109 151.0060577392578 69.33212280273438 149.8807525634766 69.43275451660156 148.69091796875 C 69.53336334228516 147.5011749267578 69.68408966064453 146.2471160888672 69.88455200195312 144.9310607910156 C 70.08496856689453 143.6152801513672 70.33507537841797 142.2377319335938 70.63448333740234 140.8008117675781 C 70.93381500244141 139.3643798828125 71.28236389160156 137.8687591552734 71.67975616455078 136.3164215087891 C 72.07243347167969 134.7825012207031 72.51580047607422 133.1811370849609 73.00874328613281 131.515625 C 73.50142669677734 129.8509826660156 74.0435791015625 128.1224517822266 74.63409423828125 126.3333435058594 C 75.22422790527344 124.5453720092773 75.86259460449219 122.6970672607422 76.54806518554688 120.7917938232422 C 77.23302459716797 118.8879089355469 77.96495819091797 116.9272994995117 78.74271392822266 114.913330078125 C 80.01470184326172 111.6195678710938 81.42047119140625 108.153923034668 82.95719146728516 104.522346496582 C 84.49136352539062 100.8967742919922 86.15562438964844 97.10684967041016 87.94703674316406 93.15859222412109 C 89.73497772216797 89.21795654296875 91.64908599853516 85.12067413330078 93.68636322021484 80.87287139892578 C 95.71916961669922 76.63441467285156 97.87403869628906 72.24721527099609 100.1479263305664 67.71741485595703 C 97.54878234863281 71.14866638183594 94.88507843017578 74.84560394287109 92.15930938720703 78.80517578125 C 89.42548370361328 82.77650451660156 86.62886810302734 87.01251220703125 83.77195739746094 91.51020812988281 C 80.90622711181641 96.02182006835938 77.97949981689453 100.7973098754883 74.99430847167969 105.8336715698242 C 71.99951171875 110.88623046875 68.94553375244141 116.2019271850586 65.83493804931641 121.7778549194336 L 65.83310699462891 121.781135559082 L 65.83125305175781 121.7844085693359 C 64.92507171630859 123.3901748657227 64.06103515625 124.8619918823242 63.23666381835938 126.2033767700195 C 62.41156387329102 127.5459442138672 61.62625122070312 128.7577209472656 60.87819290161133 129.8423309326172 C 60.12953567504883 130.9277954101562 59.41826248168945 131.8857574462891 58.74180603027344 132.7198791503906 C 58.06485748291016 133.5545654296875 57.42283630371094 134.2651824951172 56.81315994262695 134.8553771972656 C 56.1849250793457 135.4616088867188 55.5582160949707 135.9939575195312 54.93408584594727 136.4518280029297 C 54.30953216552734 136.9099884033203 53.68756866455078 137.2935791015625 53.06924057006836 137.6019744873047 C 52.45051193237305 137.9105834960938 51.83543395996094 138.1439056396484 51.22508239746094 138.3013763427734 C 50.61432647705078 138.4589385986328 50.00830459594727 138.54052734375 49.40808486938477 138.5455627441406 C 48.76658248901367 138.5509490966797 48.16004180908203 138.4760437011719 47.5919075012207 138.3229064941406 C 47.02344131469727 138.1697082519531 46.49346923828125 137.9381561279297 46.00545883178711 137.6304016113281 C 45.51719665527344 137.3224792480469 45.07097625732422 136.9382934570312 44.67025375366211 136.4799499511719 C 44.26936721801758 136.0214233398438 43.9140510559082 135.4887084960938 43.60776901245117 134.8839416503906 C 43.41631698608398 134.5059356689453 43.24842834472656 134.1123504638672 43.10428237915039 133.7039642333984 C 42.96011352539062 133.2955169677734 42.83970260620117 132.8722839355469 42.74323654174805 132.43505859375 C 42.64674758911133 131.9977874755859 42.57421112060547 131.5465393066406 42.52579879760742 131.0820617675781 C 42.47737503051758 130.6175842285156 42.45307540893555 130.1399078369141 42.45307540893555 129.6498260498047 C 42.45307540893555 128.7034301757812 42.4858283996582 127.7203369140625 42.55110168457031 126.7024536132812 C 42.61637115478516 125.6846542358398 42.71415328979492 124.6321716308594 42.84421157836914 123.5469589233398 C 42.97425079345703 122.4618835449219 43.13654327392578 121.3441696166992 43.33085632324219 120.1957855224609 C 43.52511978149414 119.0476150512695 43.75138092041016 117.8688583374023 44.00937271118164 116.6614685058594 C 44.26484298706055 115.4658660888672 44.55332183837891 114.2332458496094 44.87411499023438 112.9660491943359 C 45.19479370117188 111.6992721557617 45.54773712158203 110.3980178833008 45.9322395324707 109.064697265625 C 46.31657409667969 107.7319183349609 46.73241806030273 106.3671798706055 47.17905044555664 104.9729080200195 C 47.62547302246094 103.5792922973633 48.10262680053711 102.1562652587891 48.60979461669922 100.7062454223633 C 49.37042236328125 98.53155517578125 50.20481109619141 96.27831268310547 51.11161041259766 93.94944000244141 C 52.01755142211914 91.622802734375 52.99563217163086 89.22103118896484 54.04449844360352 86.74707794189453 C 55.09219741821289 84.27587127685547 56.21036911010742 81.73302459716797 57.39762878417969 79.1214599609375 C 58.58338928222656 76.51319885253906 59.83789443969727 73.83682250976562 61.15972900390625 71.09525299072266 C 60.50081253051758 71.95919036865234 59.84479141235352 72.83941650390625 59.19197845458984 73.73553466796875 C 58.5387077331543 74.63227081298828 57.8886604309082 75.544921875 57.24213409423828 76.47312164306641 C 56.59516906738281 77.40195465087891 55.95173263549805 78.34632110595703 55.3121452331543 79.30586242675781 C 54.672119140625 80.26605224609375 54.03595352172852 81.24141693115234 53.40394592285156 82.2315673828125 C 51.13825607299805 85.83775329589844 48.92049407958984 89.49049377441406 46.75460815429688 93.18302154541016 C 44.5837516784668 96.88402557373047 42.46526336669922 100.6245956420898 40.40313339233398 104.3978729248047 C 38.33650588989258 108.1793670654297 36.32674789428711 111.9932479858398 34.37786865234375 115.8325881958008 C 32.42498016357422 119.6797943115234 30.53348541259766 123.5520401000977 28.70741653442383 127.4422912597656 C 27.8412036895752 129.3165283203125 26.92385482788086 131.3586273193359 25.95706748962402 133.5645751953125 C 24.98930168151855 135.7727355957031 23.97189712524414 138.1453247070312 22.90655326843262 140.6783752441406 C 21.84002113342285 143.2142333984375 20.72533226013184 145.9111480712891 19.56418609619141 148.7652130126953 C 18.40162658691406 151.6227111816406 17.1923828125 154.6380004882812 15.93814563751221 157.8071441650391 C 15.60160446166992 158.6732635498047 15.25953578948975 159.4830322265625 14.91065502166748 160.2388000488281 C 14.56164932250977 160.9948425292969 14.20582008361816 161.6968231201172 13.84187698364258 162.3470306396484 C 13.47779655456543 162.9974670410156 13.10558795928955 163.5960845947266 12.72396087646484 164.1451873779297 C 12.34218215942383 164.6945190429688 11.95096588134766 165.1942443847656 11.54901695251465 165.6467132568359 C 11.11265659332275 166.137939453125 10.66433620452881 166.5702514648438 10.20488452911377 166.9432678222656 C 9.745212554931641 167.3164520263672 9.274388313293457 167.6302642822266 8.793233871459961 167.8841857910156 C 8.31183910369873 168.1382446289062 7.820096969604492 168.3323822021484 7.318830490112305 168.4660949707031 C 6.817305088043213 168.5999145507812 6.306236267089844 168.6732330322266 5.786456108093262 168.6856079101562 Z M 72.86754608154297 45.08723449707031 C 72.25816345214844 45.71676254272461 71.519287109375 46.54120635986328 70.65253448486328 47.55851745605469 C 69.78498077392578 48.57676696777344 68.78907775878906 49.78852081298828 67.66639709472656 51.19190979003906 C 66.54236602783203 52.59697341918945 65.29092407226562 54.19450759887695 63.91354751586914 55.98273468017578 C 62.53414916992188 57.77360534667969 61.02806091308594 59.75621032714844 59.39666366577148 61.92897033691406 C 55.4764289855957 67.1632080078125 51.66021347045898 72.53382110595703 47.95543670654297 78.03060150146484 C 44.23608779907227 83.54900360107422 40.63000106811523 89.19317626953125 37.14467620849609 94.95257568359375 C 33.64652633666992 100.7331695556641 30.27097320556641 106.6282958984375 27.02557945251465 112.627067565918 C 23.76912307739258 118.6462707519531 20.64464950561523 124.7681121826172 17.65974235534668 130.9813995361328 C 17.07758712768555 132.1953887939453 16.42738342285156 133.6128997802734 15.71048545837402 135.2307891845703 C 14.99304962158203 136.849853515625 14.20872116088867 138.6697998046875 13.35882759094238 140.6875 C 12.50818347930908 142.7069854736328 11.59174537658691 144.9248657226562 10.61082363128662 147.3380737304688 C 9.628902435302734 149.7537384033203 8.58223819732666 152.365478515625 7.472121715545654 155.1702728271484 L 7.469043254852295 155.1780242919922 L 7.465877532958984 155.1857452392578 C 6.764017581939697 156.9071350097656 6.223638534545898 158.2990417480469 5.807914257049561 159.4236450195312 C 5.392010688781738 160.5487213134766 5.100976943969727 161.4059600830078 4.897793292999268 162.0579833984375 C 4.694567680358887 162.7101287841797 4.579266548156738 163.1568450927734 4.514773845672607 163.4609069824219 C 4.450277805328369 163.7650451660156 4.436602592468262 163.9264831542969 4.436602592468262 164.0081634521484 C 4.436602592468262 164.1092376708984 4.442627429962158 164.2033538818359 4.455043792724609 164.2916412353516 C 4.467459678649902 164.3799133300781 4.486266136169434 164.4623413085938 4.511828899383545 164.5400543212891 C 4.537389278411865 164.6177368164062 4.569704055786133 164.690673828125 4.609138011932373 164.7600250244141 C 4.648569107055664 164.8293304443359 4.695119380950928 164.8950347900391 4.74915075302124 164.9582061767578 L 4.783628940582275 164.99853515625 L 4.815286159515381 165.0414276123047 C 4.90632963180542 165.1647491455078 4.995314121246338 165.2610168457031 5.081888675689697 165.3359375 C 5.168454647064209 165.4108276367188 5.252611637115479 165.4644012451172 5.334010124206543 165.5023498535156 C 5.415401935577393 165.5403137207031 5.494036197662354 165.5626831054688 5.569562911987305 165.5751953125 C 5.645083427429199 165.5876617431641 5.717497825622559 165.5902862548828 5.786456108093262 165.5887603759766 C 6.104487895965576 165.5816955566406 6.418008327484131 165.5346374511719 6.728094577789307 165.447021484375 C 7.038081169128418 165.3594207763672 7.344637393951416 165.2312927246094 7.648837089538574 165.0620574951172 C 7.952939510345459 164.8928375244141 8.254690170288086 164.6825408935547 8.555160522460938 164.4305877685547 C 8.855535507202148 164.1786804199219 9.154630661010742 163.8851470947266 9.453517913818359 163.5494079589844 C 9.787903785705566 163.1737670898438 10.11888885498047 162.7471618652344 10.44591808319092 162.2706146240234 C 10.77283668518066 161.7942199707031 11.09580516815186 161.2679290771484 11.41427040100098 160.6927490234375 C 11.73263263702393 160.1177673339844 12.04649639129639 159.4939270019531 12.35531234741211 158.8222351074219 C 12.66403007507324 158.1507720947266 12.96770572662354 157.4314880371094 13.26578807830811 156.6654205322266 L 13.26765441894531 156.6606597900391 L 13.26955223083496 156.6558685302734 C 14.53324222564697 153.4679870605469 15.75190925598145 150.4342041015625 16.92383003234863 147.5585174560547 C 18.09432601928711 144.6863555908203 19.21829986572266 141.9716186523438 20.29404067993164 139.4183197021484 C 21.36857414245605 136.8678894042969 22.39508819580078 134.478271484375 23.37185859680176 132.2534942626953 C 24.34763145446777 130.0309753417969 25.27386093139648 127.9727249145508 26.14882850646973 126.0827941894531 L 26.15078735351562 126.0785293579102 L 26.15278244018555 126.0743103027344 C 27.99744033813477 122.1508483886719 29.90810394287109 118.2458114624023 31.88069915771484 114.3662796020508 C 33.84921646118164 110.494743347168 35.87914276123047 106.6491165161133 37.96643829345703 102.8363494873047 C 40.04915237426758 99.03195953369141 42.18872451782227 95.26075744628906 44.3811149597168 91.52964019775391 C 46.56845092773438 87.80714416503906 48.80810928344727 84.12494659423828 51.09612274169922 80.48985290527344 L 51.09893035888672 80.48541259765625 L 51.10176849365234 80.48098754882812 C 52.36549377441406 78.50453948974609 53.64594650268555 76.58551025390625 54.94074249267578 74.72686767578125 C 56.23376083374023 72.87078094482422 57.54103088378906 71.07496643066406 58.86019897460938 69.3424072265625 C 60.17751312255859 67.61227416992188 61.50664901733398 65.94523620605469 62.84526062011719 64.34421539306641 C 64.18196868896484 62.74549102783203 65.52809143066406 61.21262359619141 66.88129425048828 59.74851226806641 L 69.05697631835938 61.59519958496094 C 67.09987640380859 65.40667724609375 65.25644683837891 69.111083984375 63.52990341186523 72.70156097412109 C 61.80019760131836 76.29866027832031 60.18827056884766 79.78049468994141 58.69736862182617 83.14022064208984 C 57.2040901184082 86.50527191162109 55.83259963989258 89.74695587158203 54.58606719970703 92.85842895507812 C 53.33787536621094 95.97403717041016 52.21530151367188 98.95825958251953 51.2214241027832 101.804328918457 C 50.23548889160156 104.6276397705078 49.37021636962891 107.3314361572266 48.62680435180664 109.9109802246094 C 47.88280487060547 112.4925384521484 47.26105499267578 114.948974609375 46.76266098022461 117.2756195068359 C 46.26399993896484 119.6034774780273 45.88896179199219 121.8007965087891 45.63856887817383 123.8630065917969 C 45.38809967041016 125.9257431030273 45.26240921020508 127.8527603149414 45.26240921020508 129.6395263671875 C 45.26240921020508 130.0005645751953 45.2794303894043 130.3507537841797 45.3133544921875 130.6895751953125 C 45.34727478027344 131.0283966064453 45.39809417724609 131.3558349609375 45.46569442749023 131.6713256835938 C 45.53329086303711 131.9868011474609 45.61765670776367 132.2902984619141 45.71867752075195 132.581298828125 C 45.81968688964844 132.8722534179688 45.93734359741211 133.1507110595703 46.07151412963867 133.4160614013672 C 46.25424194335938 133.7774810791016 46.45762252807617 134.0902862548828 46.68407821655273 134.3560180664062 C 46.91046905517578 134.6217041015625 47.15993118286133 134.8403472900391 47.43485641479492 135.0134887695312 C 47.70970916748047 135.1865844726562 48.01000213623047 135.314208984375 48.3381462097168 135.3978576660156 C 48.66617584228516 135.4814910888672 49.02202224731445 135.5212249755859 49.40808486938477 135.5186004638672 C 49.83343505859375 135.5157318115234 50.26969146728516 135.4521026611328 50.71601867675781 135.3282623291016 C 51.16214752197266 135.2044830322266 51.61832809448242 135.0204925537109 52.08374404907227 134.7768249511719 C 52.54893112182617 134.5332489013672 53.02333068847656 134.2300262451172 53.50611114501953 133.8676147460938 C 53.9886474609375 133.5054168701172 54.47955703735352 133.0841064453125 54.9780158996582 132.6041717529297 C 55.52878952026367 132.0721740722656 56.12132263183594 131.4117584228516 56.7542610168457 130.6249237060547 C 57.38677597045898 129.838623046875 58.0595817565918 128.9261169433594 58.77132797241211 127.8894577026367 C 59.4825325012207 126.8535919189453 60.2325553894043 125.6938323974609 61.02004623413086 124.4122543334961 C 61.8068733215332 123.1317367553711 62.63103485107422 121.7297058105469 63.49116897583008 120.2082366943359 C 65.48809051513672 116.6348648071289 67.46565246582031 113.1611022949219 69.42057800292969 109.7921142578125 C 71.37142944335938 106.43017578125 73.29984283447266 103.1724090576172 75.20260620117188 100.0239562988281 C 77.10149383544922 96.88190460205078 78.97492218017578 93.84854888916016 80.81973266601562 90.928955078125 C 82.660888671875 88.01514434814453 84.47361755371094 85.21444702148438 86.25482177734375 82.53192138671875 C 88.035888671875 79.84960174560547 89.79823303222656 77.26607513427734 91.53900146484375 74.78498840332031 C 93.2764892578125 72.30856323242188 94.99256134033203 69.93410491943359 96.68437194824219 67.66520690917969 C 98.37305450439453 65.40046691894531 100.0376663208008 63.24079895019531 101.6753311157227 61.18976211547852 C 103.3101043701172 59.14237213134766 104.9181137084961 57.2031364440918 106.4966354370117 55.37561416625977 L 108.5945663452148 57.17970275878906 C 105.6068878173828 62.94388198852539 102.7893600463867 68.5068359375 100.1475982666016 73.85745239257812 C 97.49821472167969 79.22348022460938 95.02664947509766 84.37384033203125 92.73834228515625 89.29749298095703 C 90.44435882568359 94.23336029052734 88.33547973632812 98.93939208984375 86.41705322265625 103.4046325683594 C 84.49463653564453 107.8791580200195 82.76425933837891 112.1100387573242 81.23104095458984 116.0865097045898 C 79.70803070068359 120.0365295410156 78.37066650390625 123.7571029663086 77.22109222412109 127.241340637207 C 76.07009887695312 130.7298889160156 75.10781097412109 133.9800872802734 74.33619689941406 136.9853515625 C 73.56393432617188 139.9930877685547 72.98296356201172 142.7542419433594 72.59500885009766 145.262451171875 C 72.20687103271484 147.7716827392578 72.0120849609375 150.0267639160156 72.0120849609375 152.0215759277344 C 72.0120849609375 152.6033020019531 72.03305053710938 153.1513214111328 72.07485198974609 153.6648864746094 C 72.11663055419922 154.1783905029297 72.17924499511719 154.6573944091797 72.26251220703125 155.1011047363281 C 72.34578704833984 155.5447845458984 72.44972229003906 155.9531555175781 72.57416534423828 156.3254089355469 C 72.69859313964844 156.6976318359375 72.84351348876953 157.0337524414062 73.00878143310547 157.3329772949219 L 73.02316284179688 157.3590240478516 L 73.03656005859375 157.3857421875 C 73.26983642578125 157.8507843017578 73.50188446044922 158.2119750976562 73.72819519042969 158.4919738769531 C 73.95444488525391 158.7718963623047 74.17497253417969 158.970703125 74.38524627685547 159.1110076904297 C 74.59548187255859 159.2512817382812 74.79547882080078 159.3330993652344 74.98075866699219 159.3791046142578 C 75.16598510742188 159.4251098632812 75.33649444580078 159.4353179931641 75.48777770996094 159.4323120117188 C 75.69964599609375 159.4281311035156 75.90666961669922 159.3942413330078 76.10951232910156 159.3302307128906 C 76.31231689453125 159.2662048339844 76.51095581054688 159.1720581054688 76.70612335205078 159.04736328125 C 76.90126037597656 158.9226837158203 77.09290313720703 158.7674560546875 77.28177642822266 158.5812530517578 C 77.47061157226562 158.3950653076172 77.65666961669922 158.1779479980469 77.84063720703125 157.9294281005859 L 77.85410308837891 157.9112396240234 L 77.86807250976562 157.8935394287109 C 78.10336303710938 157.5948333740234 78.30837249755859 157.2946166992188 78.48354339599609 156.9917449951172 C 78.65868377685547 156.6889038085938 78.80399322509766 156.3833923339844 78.91989898681641 156.0740966796875 C 79.03578948974609 155.7648620605469 79.12229156494141 155.4518127441406 79.1798095703125 155.1338806152344 C 79.23732757568359 154.8159332275391 79.26589965820312 154.4931182861328 79.26589965820312 154.1642456054688 C 79.26589965820312 154.1258087158203 79.26357269287109 154.0547332763672 79.25471496582031 153.9236907958984 C 79.24586486816406 153.7926635742188 79.23047637939453 153.6016387939453 79.20433807373047 153.3232574462891 C 79.17821502685547 153.0448913574219 79.14134216308594 152.6791687011719 79.08950805664062 152.1986846923828 C 79.03765869140625 151.7181854248047 78.97086334228516 151.1229400634766 78.88488006591797 150.385498046875 C 78.85652923583984 150.1816558837891 78.83168792724609 149.9787902832031 78.81034851074219 149.7772827148438 C 78.78900909423828 149.5757751464844 78.77119445800781 149.3756103515625 78.75691986083984 149.1771240234375 C 78.74265289306641 148.9786529541016 78.73191833496094 148.7818908691406 78.72476196289062 148.587158203125 C 78.71759796142578 148.3924102783203 78.71401214599609 148.19970703125 78.71401214599609 148.0093688964844 C 78.71400451660156 147.1834106445312 78.77162170410156 146.2543792724609 78.8876953125 145.2179565429688 C 79.00373077392578 144.1816253662109 79.17820739746094 143.0381011962891 79.41184997558594 141.7830200195312 C 79.64545440673828 140.5282745361328 79.93820190429688 139.1622161865234 80.29085540771484 137.6806182861328 C 80.64336395263672 136.1995697021484 81.05570220947266 134.6032867431641 81.52860260009766 132.8875732421875 L 81.52976989746094 132.8833160400391 L 81.53096008300781 132.8790740966797 C 82.31782531738281 130.0841369628906 83.22091674804688 127.1340255737305 84.23771667480469 124.0354843139648 C 85.25341796875 120.9403457641602 86.38232421875 117.6978607177734 87.62187957763672 114.3148040771484 C 88.85977172851562 110.9362716674805 90.20772552490234 107.4183807373047 91.66307067871094 103.7679138183594 C 93.11612701416016 100.1231918334961 94.67591857910156 96.34718322753906 96.33974456787109 92.44675445556641 C 96.94619750976562 91.02259063720703 97.69258880615234 89.35467529296875 98.57655334472656 87.4478759765625 C 99.45967102050781 85.54290008544922 100.4798278808594 83.40007781982422 101.634521484375 81.02442169189453 C 102.7877731323242 78.65176391601562 104.0749053955078 76.04756164550781 105.4933166503906 73.21702575683594 C 106.9095687866211 70.39087677001953 108.4562911987305 67.33991241455078 110.1308212280273 64.06948089599609 L 110.1320724487305 64.06703186035156 L 110.1333160400391 64.06460571289062 C 111.0669937133789 62.25782775878906 111.8974304199219 60.64910507202148 112.6240386962891 59.23970413208008 C 113.3500442504883 57.8314208984375 113.972541809082 56.62180709838867 114.4908294677734 55.61222839355469 C 115.0088195800781 54.60322189331055 115.4228210449219 53.79378509521484 115.7320861816406 53.18539810180664 C 116.0412368774414 52.57722091674805 116.2458038330078 52.16981506347656 116.3449249267578 51.96482849121094 L 116.3515853881836 51.95108032226562 L 116.358528137207 51.93746566772461 C 116.9652709960938 50.74716949462891 117.4518661499023 49.70729064941406 117.8404998779297 48.79914474487305 C 118.2289733886719 47.89138412475586 118.5196304321289 47.11506271362305 118.7345428466797 46.45165252685547 C 118.9493942260742 45.78839874267578 119.0885620117188 45.23789978027344 119.1740036010742 44.78175735473633 C 119.2594528198242 44.3256721496582 119.2911911010742 43.9638671875 119.2911911010742 43.67803955078125 C 119.2911911010742 43.45257949829102 119.2753372192383 43.23982238769531 119.2430725097656 43.03816223144531 C 119.2107849121094 42.83648300170898 119.1620635986328 42.64588928222656 119.096321105957 42.46475601196289 C 119.0305709838867 42.28361129760742 118.9477996826172 42.11193466186523 118.8474273681641 41.94811248779297 C 118.7470245361328 41.78427124023438 118.6290054321289 41.62826919555664 118.4927825927734 41.47852325439453 L 118.4647674560547 41.44771575927734 L 118.4383316040039 41.41516876220703 C 118.2741241455078 41.21285247802734 118.1006774902344 41.03513336181641 117.9172668457031 40.88165283203125 C 117.7338256835938 40.72813034057617 117.5404281616211 40.59886169433594 117.3363418579102 40.49346542358398 C 117.132209777832 40.3880500793457 116.9173736572266 40.30652236938477 116.6911239624023 40.24851608276367 C 116.4648132324219 40.19049453735352 116.2270736694336 40.156005859375 115.9771575927734 40.14468765258789 C 115.7441177368164 40.13413619995117 115.5033950805664 40.14892959594727 115.2554550170898 40.18893432617188 C 115.0074462890625 40.22895050048828 114.7522125244141 40.2941780090332 114.4902114868164 40.38447952270508 C 114.2281341552734 40.47481155395508 113.9592742919922 40.59023666381836 113.6840744018555 40.7305908203125 C 113.4087905883789 40.87099838256836 113.1271820068359 41.03636169433594 112.8396759033203 41.22654342651367 C 112.5248260498047 41.43481826782227 112.2024688720703 41.67317199707031 111.8732070922852 41.94107818603516 C 111.5438385009766 42.20909118652344 111.2075424194336 42.50666427612305 110.8649063110352 42.833251953125 C 110.5221557617188 43.15995788574219 110.1730651855469 43.51571273803711 109.818229675293 43.89997100830078 C 109.463249206543 44.28435516357422 109.1025314331055 44.697265625 108.7366409301758 45.13813781738281 C 107.4497833251953 46.6788215637207 106.1180191040039 48.32237243652344 104.7436599731445 50.06581115722656 C 103.3672561645508 51.8118782043457 101.9480056762695 53.65829086303711 100.4882202148438 55.60204696655273 C 99.02611541748047 57.54890060424805 97.52323913574219 59.59358215332031 95.98191833496094 61.73310470581055 C 94.43799591064453 63.87620162963867 92.85537719726562 66.11461639404297 91.23640441894531 68.44535064697266 C 88.43624877929688 72.48211669921875 85.81182861328125 76.30473327636719 83.36825561523438 79.9056396484375 C 80.91823577880859 83.51606750488281 78.65101623535156 86.90216827392578 76.57161712646484 90.05657958984375 C 74.48757171630859 93.21804809570312 72.59303283691406 96.14547729492188 70.89284515380859 98.8316650390625 C 69.18955993652344 101.5227661132812 67.68206024169922 103.9706039428711 66.37497711181641 106.1682357788086 C 64.83437347412109 108.7545547485352 63.42741775512695 111.1120758056641 62.1564826965332 113.2369079589844 C 60.88382339477539 115.364616394043 59.7479133605957 117.2583694458008 58.75098419189453 118.914436340332 C 57.75300979614258 120.5722808837891 56.89460754394531 121.9914398193359 56.17790985107422 123.1683807373047 C 55.46066665649414 124.3462219238281 54.88555526733398 125.2811050415039 54.45458221435547 125.9697341918945 L 51.93224334716797 124.8797454833984 C 52.27273559570312 122.6178131103516 52.72068405151367 120.2250518798828 53.27457809448242 117.7067718505859 C 53.82814788818359 115.1899642944336 54.48742294311523 112.5483627319336 55.25084686279297 109.7873611450195 C 56.01366424560547 107.0286331176758 56.88027954101562 104.1512832641602 57.84909439086914 101.1607971191406 C 58.81691360473633 98.17340087890625 59.88650894165039 95.07376098632812 61.05619049072266 91.86734771728516 L 61.06022262573242 91.85630798339844 L 61.06440734863281 91.84535980224609 C 62.41683959960938 88.30449676513672 63.80441284179688 84.84546661376953 65.224365234375 81.47386932373047 C 66.64218139648438 78.10739135742188 68.0921630859375 74.82830810546875 69.57160186767578 71.64218139648438 C 71.04869842529297 68.46108245849609 72.55504608154297 65.37286376953125 74.08794403076172 62.38298797607422 C 75.61830902099609 59.39802551269531 77.175048828125 56.51123809814453 78.75543212890625 53.72805404663086 C 79.43227386474609 52.52901077270508 79.96482849121094 51.49997711181641 80.38297271728516 50.61814117431641 C 80.80094146728516 49.73669052124023 81.10471343994141 49.0020751953125 81.32398223876953 48.39169692993164 C 81.54319763183594 47.78146362304688 81.67800140380859 47.2952995300293 81.75801086425781 46.91074371337891 C 81.83798980712891 46.52620697021484 81.86320495605469 46.24321746826172 81.86320495605469 46.03939819335938 C 81.86320495605469 45.7560920715332 81.83522796630859 45.4798698425293 81.77886962890625 45.20977783203125 C 81.72251129150391 44.93967056274414 81.63777160644531 44.67569351196289 81.52423858642578 44.41691207885742 C 81.41070556640625 44.15811157226562 81.26834869384766 43.90449905395508 81.09679412841797 43.6551513671875 C 80.92518615722656 43.40575408935547 80.72434997558594 43.16061019897461 80.49385070800781 42.91880416870117 L 80.48465728759766 42.90917205810547 L 80.47563934326172 42.89936447143555 C 80.28977203369141 42.69734573364258 80.10655975341797 42.52032470703125 79.92539978027344 42.36797332763672 C 79.74418640136719 42.21557998657227 79.56501770019531 42.08784866333008 79.38725280761719 41.98441696166992 C 79.20946502685547 41.88097381591797 79.03309631347656 41.80184936523438 78.85750579833984 41.74667739868164 C 78.681884765625 41.69149398803711 78.50705718994141 41.66027069091797 78.33238220214844 41.65266036987305 C 78.10662078857422 41.642822265625 77.83232879638672 41.67058181762695 77.50300598144531 41.76314544677734 C 77.17354583740234 41.8557243347168 76.78897094726562 42.01315689086914 76.34269714355469 42.26267623901367 C 75.89620208740234 42.51231384277344 75.38790893554688 42.85416030883789 74.81119537353516 43.3155403137207 C 74.23411560058594 43.7772102355957 73.58846282958984 44.3586311340332 72.86754608154297 45.08723449707031 Z" stroke="none" fill="#fff"/>
      </g>
      <g id="M-2" data-name="M" transform="translate(335.969 765.955)" fill="#fff">
        <path d="M53.306,125.122q1.294-2.065,4.276-7.014t7.642-12.765q1.969-3.307,4.516-7.33t5.668-8.754q3.121-4.732,6.813-10.168t7.95-11.569q9.763-14.042,17.591-23.4,4.65-5.6,8.216-5.433,2.043.094,3.4,1.77,1.206,1.328,1.206,3.279,0,2.885-3.095,8.962-.3.627-1.857,3.657t-4.364,8.473q-5.048,9.867-8.483,16.94T97.54,93.095q-5.008,11.749-8.691,21.811t-6.031,18.408q-2.752,9.993-2.752,14.678,0,1.041.157,2.167.394,3.377.394,3.984,0,2.515-1.733,4.717-1.5,2.027-3.4,2.066-2.218.046-3.647-2.8-1.192-2.157-1.192-6.081,0-1.532.145-3.25t.434-3.62q.289-1.9.723-3.99t1.012-4.358q.578-2.271,1.3-4.725t1.59-5.09q.867-2.636,1.877-5.454T79.9,115.74q1.154-3,2.451-6.177t2.737-6.535q1.44-3.357,3.022-6.891t3.306-7.246q1.724-3.711,3.589-7.6t3.871-7.947q2.006-4.061,4.152-8.294t4.431-8.639q-9.545,11.062-20.237,27.2T64.663,121q-5.3,9.382-8.767,12.735-3.4,3.278-6.487,3.3T44.84,134.15q-.982-1.94-.982-4.5,0-2.752.377-5.9t1.129-6.683q.753-3.537,1.881-7.462t2.632-8.235q1.5-4.31,3.38-9T57.384,82.6q2.249-5.07,4.868-10.514t5.607-11.257Q59.766,69.6,52.252,81.36q-13.81,21.961-24.822,45.4Q22.169,138.133,14.6,157.235q-3.805,9.787-8.817,9.9-1.278.029-2.132-1.125-.683-.8-.683-1.973,0-1.717,3.155-9.449,3.353-8.464,5.913-14.538t4.334-9.768q8.964-18.643,19.458-35.99t22.484-33.34q4.935-6.566,8.333-10.808t5.27-6.173q3.884-3.923,6.413-3.811,1.577.07,3.072,1.7,1.807,1.9,1.807,4.236,0,2.6-3.3,8.453-9.5,16.744-17.571,37.893-3.5,9.607-5.762,17.783T53.306,125.122Z" stroke="none"/>
        <path d="M 5.786456108093262 168.6856079101562 C 5.463794708251953 168.6932983398438 5.151373386383057 168.6632232666016 4.851058483123779 168.5964050292969 C 4.550650119781494 168.5295562744141 4.262362480163574 168.4259033203125 3.988061428070068 168.2863616943359 C 3.713682413101196 168.1468200683594 3.453304767608643 167.9714050292969 3.208799123764038 167.7610321044922 C 2.96423077583313 167.5505981445312 2.735548973083496 167.3052520751953 2.524624824523926 167.0259246826172 C 2.355488300323486 166.8236999511719 2.207178354263306 166.6098937988281 2.079851388931274 166.3849792480469 C 1.952508807182312 166.1600036621094 1.846158027648926 165.9238891601562 1.760954141616821 165.6770782470703 C 1.67574155330658 165.4301910400391 1.611682653427124 165.1726531982422 1.568925857543945 164.90478515625 C 1.526167273521423 164.6369323730469 1.504713773727417 164.3587951660156 1.504713773727417 164.0707855224609 C 1.504713773727417 163.8333129882812 1.528046250343323 163.5298919677734 1.608512401580811 163.0970153808594 C 1.688973665237427 162.6641540527344 1.826546788215637 162.1018981933594 2.05499792098999 161.3467559814453 C 2.283396482467651 160.591796875 2.602583885192871 159.6441955566406 3.046224355697632 158.4407501220703 C 3.489661931991577 157.2378540039062 4.057324409484863 155.7796325683594 4.782684326171875 154.0032958984375 C 5.902551651000977 151.1785430908203 6.95896577835083 148.5470886230469 7.950629234313965 146.1119079589844 C 8.94127368927002 143.6792297363281 9.867431640625 141.4421081542969 10.72778701782227 139.4036254882812 C 11.58737468719482 137.366943359375 12.38139152526855 135.5282440185547 13.10850238800049 133.8906402587891 C 13.83506679534912 132.2543029785156 14.4949254989624 130.8185119628906 15.08672428131104 129.5864868164062 C 16.59536552429199 126.4514617919922 18.1419563293457 123.3340148925781 19.72343635559082 120.2396469116211 C 21.30231285095215 117.1503677368164 22.91584014892578 114.0843276977539 24.56097412109375 111.0469055175781 C 26.20328330993652 108.0147018432617 27.87697410583496 105.0112457275391 29.57902717590332 102.0418701171875 C 31.27805137634277 99.07780456542969 33.00522994995117 96.14787292480469 34.75756072998047 93.25738525390625 C 36.50666427612305 90.37223815917969 38.29299926757812 87.50628662109375 40.11307144165039 84.66458892822266 C 41.92964553833008 81.82830047607422 43.77968978881836 79.01637268066406 45.65968704223633 76.23373413085938 C 47.53596496582031 73.45662689208984 49.44197463989258 70.70888519287109 51.37423324584961 67.99539184570312 C 53.30254745483398 65.28744506835938 55.25691986083984 62.61379623413086 57.23391342163086 59.97923278808594 C 58.91129684448242 57.74951934814453 60.4492301940918 55.72859191894531 61.85240936279297 53.91043853759766 C 63.25350952148438 52.09500122070312 64.52064514160156 50.48122024536133 65.65840148925781 49.06336975097656 C 66.79478454589844 47.64723205566406 67.80239868164062 46.42613220214844 68.68567657470703 45.39451217651367 C 69.56810760498047 44.36387252807617 70.32667541503906 43.52207946777344 70.96566009521484 42.86375427246094 L 70.97057342529297 42.85869979858398 L 70.97553253173828 42.85368347167969 C 71.69735717773438 42.12548065185547 72.38915252685547 41.49404144287109 73.05311584472656 40.9580078125 C 73.71659851074219 40.4223518371582 74.35234832763672 39.98192596435547 74.96254730224609 39.63539123535156 C 75.57237243652344 39.28908538818359 76.15670013427734 39.03653335571289 76.71775054931641 38.87643432617188 C 77.27846527099609 38.71642303466797 77.81594085693359 38.64871978759766 78.33238220214844 38.67204666137695 C 78.68274688720703 38.6878776550293 79.02947235107422 38.74477767944336 79.37196350097656 38.84243011474609 C 79.71433258056641 38.94004821777344 80.05247497558594 39.07837295532227 80.38584899902344 39.25708770751953 C 80.71910095214844 39.43574142456055 81.04756164550781 39.65474319458008 81.37066650390625 39.91377639770508 C 81.69365692138672 40.17270660400391 82.01130676269531 40.47165298461914 82.32302093505859 40.81025695800781 C 82.69398498535156 41.20127868652344 83.01912689208984 41.60680770874023 83.29813385009766 42.02609634399414 C 83.57706451416016 42.44526290893555 83.8099365234375 42.87821960449219 83.99644470214844 43.32421493530273 C 84.18290710449219 43.77010726928711 84.32306671142578 44.22908782958984 84.41660308837891 44.70040893554688 C 84.51012420654297 45.17167663574219 84.55704498291016 45.65532302856445 84.55704498291016 46.15061187744141 C 84.55704498291016 46.66450119018555 84.48778533935547 47.23259353637695 84.34668731689453 47.8616828918457 C 84.20557403564453 48.49087524414062 83.99259185791016 49.18117523193359 83.70513153076172 49.93940734863281 C 83.41759490966797 50.6978874206543 83.05548095703125 51.52445220947266 82.61616516113281 52.42599105834961 C 82.17664337158203 53.32796096801758 81.65977478027344 54.30512237548828 81.0628662109375 55.36440277099609 C 79.50474548339844 58.11316299438477 77.96984100341797 60.9644889831543 76.46076965332031 63.91310501098633 C 74.94925689697266 66.86650848388672 73.46376037597656 69.91736602783203 72.00691223144531 73.06031799316406 C 70.54778289794922 76.20819091796875 69.11750030517578 79.4482421875 67.71871185302734 82.77507781982422 C 66.31783294677734 86.10688781738281 64.94865417480469 89.5255126953125 63.61384963989258 93.02547454833984 C 62.77536773681641 95.32790374755859 61.98945617675781 97.57318878173828 61.25677108764648 99.75918579101562 C 60.52351379394531 101.9468841552734 59.84364700317383 104.0749588012695 59.21781158447266 106.1412811279297 C 58.591552734375 108.2089920043945 58.01947021484375 110.2146148681641 57.50217056274414 112.1560745239258 C 56.98458862304688 114.0986022949219 56.52191162109375 115.9766464233398 56.11474227905273 117.7881317138672 C 56.62452697753906 116.9435348510742 57.17329025268555 116.0324172973633 57.76071166992188 115.0553359985352 C 58.34775161743164 114.0788345336914 58.97335433959961 113.0365219116211 59.63717269897461 111.928955078125 C 60.30052947998047 110.8221740722656 61.00199127197266 109.6503067016602 61.74121856689453 108.413932800293 C 62.47987365722656 107.1785278320312 63.25617218017578 105.8788223266602 64.06976318359375 104.5153884887695 C 65.38877868652344 102.3015975952148 66.90885162353516 99.83747863769531 68.62532043457031 97.13007354736328 C 70.33865356445312 94.42762756347656 72.24694061279297 91.48392486572266 74.34528350830078 88.30617523193359 C 76.43891906738281 85.13556671142578 78.72093200683594 81.73326873779297 81.18625640869141 78.10672760009766 C 83.64505004882812 74.48979187011719 86.28520965576172 70.65122985839844 89.10154724121094 66.59864044189453 C 90.73615264892578 64.24977111816406 92.33443450927734 61.99349594116211 93.89398956298828 59.83288955688477 C 95.45092010498047 57.67592620849609 96.96939086914062 55.6141357421875 98.44700622558594 53.65058135986328 C 99.92226409912109 51.6901741027832 101.3569183349609 49.82751846313477 102.7486038208008 48.065673828125 C 104.13818359375 46.3065071105957 105.4850463867188 44.64767837524414 106.7868347167969 43.09226226806641 C 107.6366119384766 42.07033157348633 108.4619979858398 41.18417358398438 109.2656936645508 40.43188858032227 C 110.0686874389648 39.68026733398438 110.8500671386719 39.06226348876953 111.6125259399414 38.57600021362305 C 112.3743667602539 38.09016036987305 113.1173400878906 37.7358283996582 113.8441543579102 37.51117706298828 C 114.5703964233398 37.28671646118164 115.2805023193359 37.19171905517578 115.9771575927734 37.22439193725586 C 116.4057312011719 37.24449157714844 116.8179092407227 37.30672836303711 117.2130661010742 37.4107551574707 C 117.6080322265625 37.51472473144531 117.9860382080078 37.66044616699219 118.3464584350586 37.84757995605469 C 118.7067260742188 38.03463745117188 119.0494232177734 38.26306533813477 119.3739700317383 38.53253936767578 C 119.6984024047852 38.80190277099609 120.0047073364258 39.11228561401367 120.2922592163086 39.46335220336914 C 120.5554504394531 39.75702667236328 120.7861404418945 40.06825256347656 120.9841232299805 40.39640808105469 C 121.1820755004883 40.72449493408203 121.3473358154297 41.06953048706055 121.4796981811523 41.43090057373047 C 121.6120376586914 41.7922248840332 121.7115173339844 42.16991424560547 121.7779006958008 42.5633544921875 C 121.8442840576172 42.9567756652832 121.8776016235352 43.36598587036133 121.8776016235352 43.79037857055664 C 121.8776016235352 44.33890914916992 121.8112716674805 44.94726943969727 121.6776809692383 45.61835861206055 C 121.544075012207 46.28954315185547 121.3431396484375 47.0235710144043 121.0738906860352 47.82334899902344 C 120.804557800293 48.62336349487305 120.4668426513672 49.48928070068359 120.0597305297852 50.42407608032227 C 119.6524124145508 51.35927581787109 119.1755599975586 52.36354827880859 118.6281051635742 53.43987274169922 C 118.5212860107422 53.66046905517578 118.3143005371094 54.07350540161133 118.0053024291992 54.68257904052734 C 117.6961975097656 55.29186248779297 117.284912109375 56.09744262695312 116.7695846557617 57.10306549072266 C 116.2539367675781 58.10925674438477 115.6340026855469 59.31594848632812 114.9077529907227 60.72703170776367 C 114.1809234619141 62.13923645019531 113.3474655151367 63.75649261474609 112.4052581787109 65.58282470703125 C 110.7429580688477 68.83477783203125 109.2080917358398 71.86724853515625 107.8032608032227 74.67493438720703 C 106.3962860107422 77.48694610595703 105.1201553344727 80.07266998291016 103.9774322509766 82.42697906494141 C 102.8332824707031 84.78421783447266 101.8232116699219 86.90879821777344 100.9496307373047 88.79569244384766 C 100.0752182006836 90.68437957763672 99.33784484863281 92.33438873291016 98.73985290527344 93.74095153808594 C 97.09358978271484 97.60641479492188 95.55065155029297 101.3471221923828 94.11370849609375 104.9563140869141 C 92.67452239990234 108.5711288452148 91.34198760986328 112.0531539916992 90.11871337890625 115.395637512207 C 88.89381408691406 118.7425537109375 87.77876281738281 121.9487609863281 86.77609252929688 125.0075302124023 C 85.7723388671875 128.0696258544922 84.88146209716797 130.9832153320312 84.10595703125 133.74169921875 C 83.66044616699219 135.3606719970703 83.2696533203125 136.8744812011719 82.93405151367188 138.2808074951172 C 82.59832763671875 139.6876373291016 82.31786346435547 140.9867553710938 82.09312438964844 142.1759033203125 C 81.86832427978516 143.3653106689453 81.69928741455078 144.4445648193359 81.58644866943359 145.4114227294922 C 81.47360992431641 146.3784332275391 81.41698455810547 147.2328491210938 81.4169921875 147.9725799560547 C 81.4169921875 148.1263122558594 81.41996002197266 148.2823638916016 81.4259033203125 148.4404907226562 C 81.43183135986328 148.5986175537109 81.44072723388672 148.7588195800781 81.45255279541016 148.9207763671875 C 81.46436309814453 149.0827331542969 81.47914123535156 149.2464904785156 81.49680328369141 149.4116973876953 C 81.51448822021484 149.5769500732422 81.53507232666016 149.74365234375 81.55854797363281 149.9115905761719 L 81.56112670898438 149.9300537109375 L 81.56328582763672 149.9485778808594 C 81.65281677246094 150.7172241210938 81.72283172607422 151.3417510986328 81.77748870849609 151.8512573242188 C 81.83213806152344 152.3607482910156 81.87145233154297 152.7552642822266 81.89957427978516 153.0639495849609 C 81.92768859863281 153.3726043701172 81.94461059570312 153.5954132080078 81.95449829101562 153.7614593505859 C 81.96438598632812 153.9275054931641 81.96726989746094 154.0368347167969 81.96726989746094 154.1185150146484 C 81.96726989746094 154.6268005371094 81.92414093017578 155.1274871826172 81.83816528320312 155.6197662353516 C 81.75216674804688 156.112060546875 81.62332916259766 156.5960235595703 81.45192718505859 157.07080078125 C 81.28047180175781 157.5456848144531 81.06641387939453 158.0114135742188 80.81002807617188 158.4672546386719 C 80.55358123779297 158.9232025146484 80.25473785400391 159.3692779541016 79.91379547119141 159.8046569824219 C 79.59893035888672 160.2288055419922 79.26982879638672 160.6018676757812 78.92707824707031 160.9234619140625 C 78.58420562744141 161.2451782226562 78.22766876220703 161.515380859375 77.85811614990234 161.7337036132812 C 77.48841857910156 161.9520874023438 77.10566711425781 162.1185455322266 76.71049499511719 162.2326354980469 C 76.31515502929688 162.3468017578125 75.90737152099609 162.4085388183594 75.48777770996094 162.4174957275391 C 75.14405822753906 162.4248046875 74.76422882080078 162.3936004638672 74.36436462402344 162.2963256835938 C 73.96431732177734 162.1990051269531 73.54420471191406 162.0356140136719 73.12014007568359 161.778564453125 C 72.69588470458984 161.5214385986328 72.26765441894531 161.1705627441406 71.85164642333984 160.6984710693359 C 71.43544006347656 160.2261199951172 71.03145599365234 159.6324310302734 70.65589904785156 158.8898620605469 C 70.42486572265625 158.4685974121094 70.22346496582031 158.0130615234375 70.05131530761719 157.5213317871094 C 69.87912750244141 157.0294799804688 69.73621368408203 156.5014495849609 69.6221923828125 155.9352416992188 C 69.50815582275391 155.3689880371094 69.42301177978516 154.7645874023438 69.36638641357422 154.1201171875 C 69.30975341796875 153.4756011962891 69.28163909912109 152.7910308837891 69.28163909912109 152.0644683837891 C 69.28163909912109 151.0060577392578 69.33212280273438 149.8807525634766 69.43275451660156 148.69091796875 C 69.53336334228516 147.5011749267578 69.68408966064453 146.2471160888672 69.88455200195312 144.9310607910156 C 70.08496856689453 143.6152801513672 70.33507537841797 142.2377319335938 70.63448333740234 140.8008117675781 C 70.93381500244141 139.3643798828125 71.28236389160156 137.8687591552734 71.67975616455078 136.3164215087891 C 72.07243347167969 134.7825012207031 72.51580047607422 133.1811370849609 73.00874328613281 131.515625 C 73.50142669677734 129.8509826660156 74.0435791015625 128.1224517822266 74.63409423828125 126.3333435058594 C 75.22422790527344 124.5453720092773 75.86259460449219 122.6970672607422 76.54806518554688 120.7917938232422 C 77.23302459716797 118.8879089355469 77.96495819091797 116.9272994995117 78.74271392822266 114.913330078125 C 80.01470184326172 111.6195678710938 81.42047119140625 108.153923034668 82.95719146728516 104.522346496582 C 84.49136352539062 100.8967742919922 86.15562438964844 97.10684967041016 87.94703674316406 93.15859222412109 C 89.73497772216797 89.21795654296875 91.64908599853516 85.12067413330078 93.68636322021484 80.87287139892578 C 95.71916961669922 76.63441467285156 97.87403869628906 72.24721527099609 100.1479263305664 67.71741485595703 C 97.54878234863281 71.14866638183594 94.88507843017578 74.84560394287109 92.15930938720703 78.80517578125 C 89.42548370361328 82.77650451660156 86.62886810302734 87.01251220703125 83.77195739746094 91.51020812988281 C 80.90622711181641 96.02182006835938 77.97949981689453 100.7973098754883 74.99430847167969 105.8336715698242 C 71.99951171875 110.88623046875 68.94553375244141 116.2019271850586 65.83493804931641 121.7778549194336 L 65.83310699462891 121.781135559082 L 65.83125305175781 121.7844085693359 C 64.92507171630859 123.3901748657227 64.06103515625 124.8619918823242 63.23666381835938 126.2033767700195 C 62.41156387329102 127.5459442138672 61.62625122070312 128.7577209472656 60.87819290161133 129.8423309326172 C 60.12953567504883 130.9277954101562 59.41826248168945 131.8857574462891 58.74180603027344 132.7198791503906 C 58.06485748291016 133.5545654296875 57.42283630371094 134.2651824951172 56.81315994262695 134.8553771972656 C 56.1849250793457 135.4616088867188 55.5582160949707 135.9939575195312 54.93408584594727 136.4518280029297 C 54.30953216552734 136.9099884033203 53.68756866455078 137.2935791015625 53.06924057006836 137.6019744873047 C 52.45051193237305 137.9105834960938 51.83543395996094 138.1439056396484 51.22508239746094 138.3013763427734 C 50.61432647705078 138.4589385986328 50.00830459594727 138.54052734375 49.40808486938477 138.5455627441406 C 48.76658248901367 138.5509490966797 48.16004180908203 138.4760437011719 47.5919075012207 138.3229064941406 C 47.02344131469727 138.1697082519531 46.49346923828125 137.9381561279297 46.00545883178711 137.6304016113281 C 45.51719665527344 137.3224792480469 45.07097625732422 136.9382934570312 44.67025375366211 136.4799499511719 C 44.26936721801758 136.0214233398438 43.9140510559082 135.4887084960938 43.60776901245117 134.8839416503906 C 43.41631698608398 134.5059356689453 43.24842834472656 134.1123504638672 43.10428237915039 133.7039642333984 C 42.96011352539062 133.2955169677734 42.83970260620117 132.8722839355469 42.74323654174805 132.43505859375 C 42.64674758911133 131.9977874755859 42.57421112060547 131.5465393066406 42.52579879760742 131.0820617675781 C 42.47737503051758 130.6175842285156 42.45307540893555 130.1399078369141 42.45307540893555 129.6498260498047 C 42.45307540893555 128.7034301757812 42.4858283996582 127.7203369140625 42.55110168457031 126.7024536132812 C 42.61637115478516 125.6846542358398 42.71415328979492 124.6321716308594 42.84421157836914 123.5469589233398 C 42.97425079345703 122.4618835449219 43.13654327392578 121.3441696166992 43.33085632324219 120.1957855224609 C 43.52511978149414 119.0476150512695 43.75138092041016 117.8688583374023 44.00937271118164 116.6614685058594 C 44.26484298706055 115.4658660888672 44.55332183837891 114.2332458496094 44.87411499023438 112.9660491943359 C 45.19479370117188 111.6992721557617 45.54773712158203 110.3980178833008 45.9322395324707 109.064697265625 C 46.31657409667969 107.7319183349609 46.73241806030273 106.3671798706055 47.17905044555664 104.9729080200195 C 47.62547302246094 103.5792922973633 48.10262680053711 102.1562652587891 48.60979461669922 100.7062454223633 C 49.37042236328125 98.53155517578125 50.20481109619141 96.27831268310547 51.11161041259766 93.94944000244141 C 52.01755142211914 91.622802734375 52.99563217163086 89.22103118896484 54.04449844360352 86.74707794189453 C 55.09219741821289 84.27587127685547 56.21036911010742 81.73302459716797 57.39762878417969 79.1214599609375 C 58.58338928222656 76.51319885253906 59.83789443969727 73.83682250976562 61.15972900390625 71.09525299072266 C 60.50081253051758 71.95919036865234 59.84479141235352 72.83941650390625 59.19197845458984 73.73553466796875 C 58.5387077331543 74.63227081298828 57.8886604309082 75.544921875 57.24213409423828 76.47312164306641 C 56.59516906738281 77.40195465087891 55.95173263549805 78.34632110595703 55.3121452331543 79.30586242675781 C 54.672119140625 80.26605224609375 54.03595352172852 81.24141693115234 53.40394592285156 82.2315673828125 C 51.13825607299805 85.83775329589844 48.92049407958984 89.49049377441406 46.75460815429688 93.18302154541016 C 44.5837516784668 96.88402557373047 42.46526336669922 100.6245956420898 40.40313339233398 104.3978729248047 C 38.33650588989258 108.1793670654297 36.32674789428711 111.9932479858398 34.37786865234375 115.8325881958008 C 32.42498016357422 119.6797943115234 30.53348541259766 123.5520401000977 28.70741653442383 127.4422912597656 C 27.8412036895752 129.3165283203125 26.92385482788086 131.3586273193359 25.95706748962402 133.5645751953125 C 24.98930168151855 135.7727355957031 23.97189712524414 138.1453247070312 22.90655326843262 140.6783752441406 C 21.84002113342285 143.2142333984375 20.72533226013184 145.9111480712891 19.56418609619141 148.7652130126953 C 18.40162658691406 151.6227111816406 17.1923828125 154.6380004882812 15.93814563751221 157.8071441650391 C 15.60160446166992 158.6732635498047 15.25953578948975 159.4830322265625 14.91065502166748 160.2388000488281 C 14.56164932250977 160.9948425292969 14.20582008361816 161.6968231201172 13.84187698364258 162.3470306396484 C 13.47779655456543 162.9974670410156 13.10558795928955 163.5960845947266 12.72396087646484 164.1451873779297 C 12.34218215942383 164.6945190429688 11.95096588134766 165.1942443847656 11.54901695251465 165.6467132568359 C 11.11265659332275 166.137939453125 10.66433620452881 166.5702514648438 10.20488452911377 166.9432678222656 C 9.745212554931641 167.3164520263672 9.274388313293457 167.6302642822266 8.793233871459961 167.8841857910156 C 8.31183910369873 168.1382446289062 7.820096969604492 168.3323822021484 7.318830490112305 168.4660949707031 C 6.817305088043213 168.5999145507812 6.306236267089844 168.6732330322266 5.786456108093262 168.6856079101562 Z M 72.86754608154297 45.08723449707031 C 72.25816345214844 45.71676254272461 71.519287109375 46.54120635986328 70.65253448486328 47.55851745605469 C 69.78498077392578 48.57676696777344 68.78907775878906 49.78852081298828 67.66639709472656 51.19190979003906 C 66.54236602783203 52.59697341918945 65.29092407226562 54.19450759887695 63.91354751586914 55.98273468017578 C 62.53414916992188 57.77360534667969 61.02806091308594 59.75621032714844 59.39666366577148 61.92897033691406 C 55.4764289855957 67.1632080078125 51.66021347045898 72.53382110595703 47.95543670654297 78.03060150146484 C 44.23608779907227 83.54900360107422 40.63000106811523 89.19317626953125 37.14467620849609 94.95257568359375 C 33.64652633666992 100.7331695556641 30.27097320556641 106.6282958984375 27.02557945251465 112.627067565918 C 23.76912307739258 118.6462707519531 20.64464950561523 124.7681121826172 17.65974235534668 130.9813995361328 C 17.07758712768555 132.1953887939453 16.42738342285156 133.6128997802734 15.71048545837402 135.2307891845703 C 14.99304962158203 136.849853515625 14.20872116088867 138.6697998046875 13.35882759094238 140.6875 C 12.50818347930908 142.7069854736328 11.59174537658691 144.9248657226562 10.61082363128662 147.3380737304688 C 9.628902435302734 149.7537384033203 8.58223819732666 152.365478515625 7.472121715545654 155.1702728271484 L 7.469043254852295 155.1780242919922 L 7.465877532958984 155.1857452392578 C 6.764017581939697 156.9071350097656 6.223638534545898 158.2990417480469 5.807914257049561 159.4236450195312 C 5.392010688781738 160.5487213134766 5.100976943969727 161.4059600830078 4.897793292999268 162.0579833984375 C 4.694567680358887 162.7101287841797 4.579266548156738 163.1568450927734 4.514773845672607 163.4609069824219 C 4.450277805328369 163.7650451660156 4.436602592468262 163.9264831542969 4.436602592468262 164.0081634521484 C 4.436602592468262 164.1092376708984 4.442627429962158 164.2033538818359 4.455043792724609 164.2916412353516 C 4.467459678649902 164.3799133300781 4.486266136169434 164.4623413085938 4.511828899383545 164.5400543212891 C 4.537389278411865 164.6177368164062 4.569704055786133 164.690673828125 4.609138011932373 164.7600250244141 C 4.648569107055664 164.8293304443359 4.695119380950928 164.8950347900391 4.74915075302124 164.9582061767578 L 4.783628940582275 164.99853515625 L 4.815286159515381 165.0414276123047 C 4.90632963180542 165.1647491455078 4.995314121246338 165.2610168457031 5.081888675689697 165.3359375 C 5.168454647064209 165.4108276367188 5.252611637115479 165.4644012451172 5.334010124206543 165.5023498535156 C 5.415401935577393 165.5403137207031 5.494036197662354 165.5626831054688 5.569562911987305 165.5751953125 C 5.645083427429199 165.5876617431641 5.717497825622559 165.5902862548828 5.786456108093262 165.5887603759766 C 6.104487895965576 165.5816955566406 6.418008327484131 165.5346374511719 6.728094577789307 165.447021484375 C 7.038081169128418 165.3594207763672 7.344637393951416 165.2312927246094 7.648837089538574 165.0620574951172 C 7.952939510345459 164.8928375244141 8.254690170288086 164.6825408935547 8.555160522460938 164.4305877685547 C 8.855535507202148 164.1786804199219 9.154630661010742 163.8851470947266 9.453517913818359 163.5494079589844 C 9.787903785705566 163.1737670898438 10.11888885498047 162.7471618652344 10.44591808319092 162.2706146240234 C 10.77283668518066 161.7942199707031 11.09580516815186 161.2679290771484 11.41427040100098 160.6927490234375 C 11.73263263702393 160.1177673339844 12.04649639129639 159.4939270019531 12.35531234741211 158.8222351074219 C 12.66403007507324 158.1507720947266 12.96770572662354 157.4314880371094 13.26578807830811 156.6654205322266 L 13.26765441894531 156.6606597900391 L 13.26955223083496 156.6558685302734 C 14.53324222564697 153.4679870605469 15.75190925598145 150.4342041015625 16.92383003234863 147.5585174560547 C 18.09432601928711 144.6863555908203 19.21829986572266 141.9716186523438 20.29404067993164 139.4183197021484 C 21.36857414245605 136.8678894042969 22.39508819580078 134.478271484375 23.37185859680176 132.2534942626953 C 24.34763145446777 130.0309753417969 25.27386093139648 127.9727249145508 26.14882850646973 126.0827941894531 L 26.15078735351562 126.0785293579102 L 26.15278244018555 126.0743103027344 C 27.99744033813477 122.1508483886719 29.90810394287109 118.2458114624023 31.88069915771484 114.3662796020508 C 33.84921646118164 110.494743347168 35.87914276123047 106.6491165161133 37.96643829345703 102.8363494873047 C 40.04915237426758 99.03195953369141 42.18872451782227 95.26075744628906 44.3811149597168 91.52964019775391 C 46.56845092773438 87.80714416503906 48.80810928344727 84.12494659423828 51.09612274169922 80.48985290527344 L 51.09893035888672 80.48541259765625 L 51.10176849365234 80.48098754882812 C 52.36549377441406 78.50453948974609 53.64594650268555 76.58551025390625 54.94074249267578 74.72686767578125 C 56.23376083374023 72.87078094482422 57.54103088378906 71.07496643066406 58.86019897460938 69.3424072265625 C 60.17751312255859 67.61227416992188 61.50664901733398 65.94523620605469 62.84526062011719 64.34421539306641 C 64.18196868896484 62.74549102783203 65.52809143066406 61.21262359619141 66.88129425048828 59.74851226806641 L 69.05697631835938 61.59519958496094 C 67.09987640380859 65.40667724609375 65.25644683837891 69.111083984375 63.52990341186523 72.70156097412109 C 61.80019760131836 76.29866027832031 60.18827056884766 79.78049468994141 58.69736862182617 83.14022064208984 C 57.2040901184082 86.50527191162109 55.83259963989258 89.74695587158203 54.58606719970703 92.85842895507812 C 53.33787536621094 95.97403717041016 52.21530151367188 98.95825958251953 51.2214241027832 101.804328918457 C 50.23548889160156 104.6276397705078 49.37021636962891 107.3314361572266 48.62680435180664 109.9109802246094 C 47.88280487060547 112.4925384521484 47.26105499267578 114.948974609375 46.76266098022461 117.2756195068359 C 46.26399993896484 119.6034774780273 45.88896179199219 121.8007965087891 45.63856887817383 123.8630065917969 C 45.38809967041016 125.9257431030273 45.26240921020508 127.8527603149414 45.26240921020508 129.6395263671875 C 45.26240921020508 130.0005645751953 45.2794303894043 130.3507537841797 45.3133544921875 130.6895751953125 C 45.34727478027344 131.0283966064453 45.39809417724609 131.3558349609375 45.46569442749023 131.6713256835938 C 45.53329086303711 131.9868011474609 45.61765670776367 132.2902984619141 45.71867752075195 132.581298828125 C 45.81968688964844 132.8722534179688 45.93734359741211 133.1507110595703 46.07151412963867 133.4160614013672 C 46.25424194335938 133.7774810791016 46.45762252807617 134.0902862548828 46.68407821655273 134.3560180664062 C 46.91046905517578 134.6217041015625 47.15993118286133 134.8403472900391 47.43485641479492 135.0134887695312 C 47.70970916748047 135.1865844726562 48.01000213623047 135.314208984375 48.3381462097168 135.3978576660156 C 48.66617584228516 135.4814910888672 49.02202224731445 135.5212249755859 49.40808486938477 135.5186004638672 C 49.83343505859375 135.5157318115234 50.26969146728516 135.4521026611328 50.71601867675781 135.3282623291016 C 51.16214752197266 135.2044830322266 51.61832809448242 135.0204925537109 52.08374404907227 134.7768249511719 C 52.54893112182617 134.5332489013672 53.02333068847656 134.2300262451172 53.50611114501953 133.8676147460938 C 53.9886474609375 133.5054168701172 54.47955703735352 133.0841064453125 54.9780158996582 132.6041717529297 C 55.52878952026367 132.0721740722656 56.12132263183594 131.4117584228516 56.7542610168457 130.6249237060547 C 57.38677597045898 129.838623046875 58.0595817565918 128.9261169433594 58.77132797241211 127.8894577026367 C 59.4825325012207 126.8535919189453 60.2325553894043 125.6938323974609 61.02004623413086 124.4122543334961 C 61.8068733215332 123.1317367553711 62.63103485107422 121.7297058105469 63.49116897583008 120.2082366943359 C 65.48809051513672 116.6348648071289 67.46565246582031 113.1611022949219 69.42057800292969 109.7921142578125 C 71.37142944335938 106.43017578125 73.29984283447266 103.1724090576172 75.20260620117188 100.0239562988281 C 77.10149383544922 96.88190460205078 78.97492218017578 93.84854888916016 80.81973266601562 90.928955078125 C 82.660888671875 88.01514434814453 84.47361755371094 85.21444702148438 86.25482177734375 82.53192138671875 C 88.035888671875 79.84960174560547 89.79823303222656 77.26607513427734 91.53900146484375 74.78498840332031 C 93.2764892578125 72.30856323242188 94.99256134033203 69.93410491943359 96.68437194824219 67.66520690917969 C 98.37305450439453 65.40046691894531 100.0376663208008 63.24079895019531 101.6753311157227 61.18976211547852 C 103.3101043701172 59.14237213134766 104.9181137084961 57.2031364440918 106.4966354370117 55.37561416625977 L 108.5945663452148 57.17970275878906 C 105.6068878173828 62.94388198852539 102.7893600463867 68.5068359375 100.1475982666016 73.85745239257812 C 97.49821472167969 79.22348022460938 95.02664947509766 84.37384033203125 92.73834228515625 89.29749298095703 C 90.44435882568359 94.23336029052734 88.33547973632812 98.93939208984375 86.41705322265625 103.4046325683594 C 84.49463653564453 107.8791580200195 82.76425933837891 112.1100387573242 81.23104095458984 116.0865097045898 C 79.70803070068359 120.0365295410156 78.37066650390625 123.7571029663086 77.22109222412109 127.241340637207 C 76.07009887695312 130.7298889160156 75.10781097412109 133.9800872802734 74.33619689941406 136.9853515625 C 73.56393432617188 139.9930877685547 72.98296356201172 142.7542419433594 72.59500885009766 145.262451171875 C 72.20687103271484 147.7716827392578 72.0120849609375 150.0267639160156 72.0120849609375 152.0215759277344 C 72.0120849609375 152.6033020019531 72.03305053710938 153.1513214111328 72.07485198974609 153.6648864746094 C 72.11663055419922 154.1783905029297 72.17924499511719 154.6573944091797 72.26251220703125 155.1011047363281 C 72.34578704833984 155.5447845458984 72.44972229003906 155.9531555175781 72.57416534423828 156.3254089355469 C 72.69859313964844 156.6976318359375 72.84351348876953 157.0337524414062 73.00878143310547 157.3329772949219 L 73.02316284179688 157.3590240478516 L 73.03656005859375 157.3857421875 C 73.26983642578125 157.8507843017578 73.50188446044922 158.2119750976562 73.72819519042969 158.4919738769531 C 73.95444488525391 158.7718963623047 74.17497253417969 158.970703125 74.38524627685547 159.1110076904297 C 74.59548187255859 159.2512817382812 74.79547882080078 159.3330993652344 74.98075866699219 159.3791046142578 C 75.16598510742188 159.4251098632812 75.33649444580078 159.4353179931641 75.48777770996094 159.4323120117188 C 75.69964599609375 159.4281311035156 75.90666961669922 159.3942413330078 76.10951232910156 159.3302307128906 C 76.31231689453125 159.2662048339844 76.51095581054688 159.1720581054688 76.70612335205078 159.04736328125 C 76.90126037597656 158.9226837158203 77.09290313720703 158.7674560546875 77.28177642822266 158.5812530517578 C 77.47061157226562 158.3950653076172 77.65666961669922 158.1779479980469 77.84063720703125 157.9294281005859 L 77.85410308837891 157.9112396240234 L 77.86807250976562 157.8935394287109 C 78.10336303710938 157.5948333740234 78.30837249755859 157.2946166992188 78.48354339599609 156.9917449951172 C 78.65868377685547 156.6889038085938 78.80399322509766 156.3833923339844 78.91989898681641 156.0740966796875 C 79.03578948974609 155.7648620605469 79.12229156494141 155.4518127441406 79.1798095703125 155.1338806152344 C 79.23732757568359 154.8159332275391 79.26589965820312 154.4931182861328 79.26589965820312 154.1642456054688 C 79.26589965820312 154.1258087158203 79.26357269287109 154.0547332763672 79.25471496582031 153.9236907958984 C 79.24586486816406 153.7926635742188 79.23047637939453 153.6016387939453 79.20433807373047 153.3232574462891 C 79.17821502685547 153.0448913574219 79.14134216308594 152.6791687011719 79.08950805664062 152.1986846923828 C 79.03765869140625 151.7181854248047 78.97086334228516 151.1229400634766 78.88488006591797 150.385498046875 C 78.85652923583984 150.1816558837891 78.83168792724609 149.9787902832031 78.81034851074219 149.7772827148438 C 78.78900909423828 149.5757751464844 78.77119445800781 149.3756103515625 78.75691986083984 149.1771240234375 C 78.74265289306641 148.9786529541016 78.73191833496094 148.7818908691406 78.72476196289062 148.587158203125 C 78.71759796142578 148.3924102783203 78.71401214599609 148.19970703125 78.71401214599609 148.0093688964844 C 78.71400451660156 147.1834106445312 78.77162170410156 146.2543792724609 78.8876953125 145.2179565429688 C 79.00373077392578 144.1816253662109 79.17820739746094 143.0381011962891 79.41184997558594 141.7830200195312 C 79.64545440673828 140.5282745361328 79.93820190429688 139.1622161865234 80.29085540771484 137.6806182861328 C 80.64336395263672 136.1995697021484 81.05570220947266 134.6032867431641 81.52860260009766 132.8875732421875 L 81.52976989746094 132.8833160400391 L 81.53096008300781 132.8790740966797 C 82.31782531738281 130.0841369628906 83.22091674804688 127.1340255737305 84.23771667480469 124.0354843139648 C 85.25341796875 120.9403457641602 86.38232421875 117.6978607177734 87.62187957763672 114.3148040771484 C 88.85977172851562 110.9362716674805 90.20772552490234 107.4183807373047 91.66307067871094 103.7679138183594 C 93.11612701416016 100.1231918334961 94.67591857910156 96.34718322753906 96.33974456787109 92.44675445556641 C 96.94619750976562 91.02259063720703 97.69258880615234 89.35467529296875 98.57655334472656 87.4478759765625 C 99.45967102050781 85.54290008544922 100.4798278808594 83.40007781982422 101.634521484375 81.02442169189453 C 102.7877731323242 78.65176391601562 104.0749053955078 76.04756164550781 105.4933166503906 73.21702575683594 C 106.9095687866211 70.39087677001953 108.4562911987305 67.33991241455078 110.1308212280273 64.06948089599609 L 110.1320724487305 64.06703186035156 L 110.1333160400391 64.06460571289062 C 111.0669937133789 62.25782775878906 111.8974304199219 60.64910507202148 112.6240386962891 59.23970413208008 C 113.3500442504883 57.8314208984375 113.972541809082 56.62180709838867 114.4908294677734 55.61222839355469 C 115.0088195800781 54.60322189331055 115.4228210449219 53.79378509521484 115.7320861816406 53.18539810180664 C 116.0412368774414 52.57722091674805 116.2458038330078 52.16981506347656 116.3449249267578 51.96482849121094 L 116.3515853881836 51.95108032226562 L 116.358528137207 51.93746566772461 C 116.9652709960938 50.74716949462891 117.4518661499023 49.70729064941406 117.8404998779297 48.79914474487305 C 118.2289733886719 47.89138412475586 118.5196304321289 47.11506271362305 118.7345428466797 46.45165252685547 C 118.9493942260742 45.78839874267578 119.0885620117188 45.23789978027344 119.1740036010742 44.78175735473633 C 119.2594528198242 44.3256721496582 119.2911911010742 43.9638671875 119.2911911010742 43.67803955078125 C 119.2911911010742 43.45257949829102 119.2753372192383 43.23982238769531 119.2430725097656 43.03816223144531 C 119.2107849121094 42.83648300170898 119.1620635986328 42.64588928222656 119.096321105957 42.46475601196289 C 119.0305709838867 42.28361129760742 118.9477996826172 42.11193466186523 118.8474273681641 41.94811248779297 C 118.7470245361328 41.78427124023438 118.6290054321289 41.62826919555664 118.4927825927734 41.47852325439453 L 118.4647674560547 41.44771575927734 L 118.4383316040039 41.41516876220703 C 118.2741241455078 41.21285247802734 118.1006774902344 41.03513336181641 117.9172668457031 40.88165283203125 C 117.7338256835938 40.72813034057617 117.5404281616211 40.59886169433594 117.3363418579102 40.49346542358398 C 117.132209777832 40.3880500793457 116.9173736572266 40.30652236938477 116.6911239624023 40.24851608276367 C 116.4648132324219 40.19049453735352 116.2270736694336 40.156005859375 115.9771575927734 40.14468765258789 C 115.7441177368164 40.13413619995117 115.5033950805664 40.14892959594727 115.2554550170898 40.18893432617188 C 115.0074462890625 40.22895050048828 114.7522125244141 40.2941780090332 114.4902114868164 40.38447952270508 C 114.2281341552734 40.47481155395508 113.9592742919922 40.59023666381836 113.6840744018555 40.7305908203125 C 113.4087905883789 40.87099838256836 113.1271820068359 41.03636169433594 112.8396759033203 41.22654342651367 C 112.5248260498047 41.43481826782227 112.2024688720703 41.67317199707031 111.8732070922852 41.94107818603516 C 111.5438385009766 42.20909118652344 111.2075424194336 42.50666427612305 110.8649063110352 42.833251953125 C 110.5221557617188 43.15995788574219 110.1730651855469 43.51571273803711 109.818229675293 43.89997100830078 C 109.463249206543 44.28435516357422 109.1025314331055 44.697265625 108.7366409301758 45.13813781738281 C 107.4497833251953 46.6788215637207 106.1180191040039 48.32237243652344 104.7436599731445 50.06581115722656 C 103.3672561645508 51.8118782043457 101.9480056762695 53.65829086303711 100.4882202148438 55.60204696655273 C 99.02611541748047 57.54890060424805 97.52323913574219 59.59358215332031 95.98191833496094 61.73310470581055 C 94.43799591064453 63.87620162963867 92.85537719726562 66.11461639404297 91.23640441894531 68.44535064697266 C 88.43624877929688 72.48211669921875 85.81182861328125 76.30473327636719 83.36825561523438 79.9056396484375 C 80.91823577880859 83.51606750488281 78.65101623535156 86.90216827392578 76.57161712646484 90.05657958984375 C 74.48757171630859 93.21804809570312 72.59303283691406 96.14547729492188 70.89284515380859 98.8316650390625 C 69.18955993652344 101.5227661132812 67.68206024169922 103.9706039428711 66.37497711181641 106.1682357788086 C 64.83437347412109 108.7545547485352 63.42741775512695 111.1120758056641 62.1564826965332 113.2369079589844 C 60.88382339477539 115.364616394043 59.7479133605957 117.2583694458008 58.75098419189453 118.914436340332 C 57.75300979614258 120.5722808837891 56.89460754394531 121.9914398193359 56.17790985107422 123.1683807373047 C 55.46066665649414 124.3462219238281 54.88555526733398 125.2811050415039 54.45458221435547 125.9697341918945 L 51.93224334716797 124.8797454833984 C 52.27273559570312 122.6178131103516 52.72068405151367 120.2250518798828 53.27457809448242 117.7067718505859 C 53.82814788818359 115.1899642944336 54.48742294311523 112.5483627319336 55.25084686279297 109.7873611450195 C 56.01366424560547 107.0286331176758 56.88027954101562 104.1512832641602 57.84909439086914 101.1607971191406 C 58.81691360473633 98.17340087890625 59.88650894165039 95.07376098632812 61.05619049072266 91.86734771728516 L 61.06022262573242 91.85630798339844 L 61.06440734863281 91.84535980224609 C 62.41683959960938 88.30449676513672 63.80441284179688 84.84546661376953 65.224365234375 81.47386932373047 C 66.64218139648438 78.10739135742188 68.0921630859375 74.82830810546875 69.57160186767578 71.64218139648438 C 71.04869842529297 68.46108245849609 72.55504608154297 65.37286376953125 74.08794403076172 62.38298797607422 C 75.61830902099609 59.39802551269531 77.175048828125 56.51123809814453 78.75543212890625 53.72805404663086 C 79.43227386474609 52.52901077270508 79.96482849121094 51.49997711181641 80.38297271728516 50.61814117431641 C 80.80094146728516 49.73669052124023 81.10471343994141 49.0020751953125 81.32398223876953 48.39169692993164 C 81.54319763183594 47.78146362304688 81.67800140380859 47.2952995300293 81.75801086425781 46.91074371337891 C 81.83798980712891 46.52620697021484 81.86320495605469 46.24321746826172 81.86320495605469 46.03939819335938 C 81.86320495605469 45.7560920715332 81.83522796630859 45.4798698425293 81.77886962890625 45.20977783203125 C 81.72251129150391 44.93967056274414 81.63777160644531 44.67569351196289 81.52423858642578 44.41691207885742 C 81.41070556640625 44.15811157226562 81.26834869384766 43.90449905395508 81.09679412841797 43.6551513671875 C 80.92518615722656 43.40575408935547 80.72434997558594 43.16061019897461 80.49385070800781 42.91880416870117 L 80.48465728759766 42.90917205810547 L 80.47563934326172 42.89936447143555 C 80.28977203369141 42.69734573364258 80.10655975341797 42.52032470703125 79.92539978027344 42.36797332763672 C 79.74418640136719 42.21557998657227 79.56501770019531 42.08784866333008 79.38725280761719 41.98441696166992 C 79.20946502685547 41.88097381591797 79.03309631347656 41.80184936523438 78.85750579833984 41.74667739868164 C 78.681884765625 41.69149398803711 78.50705718994141 41.66027069091797 78.33238220214844 41.65266036987305 C 78.10662078857422 41.642822265625 77.83232879638672 41.67058181762695 77.50300598144531 41.76314544677734 C 77.17354583740234 41.8557243347168 76.78897094726562 42.01315689086914 76.34269714355469 42.26267623901367 C 75.89620208740234 42.51231384277344 75.38790893554688 42.85416030883789 74.81119537353516 43.3155403137207 C 74.23411560058594 43.7772102355957 73.58846282958984 44.3586311340332 72.86754608154297 45.08723449707031 Z" stroke="none" fill="#fff"/>
      </g>
    </g>
  </g>
</svg>
