<svg xmlns="http://www.w3.org/2000/svg" xmlns:xlink="http://www.w3.org/1999/xlink" width="3114" height="1024" viewBox="0 0 3114 1024">
  <defs>
    <linearGradient id="linear-gradient" x1="0.025" y1="0.032" x2="0.7" y2="0.715" gradientUnits="objectBoundingBox">
      <stop offset="0" stop-color="#002248"/>
      <stop offset="1" stop-color="#001224" stop-opacity="0.722"/>
    </linearGradient>
    <clipPath id="clip-path">
      <path id="Path_1" data-name="Path 1" d="M649.5,853.584V457.029H979.266V12.316H437.212V853.584Z" transform="translate(-437.212 -12.316)" fill="rgba(255,255,255,0.36)"/>
    </clipPath>
    <clipPath id="clip-path-2">
      <path id="Path_2" data-name="Path 2" d="M1121.93,450.925,1255.345,551.86,1147.171,710.868,974.093,416.358,980.1,88.664l310.1,110.614L1233.71,304.362l-111.78,17.975Z" transform="translate(-974.093 -88.664)" fill="rgba(255,255,255,0.31)"/>
    </clipPath>
    <clipPath id="clip-PFTMS_-_With_Abbrrevation_Label">
      <rect width="3114" height="1024"/>
    </clipPath>
  </defs>
  <g id="PFTMS_-_With_Abbrrevation_Label" data-name="PFTMS - With Abbrrevation Label" clip-path="url(#clip-PFTMS_-_With_Abbrrevation_Label)">
    <rect width="3114" height="1024" fill="rgba(255,255,255,0)"/>
    <g id="Group_3" data-name="Group 3">
      <g id="Rectangle_3" data-name="Rectangle 3" stroke="#fff" stroke-width="30" fill="url(#linear-gradient)">
        <rect width="1024" height="1024" rx="100" stroke="none"/>
        <rect x="15" y="15" width="994" height="994" rx="85" fill="none"/>
      </g>
      <g id="Ellipse_2" data-name="Ellipse 2" transform="translate(456.409 430.366)" fill="none" stroke="#fff" stroke-width="100">
        <ellipse cx="255.206" cy="254.717" rx="255.206" ry="254.717" stroke="none"/>
        <ellipse cx="255.206" cy="254.717" rx="205.206" ry="204.717" fill="none"/>
      </g>
      <g id="Mask_Group_1" data-name="Mask Group 1" transform="translate(80.359 95.444)" clip-path="url(#clip-path)">
        <path id="Polygon_1" data-name="Polygon 1" d="M181.655,17.9a7,7,0,0,1,13.142,0L373,503.31a7,7,0,0,1-6.571,9.412H10.027a7,7,0,0,1-6.571-9.412Z" transform="translate(403.428 854.445) rotate(180)" fill="#fff"/>
        <g id="Ellipse_1" data-name="Ellipse 1" transform="translate(12.308 1.492)" fill="none" stroke="#fff" stroke-width="125">
          <circle cx="255.206" cy="255.206" r="255.206" stroke="none"/>
          <circle cx="255.206" cy="255.206" r="192.706" fill="none"/>
        </g>
        <path id="Polygon_2" data-name="Polygon 2" d="M181.655,17.9a7,7,0,0,1,13.142,0L373,503.31a7,7,0,0,1-6.571,9.412H10.027a7,7,0,0,1-6.571-9.412Z" transform="translate(403.428 854.445) rotate(180)" fill="#fff"/>
      </g>
      <g id="Mask_Group_2" data-name="Mask Group 2" transform="translate(604.838 58.632)" clip-path="url(#clip-path-2)">
        <g id="Ellipse_3" data-name="Ellipse 3" transform="translate(11.084 90.316)" fill="none" stroke="#fff" stroke-width="75">
          <ellipse cx="179.61" cy="183.282" rx="179.61" ry="183.282" stroke="none"/>
          <ellipse cx="179.61" cy="183.282" rx="142.11" ry="145.782" fill="none"/>
        </g>
      </g>
      <rect id="Rectangle_5" data-name="Rectangle 5" width="684.044" height="32.267" rx="16.134" transform="translate(57.179 282.384)" fill="#fff"/>
      <rect id="Rectangle_6" data-name="Rectangle 6" width="684.044" height="32.267" rx="16.134" transform="translate(57.179 343.986)" fill="#fff"/>
      <rect id="Rectangle_7" data-name="Rectangle 7" width="397" height="58" rx="22" transform="translate(315 645)" fill="#fff"/>
      <path id="Polygon_3" data-name="Polygon 3" d="M181.576,20.27a7,7,0,0,1,13.3,0L373.44,564.454a7,7,0,0,1-6.651,9.182H9.664a7,7,0,0,1-6.651-9.182Z" transform="translate(483.787 949.889) rotate(180)" fill="rgba(255,255,255,0.41)"/>
      <text id="PFTMS_" data-name="PFTMS
" transform="translate(1182.5 174.5)" fill="#fff" font-size="531" font-family="Poppins-Bold, Poppins" font-weight="700"><tspan x="0" y="558">PFTMS</tspan></text>
      <g id="Rectangle_8" data-name="Rectangle 8" stroke="#fff" stroke-width="30" fill="url(#linear-gradient)">
        <rect width="1024" height="1024" rx="100" stroke="none"/>
        <rect x="15" y="15" width="994" height="994" rx="85" fill="none"/>
      </g>
      <g id="Ellipse_4" data-name="Ellipse 4" transform="translate(456.409 430.366)" fill="none" stroke="#fff" stroke-width="100">
        <ellipse cx="255.206" cy="254.717" rx="255.206" ry="254.717" stroke="none"/>
        <ellipse cx="255.206" cy="254.717" rx="205.206" ry="204.717" fill="none"/>
      </g>
      <g id="Mask_Group_3" data-name="Mask Group 3" transform="translate(80.359 95.444)" clip-path="url(#clip-path)">
        <path id="Polygon_4" data-name="Polygon 4" d="M181.655,17.9a7,7,0,0,1,13.142,0L373,503.31a7,7,0,0,1-6.571,9.412H10.027a7,7,0,0,1-6.571-9.412Z" transform="translate(403.428 854.445) rotate(180)" fill="#fff"/>
        <g id="Ellipse_5" data-name="Ellipse 5" transform="translate(12.308 1.492)" fill="none" stroke="#fff" stroke-width="125">
          <circle cx="255.206" cy="255.206" r="255.206" stroke="none"/>
          <circle cx="255.206" cy="255.206" r="192.706" fill="none"/>
        </g>
        <path id="Polygon_5" data-name="Polygon 5" d="M181.655,17.9a7,7,0,0,1,13.142,0L373,503.31a7,7,0,0,1-6.571,9.412H10.027a7,7,0,0,1-6.571-9.412Z" transform="translate(403.428 854.445) rotate(180)" fill="#fff"/>
      </g>
      <g id="Mask_Group_4" data-name="Mask Group 4" transform="translate(604.838 58.632)" clip-path="url(#clip-path-2)">
        <g id="Ellipse_6" data-name="Ellipse 6" transform="translate(11.084 90.316)" fill="none" stroke="#fff" stroke-width="75">
          <ellipse cx="179.61" cy="183.282" rx="179.61" ry="183.282" stroke="none"/>
          <ellipse cx="179.61" cy="183.282" rx="142.11" ry="145.782" fill="none"/>
        </g>
      </g>
      <rect id="Rectangle_9" data-name="Rectangle 9" width="684.044" height="32.267" rx="16.134" transform="translate(57.179 282.384)" fill="#fff"/>
      <rect id="Rectangle_10" data-name="Rectangle 10" width="684.044" height="32.267" rx="16.134" transform="translate(57.179 343.986)" fill="#fff"/>
      <rect id="Rectangle_11" data-name="Rectangle 11" width="397" height="58" rx="22" transform="translate(315 645)" fill="#fff"/>
      <path id="Polygon_6" data-name="Polygon 6" d="M181.576,20.27a7,7,0,0,1,13.3,0L373.44,564.454a7,7,0,0,1-6.651,9.182H9.664a7,7,0,0,1-6.651-9.182Z" transform="translate(483.787 949.889) rotate(180)" fill="rgba(255,255,255,0.41)"/>
      <g id="M" transform="translate(335.969 765.955)" fill="#fff">
        <path d="M53.306,125.122q1.294-2.065,4.276-7.014t7.642-12.765q1.969-3.307,4.516-7.33t5.668-8.754q3.121-4.732,6.813-10.168t7.95-11.569q9.763-14.042,17.591-23.4,4.65-5.6,8.216-5.433,2.043.094,3.4,1.77,1.206,1.328,1.206,3.279,0,2.885-3.095,8.962-.3.627-1.857,3.657t-4.364,8.473q-5.048,9.867-8.483,16.94T97.54,93.095q-5.008,11.749-8.691,21.811t-6.031,18.408q-2.752,9.993-2.752,14.678,0,1.041.157,2.167.394,3.377.394,3.984,0,2.515-1.733,4.717-1.5,2.027-3.4,2.066-2.218.046-3.647-2.8-1.192-2.157-1.192-6.081,0-1.532.145-3.25t.434-3.62q.289-1.9.723-3.99t1.012-4.358q.578-2.271,1.3-4.725t1.59-5.09q.867-2.636,1.877-5.454T79.9,115.74q1.154-3,2.451-6.177t2.737-6.535q1.44-3.357,3.022-6.891t3.306-7.246q1.724-3.711,3.589-7.6t3.871-7.947q2.006-4.061,4.152-8.294t4.431-8.639q-9.545,11.062-20.237,27.2T64.663,121q-5.3,9.382-8.767,12.735-3.4,3.278-6.487,3.3T44.84,134.15q-.982-1.94-.982-4.5,0-2.752.377-5.9t1.129-6.683q.753-3.537,1.881-7.462t2.632-8.235q1.5-4.31,3.38-9T57.384,82.6q2.249-5.07,4.868-10.514t5.607-11.257Q59.766,69.6,52.252,81.36q-13.81,21.961-24.822,45.4Q22.169,138.133,14.6,157.235q-3.805,9.787-8.817,9.9-1.278.029-2.132-1.125-.683-.8-.683-1.973,0-1.717,3.155-9.449,3.353-8.464,5.913-14.538t4.334-9.768q8.964-18.643,19.458-35.99t22.484-33.34q4.935-6.566,8.333-10.808t5.27-6.173q3.884-3.923,6.413-3.811,1.577.07,3.072,1.7,1.807,1.9,1.807,4.236,0,2.6-3.3,8.453-9.5,16.744-17.571,37.893-3.5,9.607-5.762,17.783T53.306,125.122Z" stroke="none"/>
        <path d="M 5.786455154418945 168.6856689453125 C 5.463794231414795 168.693359375 5.15137243270874 168.6632843017578 4.851057529449463 168.5964660644531 C 4.550649166107178 168.5296173095703 4.262361526489258 168.4259643554688 3.988060474395752 168.2864227294922 C 3.71368145942688 168.1468811035156 3.453303813934326 167.9714660644531 3.208797216415405 167.7610931396484 C 2.964229583740234 167.5506591796875 2.73554801940918 167.3053131103516 2.524622917175293 167.0259857177734 C 2.355486392974854 166.8237609863281 2.207177400588989 166.6099548339844 2.079850435256958 166.3850402832031 C 1.952507853507996 166.1600646972656 1.84615695476532 165.9239501953125 1.760952115058899 165.6771392822266 C 1.675739645957947 165.4302520751953 1.611680746078491 165.1727142333984 1.568923830986023 164.9048461914062 C 1.526165366172791 164.6369934082031 1.504712820053101 164.3588562011719 1.504712820053101 164.0708465576172 C 1.504712820053101 163.8333740234375 1.528045296669006 163.5299682617188 1.608511447906494 163.0970764160156 C 1.688971638679504 162.6642150878906 1.826545715332031 162.1019592285156 2.054996967315674 161.3468170166016 C 2.283394575119019 160.5918579101562 2.602582931518555 159.6442565917969 3.046223402023315 158.4408111572266 C 3.489660978317261 157.2379302978516 4.057323455810547 155.7796783447266 4.782683372497559 154.0033569335938 C 5.90255069732666 151.1786193847656 6.958964824676514 148.5471496582031 7.950628280639648 146.1119689941406 C 8.941272735595703 143.6792907714844 9.867431640625 141.4421691894531 10.72778701782227 139.4036865234375 C 11.58737468719482 137.3670196533203 12.38139152526855 135.5283050537109 13.10850238800049 133.8907012939453 C 13.83506679534912 132.2543640136719 14.4949254989624 130.8185729980469 15.08672428131104 129.5865478515625 C 16.59536552429199 126.4515228271484 18.14195823669434 123.3340759277344 19.72343635559082 120.2397079467773 C 21.30231285095215 117.1504364013672 22.91584205627441 114.0843887329102 24.56097412109375 111.0469665527344 C 26.20328521728516 108.0147705078125 27.87697601318359 105.0113067626953 29.57902908325195 102.0419387817383 C 31.27805328369141 99.07786560058594 33.00523376464844 96.14794158935547 34.75756454467773 93.2574462890625 C 36.50666427612305 90.37229919433594 38.29300689697266 87.50634765625 40.11307144165039 84.66464996337891 C 41.92964935302734 81.82836151123047 43.77968978881836 79.01644134521484 45.65969085693359 76.23381042480469 C 47.53597259521484 73.45668792724609 49.44197845458984 70.70896148681641 51.37423706054688 67.99545288085938 C 53.30255508422852 65.28751373291016 55.25692367553711 62.61385726928711 57.23392105102539 59.97929382324219 C 58.91130447387695 57.74958038330078 60.44923782348633 55.72865676879883 61.8524169921875 53.91049957275391 C 63.25351333618164 52.09506225585938 64.52064514160156 50.48128890991211 65.65841674804688 49.06343078613281 C 66.79478454589844 47.64730072021484 67.80240631103516 46.42619323730469 68.68567657470703 45.39457321166992 C 69.568115234375 44.36393356323242 70.32668304443359 43.52214050292969 70.96566009521484 42.86382293701172 L 70.9705810546875 42.85875701904297 L 70.97554016113281 42.85374450683594 C 71.69737243652344 42.12554931640625 72.38915252685547 41.49411010742188 73.05312347412109 40.95806884765625 C 73.71661376953125 40.42241287231445 74.35234832763672 39.98198699951172 74.96255493164062 39.63545227050781 C 75.57238006591797 39.28915023803711 76.15670776367188 39.03660202026367 76.71775817871094 38.87650299072266 C 77.27847290039062 38.71648025512695 77.81594848632812 38.64878082275391 78.33238983154297 38.67211532592773 C 78.68275451660156 38.68793487548828 79.02947998046875 38.74483871459961 79.37197113037109 38.84249114990234 C 79.71434020996094 38.94010543823242 80.052490234375 39.07843780517578 80.38585662841797 39.25714874267578 C 80.71910858154297 39.4358024597168 81.04756927490234 39.65481185913086 81.37067413330078 39.91383743286133 C 81.69366455078125 40.17276763916016 82.01131439208984 40.47171020507812 82.32302856445312 40.81031799316406 C 82.69399261474609 41.20133972167969 83.01913452148438 41.60686874389648 83.29814910888672 42.02616500854492 C 83.57707214355469 42.4453239440918 83.80994415283203 42.87828063964844 83.99645233154297 43.32427215576172 C 84.18291473388672 43.77016830444336 84.32307434082031 44.22915649414062 84.41661071777344 44.70046997070312 C 84.51013946533203 45.17173385620117 84.55705261230469 45.6553840637207 84.55705261230469 46.15067291259766 C 84.55705261230469 46.6645622253418 84.48779296875 47.2326545715332 84.34669494628906 47.86174774169922 C 84.20558166503906 48.49093627929688 83.99259948730469 49.18123626708984 83.70513916015625 49.93946838378906 C 83.4176025390625 50.69794845581055 83.05549621582031 51.52451324462891 82.61617279052734 52.42605209350586 C 82.17665100097656 53.32802200317383 81.65978240966797 54.30517959594727 81.06288146972656 55.36445999145508 C 79.50475311279297 58.11322402954102 77.9698486328125 60.96455001831055 76.46077728271484 63.91317367553711 C 74.94926452636719 66.8665771484375 73.46376037597656 69.91742706298828 72.00691986083984 73.06038665771484 C 70.54779815673828 76.208251953125 69.11750793457031 79.44831085205078 67.71871948242188 82.77513885498047 C 66.31784820556641 86.10695648193359 64.94865417480469 89.52557373046875 63.61385726928711 93.02553558349609 C 62.77537155151367 95.32797241210938 61.98946380615234 97.57324981689453 61.25677871704102 99.75924682617188 C 60.52352142333984 101.9469451904297 59.84365463256836 104.0750198364258 59.21781539916992 106.1413421630859 C 58.59156036376953 108.2090530395508 58.01947402954102 110.2146759033203 57.50217437744141 112.156135559082 C 56.98459625244141 114.0986633300781 56.52191543579102 115.9767074584961 56.11474609375 117.7881927490234 C 56.62453842163086 116.9435958862305 57.17329406738281 116.0324783325195 57.76071548461914 115.0553970336914 C 58.34775924682617 114.0788955688477 58.97336196899414 113.0365829467773 59.63717651367188 111.9290237426758 C 60.30053329467773 110.8222351074219 61.00199890136719 109.6503677368164 61.74122619628906 108.4139938354492 C 62.47987747192383 107.178596496582 63.25617980957031 105.8788909912109 64.06977081298828 104.5154495239258 C 65.38877868652344 102.3016586303711 66.90885925292969 99.83753967285156 68.62532806396484 97.13014221191406 C 70.33865356445312 94.42768859863281 72.24694061279297 91.48398590087891 74.34529113769531 88.30622863769531 C 76.43892669677734 85.13562774658203 78.72093963623047 81.73332977294922 81.18627166748047 78.10678863525391 C 83.64505767822266 74.48985290527344 86.28521728515625 70.65129852294922 89.1015625 66.59870147705078 C 90.73616027832031 64.24983215332031 92.33444976806641 61.99356079101562 93.89400482177734 59.83295059204102 C 95.45093536376953 57.67598724365234 96.96939849853516 55.61420440673828 98.44701385498047 53.65064239501953 C 99.92227935791016 51.69023513793945 101.35693359375 49.82758331298828 102.7486190795898 48.06573867797852 C 104.1381988525391 46.30656433105469 105.4850616455078 44.64774322509766 106.7868423461914 43.09231948852539 C 107.6366271972656 42.07038879394531 108.4620132446289 41.18423461914062 109.2657089233398 40.43195724487305 C 110.0686950683594 39.68032836914062 110.8500823974609 39.06232452392578 111.6125411987305 38.57606887817383 C 112.374382019043 38.09021759033203 113.1173553466797 37.73588562011719 113.8441696166992 37.51123809814453 C 114.5704040527344 37.28677368164062 115.2805099487305 37.19178771972656 115.9771728515625 37.22445297241211 C 116.4057464599609 37.24455261230469 116.8179168701172 37.30679702758789 117.2130813598633 37.41082000732422 C 117.6080474853516 37.51478958129883 117.9860458374023 37.66051483154297 118.3464660644531 37.8476448059082 C 118.7067413330078 38.03469467163086 119.0494384765625 38.26313018798828 119.3739852905273 38.53259658813477 C 119.6984100341797 38.80195999145508 120.0047149658203 39.11235046386719 120.2922744750977 39.46340942382812 C 120.5554656982422 39.75708770751953 120.7861557006836 40.06831359863281 120.9841384887695 40.39647674560547 C 121.1820907592773 40.72456359863281 121.3473510742188 41.06959533691406 121.4797134399414 41.43096542358398 C 121.6120529174805 41.79228973388672 121.7115325927734 42.16997146606445 121.7779159545898 42.56341934204102 C 121.8442916870117 42.95683288574219 121.8776168823242 43.36604690551758 121.8776168823242 43.79043960571289 C 121.8776168823242 44.33897018432617 121.8112869262695 44.94732666015625 121.6776962280273 45.61841583251953 C 121.544075012207 46.28960800170898 121.3431549072266 47.02363586425781 121.0739059448242 47.82341384887695 C 120.804573059082 48.62342071533203 120.4668579101562 49.48934173583984 120.0597457885742 50.42414474487305 C 119.6524276733398 51.35934448242188 119.1755752563477 52.36361312866211 118.6281204223633 53.43994140625 C 118.5213012695312 53.6605339050293 118.3143157958984 54.07356262207031 118.0053176879883 54.68264770507812 C 117.6962051391602 55.29191970825195 117.2849273681641 56.09749984741211 116.7695999145508 57.10312652587891 C 116.2539520263672 58.10932159423828 115.6340103149414 59.31600570678711 114.9077682495117 60.72709274291992 C 114.1809310913086 62.13929748535156 113.3474807739258 63.75655746459961 112.4052734375 65.5828857421875 C 110.7429733276367 68.8348388671875 109.2081069946289 71.8673095703125 107.8032760620117 74.67499542236328 C 106.3963012695312 77.48700714111328 105.1201705932617 80.07273101806641 103.9774398803711 82.42704010009766 C 102.8332901000977 84.78427886962891 101.8232192993164 86.90885925292969 100.9496383666992 88.79575347900391 C 100.0752258300781 90.6844482421875 99.33786010742188 92.33445739746094 98.7398681640625 93.74102020263672 C 97.09359741210938 97.60647583007812 95.5506591796875 101.3471832275391 94.11372375488281 104.9563751220703 C 92.67453002929688 108.5711898803711 91.34199523925781 112.0532073974609 90.11872100830078 115.3957061767578 C 88.89382171630859 118.7426147460938 87.77877044677734 121.9488220214844 86.77610778808594 125.0075912475586 C 85.77234649658203 128.0696868896484 84.88147735595703 130.9832763671875 84.10597229003906 133.7417602539062 C 83.66045379638672 135.3607482910156 83.26966857910156 136.8745422363281 82.93405914306641 138.2808685302734 C 82.59833526611328 139.6877136230469 82.31787109375 140.98681640625 82.09313201904297 142.1759643554688 C 81.86833190917969 143.3653869628906 81.69930267333984 144.4446258544922 81.58645629882812 145.4114990234375 C 81.47361755371094 146.3784942626953 81.4169921875 147.23291015625 81.41699981689453 147.9726409912109 C 81.41699981689453 148.1263732910156 81.41996765136719 148.2824249267578 81.42591094970703 148.4405517578125 C 81.43184661865234 148.5986785888672 81.44073486328125 148.7588806152344 81.45256042480469 148.9208374023438 C 81.46437835693359 149.0828094482422 81.47914886474609 149.2465515136719 81.49681091308594 149.4117584228516 C 81.51449584960938 149.5770111083984 81.53507995605469 149.7437133789062 81.55856323242188 149.9116516113281 L 81.56114196777344 149.9301147460938 L 81.56329345703125 149.9486389160156 C 81.65282440185547 150.71728515625 81.72283935546875 151.3418121337891 81.77749633789062 151.8513336181641 C 81.8321533203125 152.3608093261719 81.8714599609375 152.7553405761719 81.89958190917969 153.0640106201172 C 81.92769622802734 153.3726654052734 81.94461822509766 153.5954742431641 81.95450592041016 153.7615203857422 C 81.96439361572266 153.9275817871094 81.96727752685547 154.0368957519531 81.96727752685547 154.1185760498047 C 81.96727752685547 154.6268615722656 81.92414855957031 155.1275482177734 81.83817291259766 155.6198272705078 C 81.75218200683594 156.1121215820312 81.62333679199219 156.5960845947266 81.45193481445312 157.0708618164062 C 81.28048706054688 157.5457458496094 81.06642150878906 158.011474609375 80.81003570556641 158.4673156738281 C 80.5535888671875 158.9232635498047 80.25474548339844 159.3693389892578 79.91380310058594 159.8047180175781 C 79.59893798828125 160.2288665771484 79.26983642578125 160.6019287109375 78.92708587646484 160.9235229492188 C 78.58421325683594 161.2452392578125 78.22767639160156 161.5154418945312 77.85812377929688 161.7337646484375 C 77.48842620849609 161.9521484375 77.10567474365234 162.1186065673828 76.71050262451172 162.2326965332031 C 76.31516265869141 162.3468627929688 75.90738677978516 162.4085998535156 75.48779296875 162.4175567626953 C 75.14407348632812 162.4248657226562 74.76423645019531 162.3936614990234 74.36437225341797 162.29638671875 C 73.96431732177734 162.1990661621094 73.54420471191406 162.0356750488281 73.12014007568359 161.7786254882812 C 72.69588470458984 161.5214996337891 72.26766967773438 161.1706237792969 71.85165405273438 160.6985321044922 C 71.43544769287109 160.2261810302734 71.03147125244141 159.6324920654297 70.65591430664062 158.8899230957031 C 70.42487335205078 158.4686584472656 70.22346496582031 158.0131225585938 70.05131530761719 157.5213928222656 C 69.87913513183594 157.029541015625 69.73622131347656 156.5015106201172 69.62220001220703 155.9353179931641 C 69.50815582275391 155.3690490722656 69.42301940917969 154.7646484375 69.36639404296875 154.1201782226562 C 69.30976104736328 153.4756622314453 69.28163909912109 152.7910919189453 69.28163909912109 152.0645294189453 C 69.28163909912109 151.0061187744141 69.33213043212891 149.8808135986328 69.43276214599609 148.6909790039062 C 69.53336334228516 147.5012359619141 69.68409729003906 146.2471771240234 69.88455963134766 144.9311218261719 C 70.08496856689453 143.6153411865234 70.33509063720703 142.23779296875 70.63449859619141 140.8008880615234 C 70.93382263183594 139.3644409179688 71.28237915039062 137.8688201904297 71.67976379394531 136.3164825439453 C 72.07244873046875 134.7825775146484 72.51580810546875 133.1811981201172 73.00875091552734 131.5156860351562 C 73.50143432617188 129.8510437011719 74.04358673095703 128.1225128173828 74.63410949707031 126.3334121704102 C 75.22422790527344 124.5454330444336 75.86259460449219 122.697135925293 76.54807281494141 120.7918548583984 C 77.23303985595703 118.8879699707031 77.9649658203125 116.927360534668 78.74272155761719 114.9133911132812 C 80.01470947265625 111.61962890625 81.42047882080078 108.1539840698242 82.95720672607422 104.5224151611328 C 84.49137115478516 100.896842956543 86.15562438964844 97.10691833496094 87.94704437255859 93.15865325927734 C 89.7349853515625 89.21800994873047 91.64909362792969 85.12074279785156 93.68637084960938 80.87293243408203 C 95.71917724609375 76.63447570800781 97.87404632568359 72.24727630615234 100.1479339599609 67.71747589111328 C 97.54879760742188 71.14872741699219 94.88509368896484 74.84567260742188 92.15932464599609 78.80524444580078 C 89.42549133300781 82.77656555175781 86.62887573242188 87.0125732421875 83.77196502685547 91.51027679443359 C 80.90623474121094 96.02188873291016 77.97950744628906 100.7973709106445 74.99430847167969 105.8337326049805 C 71.99952697753906 110.8862915039062 68.94554138183594 116.2019882202148 65.83494567871094 121.7779159545898 L 65.83311462402344 121.7811965942383 L 65.83126831054688 121.7844696044922 C 64.92507934570312 123.3902359008789 64.06104278564453 124.8620529174805 63.23666763305664 126.2034378051758 C 62.41157150268555 127.546012878418 61.62625503540039 128.7577819824219 60.87820053100586 129.8423919677734 C 60.12954330444336 130.9278564453125 59.41827011108398 131.8858184814453 58.74181365966797 132.7199401855469 C 58.06486511230469 133.5546264648438 57.4228401184082 134.2652435302734 56.81316375732422 134.8554382324219 C 56.18492889404297 135.461669921875 55.55821990966797 135.9940185546875 54.93408966064453 136.4518890380859 C 54.30953979492188 136.9100494384766 53.68757629394531 137.2936401367188 53.06924438476562 137.6020355224609 C 52.45051574707031 137.91064453125 51.8354377746582 138.1439819335938 51.2250862121582 138.3014373779297 C 50.61433029174805 138.4589996337891 50.00830841064453 138.5405883789062 49.40808868408203 138.5456237792969 C 48.76658630371094 138.5510101318359 48.1600456237793 138.4761047363281 47.59191131591797 138.3229675292969 C 47.02344512939453 138.1697692871094 46.49347305297852 137.9382171630859 46.00546264648438 137.6304626464844 C 45.5172004699707 137.3225555419922 45.07098007202148 136.9383544921875 44.67026138305664 136.4800262451172 C 44.26937103271484 136.021484375 43.91405868530273 135.48876953125 43.60777282714844 134.8840026855469 C 43.41632080078125 134.5059967041016 43.24842834472656 134.1124114990234 43.10428237915039 133.7040252685547 C 42.96011734008789 133.2955932617188 42.8397102355957 132.8723449707031 42.74323654174805 132.4351196289062 C 42.64675521850586 131.9978485107422 42.57421875 131.5466003417969 42.52579879760742 131.0821380615234 C 42.47738265991211 130.6176452636719 42.45308303833008 130.1399688720703 42.45308303833008 129.6498870849609 C 42.45308303833008 128.7034912109375 42.48583602905273 127.7203979492188 42.55110931396484 126.7025146484375 C 42.61637878417969 125.6847229003906 42.71416091918945 124.6322326660156 42.84421539306641 123.5470199584961 C 42.97425079345703 122.4619445800781 43.13655090332031 121.3442306518555 43.33086013793945 120.1958465576172 C 43.52512359619141 119.0476760864258 43.75138473510742 117.8689193725586 44.00937652587891 116.6615295410156 C 44.26485061645508 115.4659271240234 44.55332565307617 114.2333068847656 44.87411880493164 112.9661102294922 C 45.19479751586914 111.699333190918 45.5477409362793 110.3980865478516 45.93224334716797 109.0647659301758 C 46.31657791137695 107.7319793701172 46.732421875 106.3672409057617 47.17905426025391 104.9729690551758 C 47.6254768371582 103.5793609619141 48.10263061523438 102.1563262939453 48.60979843139648 100.7063064575195 C 49.37042999267578 98.5316162109375 50.20481491088867 96.27838134765625 51.11161804199219 93.94950103759766 C 52.01755523681641 91.62286376953125 52.99563980102539 89.22109222412109 54.04450225830078 86.74713897705078 C 55.09220504760742 84.27593231201172 56.21037673950195 81.73308563232422 57.39763641357422 79.12153625488281 C 58.58339309692383 76.51326751708984 59.8379020690918 73.83688354492188 61.15973663330078 71.09531402587891 C 60.50082015991211 71.95925140380859 59.84479522705078 72.8394775390625 59.19198226928711 73.735595703125 C 58.53871536254883 74.63233947753906 57.88866424560547 75.54498291015625 57.24214172363281 76.47318267822266 C 56.59517669677734 77.40201568603516 55.95173645019531 78.34638214111328 55.31215286254883 79.30593109130859 C 54.67212295532227 80.26611328125 54.03596115112305 81.24147796630859 53.40395355224609 82.23162841796875 C 51.13825988769531 85.83781433105469 48.92049789428711 89.49055480957031 46.75461196899414 93.18308258056641 C 44.58375549316406 96.88408660888672 42.46526718139648 100.6246566772461 40.40313339233398 104.3979339599609 C 38.33651351928711 108.1794281005859 36.32675552368164 111.9933090209961 34.37786865234375 115.832649230957 C 32.42498397827148 119.6798553466797 30.53348731994629 123.5521087646484 28.70741844177246 127.4423522949219 C 27.84120559692383 129.3165893554688 26.92385482788086 131.3586883544922 25.95706748962402 133.5646362304688 C 24.98930358886719 135.7728118896484 23.97189712524414 138.1453857421875 22.90655326843262 140.6784362792969 C 21.84002113342285 143.2142944335938 20.72533416748047 145.9112091064453 19.56418609619141 148.7652740478516 C 18.4016284942627 151.6227722167969 17.19238471984863 154.6380615234375 15.93814563751221 157.8072052001953 C 15.60160446166992 158.6733245849609 15.25953674316406 159.4830932617188 14.9106559753418 160.2388610839844 C 14.56164932250977 160.9949035644531 14.20582008361816 161.6968994140625 13.84187698364258 162.3471069335938 C 13.47779655456543 162.9975280761719 13.10558795928955 163.5961456298828 12.72396087646484 164.1452484130859 C 12.34218215942383 164.694580078125 11.95096588134766 165.1943054199219 11.54901695251465 165.6467742919922 C 11.11265563964844 166.1380004882812 10.66433525085449 166.5703277587891 10.20488452911377 166.9433288574219 C 9.745212554931641 167.3165130615234 9.274388313293457 167.6303253173828 8.793232917785645 167.8842468261719 C 8.31183910369873 168.1383056640625 7.820096492767334 168.3324432373047 7.318829536437988 168.4661560058594 C 6.817304134368896 168.5999755859375 6.306235313415527 168.6732940673828 5.786455154418945 168.6856689453125 Z M 72.86754608154297 45.08729553222656 C 72.25817108154297 45.71682357788086 71.51930236816406 46.54126739501953 70.65254211425781 47.55857849121094 C 69.78498840332031 48.57683563232422 68.78908538818359 49.78858947753906 67.66640472412109 51.19197082519531 C 66.54237365722656 52.59704208374023 65.29093170166016 54.1945686340332 63.91355514526367 55.98279571533203 C 62.53415679931641 57.77366638183594 61.02806854248047 59.75628280639648 59.39667129516602 61.92903137207031 C 55.47643280029297 67.16326904296875 51.66021728515625 72.53388214111328 47.9554443359375 78.03066253662109 C 44.23609161376953 83.54906463623047 40.6300048828125 89.19324493408203 37.14468002319336 94.95263671875 C 33.64652633666992 100.7332305908203 30.27097511291504 106.6283569335938 27.02557945251465 112.6271286010742 C 23.76912689208984 118.6463317871094 20.64465141296387 124.7681732177734 17.65974235534668 130.9814605712891 C 17.07758712768555 132.1954498291016 16.42738342285156 133.6129760742188 15.71048641204834 135.2308502197266 C 14.99305057525635 136.8499145507812 14.20872116088867 138.6698608398438 13.35882759094238 140.6875610351562 C 12.50818347930908 142.7070465087891 11.59174537658691 144.9249267578125 10.61082363128662 147.338134765625 C 9.628901481628418 149.7537994384766 8.58223819732666 152.3655395507812 7.472120761871338 155.1703338623047 L 7.469042301177979 155.1780853271484 L 7.46587610244751 155.1858062744141 C 6.764016628265381 156.9071960449219 6.223637104034424 158.2991027832031 5.807913303375244 159.4237060546875 C 5.392009735107422 160.5487823486328 5.10097599029541 161.4060211181641 4.897792339324951 162.0580444335938 C 4.69456672668457 162.7101898193359 4.579265594482422 163.1569061279297 4.514772415161133 163.4609680175781 C 4.450276374816895 163.7651062011719 4.436600685119629 163.9265441894531 4.436600685119629 164.0082244873047 C 4.436600685119629 164.1092987060547 4.442626476287842 164.2034301757812 4.455042839050293 164.2917022705078 C 4.467458724975586 164.3799896240234 4.486265182495117 164.46240234375 4.51182746887207 164.5401153564453 C 4.537388324737549 164.6177978515625 4.569703102111816 164.6907501220703 4.609136581420898 164.7600860595703 C 4.648568153381348 164.8293914794922 4.695118427276611 164.8950958251953 4.749149799346924 164.9582824707031 L 4.783627986907959 164.9985961914062 L 4.815285205841064 165.0414886474609 C 4.906328678131104 165.1648101806641 4.995313167572021 165.2610778808594 5.081887722015381 165.3359832763672 C 5.168453693389893 165.410888671875 5.25261116027832 165.4644622802734 5.334009647369385 165.5024261474609 C 5.415400981903076 165.5403747558594 5.494035720825195 165.562744140625 5.569561958312988 165.5752563476562 C 5.645082473754883 165.5877227783203 5.717496871948242 165.5903472900391 5.786455154418945 165.5888214111328 C 6.10448694229126 165.5817565917969 6.418007850646973 165.5346984863281 6.728094100952148 165.4470825195312 C 7.03808069229126 165.3594970703125 7.3446364402771 165.2313690185547 7.648836135864258 165.0621185302734 C 7.952939033508301 164.8928985595703 8.25468921661377 164.6826019287109 8.555159568786621 164.4306488037109 C 8.855535507202148 164.1787567138672 9.154630661010742 163.8852081298828 9.453517913818359 163.5494689941406 C 9.787903785705566 163.173828125 10.11888885498047 162.7472229003906 10.44591808319092 162.2706756591797 C 10.77283668518066 161.7942810058594 11.09580516815186 161.2679901123047 11.41427040100098 160.6928100585938 C 11.73263263702393 160.1178283691406 12.04649639129639 159.4939880371094 12.35531234741211 158.8222961425781 C 12.66403007507324 158.1508331298828 12.96770572662354 157.4315490722656 13.26578807830811 156.6654815673828 L 13.26765441894531 156.6607360839844 L 13.26955223083496 156.6559295654297 C 14.53324317932129 153.4680480957031 15.75190925598145 150.4342651367188 16.92383193969727 147.5585784912109 C 18.09432601928711 144.6864318847656 19.21830177307129 141.9716949462891 20.29404067993164 139.4183807373047 C 21.36857604980469 136.8679504394531 22.39509010314941 134.4783325195312 23.37185859680176 132.2535552978516 C 24.34763336181641 130.0310363769531 25.27386474609375 127.972785949707 26.14882850646973 126.0828552246094 L 26.15078735351562 126.0785903930664 L 26.15278244018555 126.0743713378906 C 27.99744415283203 122.1509094238281 29.90810585021973 118.2458724975586 31.88070106506348 114.366340637207 C 33.84922027587891 110.4948043823242 35.87914657592773 106.6491775512695 37.9664421081543 102.8364181518555 C 40.04916000366211 99.03202056884766 42.18872451782227 95.26081848144531 44.38111877441406 91.52970123291016 C 46.56845474243164 87.80720520019531 48.80811309814453 84.12500762939453 51.09612655639648 80.48991394042969 L 51.09893417358398 80.4854736328125 L 51.10177230834961 80.48104858398438 C 52.36550140380859 78.50460052490234 53.64595413208008 76.5855712890625 54.94075012207031 74.7269287109375 C 56.23376846313477 72.87084197998047 57.54103469848633 71.07502746582031 58.86020660400391 69.34246826171875 C 60.17752075195312 67.61233520507812 61.50665664672852 65.94530487060547 62.84526443481445 64.34428405761719 C 64.18198394775391 62.74555206298828 65.52810668945312 61.21269226074219 66.88130950927734 59.74857330322266 L 69.05698394775391 61.59526062011719 C 67.09989166259766 65.40673828125 65.25644683837891 69.11114501953125 63.52991104125977 72.70162200927734 C 61.80020141601562 76.29872894287109 60.18827819824219 79.78056335449219 58.69737243652344 83.14028167724609 C 57.20409393310547 86.50533294677734 55.83260726928711 89.74701690673828 54.58607482910156 92.85848999023438 C 53.3378791809082 95.97409820556641 52.21530532836914 98.95832061767578 51.22142791748047 101.8043899536133 C 50.23549270629883 104.6277008056641 49.37022399902344 107.3315048217773 48.62680816650391 109.9110412597656 C 47.88280868530273 112.4925994873047 47.26105880737305 114.9490432739258 46.76266479492188 117.2756805419922 C 46.26400756835938 119.6035461425781 45.88896560668945 121.8008575439453 45.63857269287109 123.8630676269531 C 45.38810348510742 125.9258041381836 45.26241302490234 127.8528213500977 45.26241302490234 129.6395874023438 C 45.26241302490234 130.0006256103516 45.27943420410156 130.3508148193359 45.31335830688477 130.6896362304688 C 45.3472785949707 131.0284576416016 45.39809799194336 131.3558959960938 45.4656982421875 131.6714019775391 C 45.53329467773438 131.9868621826172 45.61766815185547 132.2903594970703 45.71868133544922 132.5813598632812 C 45.8196907043457 132.8723297119141 45.93734741210938 133.1507720947266 46.07151794433594 133.4161224365234 C 46.25424575805664 133.7775421142578 46.45762634277344 134.0903472900391 46.68408203125 134.3560943603516 C 46.91047668457031 134.6217651367188 47.15993499755859 134.8404083251953 47.43486404418945 135.0135498046875 C 47.70971298217773 135.1866455078125 48.010009765625 135.3142700195312 48.33815002441406 135.3979187011719 C 48.66617965698242 135.4815521240234 49.02202606201172 135.5212860107422 49.40808868408203 135.5186614990234 C 49.83343887329102 135.5157928466797 50.26969528198242 135.4521789550781 50.71602630615234 135.3283233642578 C 51.16215133666992 135.2045440673828 51.61833572387695 135.0205688476562 52.0837516784668 134.7768859863281 C 52.54893493652344 134.5333099365234 53.02333831787109 134.2300872802734 53.50611877441406 133.86767578125 C 53.98865127563477 133.5054779052734 54.47956466674805 133.0841674804688 54.97801971435547 132.6042327880859 C 55.5287971496582 132.0722503662109 56.12133026123047 131.4118194580078 56.75426483154297 130.6249847412109 C 57.38678359985352 129.8386840820312 58.05958938598633 128.9261779785156 58.77133178710938 127.889518737793 C 59.48254013061523 126.8536529541016 60.23256301879883 125.6938934326172 61.02005386352539 124.4123153686523 C 61.80688095092773 123.1318054199219 62.63104248046875 121.7297668457031 63.49117660522461 120.2082977294922 C 65.48809814453125 116.6349258422852 67.46565246582031 113.1611709594727 69.42059326171875 109.7921752929688 C 71.37143707275391 106.4302368164062 73.29985046386719 103.172477722168 75.20261383056641 100.0240249633789 C 77.10150146484375 96.88197326660156 78.97492980957031 93.84860992431641 80.81974029541016 90.92901611328125 C 82.66089630126953 88.01519775390625 84.47362518310547 85.21450805664062 86.25483703613281 82.531982421875 C 88.03589630126953 79.84966278076172 89.79824829101562 77.26613616943359 91.53901672363281 74.78504943847656 C 93.27650451660156 72.30863189697266 94.99256896972656 69.93417358398438 96.68437957763672 67.66527557373047 C 98.37306213378906 65.40052795410156 100.0376739501953 63.2408561706543 101.6753463745117 61.18982696533203 C 103.3101119995117 59.14244079589844 104.9181289672852 57.20320129394531 106.4966506958008 55.37567520141602 L 108.5945816040039 57.17976379394531 C 105.6069030761719 62.94394302368164 102.7893676757812 68.50688934326172 100.1476135253906 73.85751342773438 C 97.49822235107422 79.22354125976562 95.02665710449219 84.37390899658203 92.73835754394531 89.29754638671875 C 90.44436645507812 94.23342132568359 88.33549499511719 98.939453125 86.41706085205078 103.4047012329102 C 84.49464416503906 107.8792266845703 82.76426696777344 112.1100997924805 81.23105621337891 116.0865707397461 C 79.70804595947266 120.0365905761719 78.37067413330078 123.7571640014648 77.22109985351562 127.2414016723633 C 76.07010650634766 130.7299499511719 75.10781860351562 133.9801483154297 74.33620452880859 136.9854125976562 C 73.56394195556641 139.9931488037109 72.98297119140625 142.7543029785156 72.59500885009766 145.2625122070312 C 72.20688629150391 147.7717437744141 72.01210021972656 150.0268249511719 72.01210021972656 152.0216369628906 C 72.01210021972656 152.6033630371094 72.03305816650391 153.1513824462891 72.07485961914062 153.6649475097656 C 72.11663818359375 154.1784515380859 72.17926025390625 154.657470703125 72.26252746582031 155.1011657714844 C 72.34580230712891 155.5448455810547 72.44973754882812 155.9532165527344 72.57417297363281 156.3254852294922 C 72.69859313964844 156.6976928710938 72.84352111816406 157.0338134765625 73.00878143310547 157.3330383300781 L 73.02317047119141 157.3590850830078 L 73.03656005859375 157.3858032226562 C 73.26985168457031 157.8508453369141 73.50188446044922 158.2120361328125 73.72819519042969 158.4920196533203 C 73.95445251464844 158.7719573974609 74.17497253417969 158.9707641601562 74.38524627685547 159.1110534667969 C 74.59548187255859 159.2513580322266 74.79549407958984 159.3331756591797 74.98076629638672 159.3791809082031 C 75.16599273681641 159.4251708984375 75.33650970458984 159.4353790283203 75.48779296875 159.432373046875 C 75.69966125488281 159.4281921386719 75.90667724609375 159.3943176269531 76.10951995849609 159.3302917480469 C 76.31232452392578 159.2662811279297 76.51096343994141 159.172119140625 76.70613098144531 159.0474243164062 C 76.90126800537109 158.9227447509766 77.09291839599609 158.7675170898438 77.28178405761719 158.5813140869141 C 77.47061920166016 158.3951263427734 77.65667724609375 158.1780090332031 77.84064483642578 157.9294891357422 L 77.85411071777344 157.9113006591797 L 77.86808013916016 157.8936004638672 C 78.10337066650391 157.5949096679688 78.30838012695312 157.294677734375 78.48355102539062 156.9918060302734 C 78.65869140625 156.68896484375 78.80400085449219 156.3834533691406 78.91990661621094 156.0741577148438 C 79.03579711914062 155.7649230957031 79.12229919433594 155.4518737792969 79.17981719970703 155.1339416503906 C 79.23733520507812 154.8159942626953 79.26590728759766 154.4931793212891 79.26590728759766 154.164306640625 C 79.26590728759766 154.1258697509766 79.26358032226562 154.0547943115234 79.25472259521484 153.9237518310547 C 79.24587249755859 153.792724609375 79.23048400878906 153.6016998291016 79.204345703125 153.3233184814453 C 79.17822265625 153.0449523925781 79.14134979248047 152.6792297363281 79.08951568603516 152.1987457275391 C 79.03766632080078 151.7182464599609 78.97087097167969 151.1230010986328 78.8848876953125 150.3855590820312 C 78.85653686523438 150.1817169189453 78.83169555664062 149.9788513183594 78.81035614013672 149.77734375 C 78.78901672363281 149.5758361816406 78.77120208740234 149.3756866455078 78.75692749023438 149.1772003173828 C 78.74266052246094 148.9787139892578 78.73192596435547 148.7819519042969 78.72476959228516 148.5872192382812 C 78.71760559082031 148.3924713134766 78.71401977539062 148.1997528076172 78.71401977539062 148.0094451904297 C 78.71401214599609 147.1834716796875 78.77162933349609 146.2544403076172 78.88771057128906 145.218017578125 C 79.00374603271484 144.1816864013672 79.17821502685547 143.0381622314453 79.41185760498047 141.7830810546875 C 79.64546966552734 140.5283355712891 79.93820953369141 139.1622772216797 80.29086303710938 137.6806793212891 C 80.64337921142578 136.1996307373047 81.05570983886719 134.6033630371094 81.52861022949219 132.8876342773438 L 81.52977752685547 132.8833770751953 L 81.53096771240234 132.8791351318359 C 82.31783294677734 130.0841827392578 83.22092437744141 127.1340866088867 84.23772430419922 124.0355453491211 C 85.25342559814453 120.9404144287109 86.38233184814453 117.6979217529297 87.62188720703125 114.3148651123047 C 88.85978698730469 110.9363403320312 90.20774078369141 107.4184417724609 91.66307830810547 103.7679748535156 C 93.11613464355469 100.1232528686523 94.67591857910156 96.34724426269531 96.33975219726562 92.44682312011719 C 96.94620513916016 91.02265167236328 97.69259643554688 89.354736328125 98.57656860351562 87.44793701171875 C 99.45967864990234 85.54295349121094 100.4798355102539 83.40013885498047 101.6345291137695 81.02448272705078 C 102.7877807617188 78.65183258056641 104.0749130249023 76.04763031005859 105.4933319091797 73.21709442138672 C 106.9095764160156 70.39093017578125 108.456298828125 67.33997344970703 110.1308364868164 64.06954193115234 L 110.1320877075195 64.06709289550781 L 110.1333312988281 64.06465911865234 C 111.067008972168 62.25788879394531 111.8974456787109 60.64916610717773 112.6240463256836 59.23977279663086 C 113.3500595092773 57.83148193359375 113.9725570678711 56.62187194824219 114.4908447265625 55.61228942871094 C 115.0088272094727 54.60327911376953 115.4228363037109 53.79384613037109 115.7320938110352 53.18545913696289 C 116.0412521362305 52.57727813720703 116.2458114624023 52.16988372802734 116.3449401855469 51.96489334106445 L 116.3516006469727 51.95114135742188 L 116.3585357666016 51.93753433227539 C 116.9652862548828 50.74723434448242 117.4518814086914 49.70735168457031 117.8405151367188 48.79921340942383 C 118.2289886474609 47.89145278930664 118.519645690918 47.11512756347656 118.7345581054688 46.45171356201172 C 118.9494094848633 45.78845596313477 119.0885772705078 45.23796463012695 119.1740188598633 44.78182601928711 C 119.2594680786133 44.32573318481445 119.2912063598633 43.96393585205078 119.2912063598633 43.67810440063477 C 119.2912063598633 43.4526481628418 119.2753524780273 43.23988723754883 119.2430801391602 43.03822326660156 C 119.2108001708984 42.83654403686523 119.1620788574219 42.64595031738281 119.0963287353516 42.46481704711914 C 119.0305862426758 42.28367233276367 118.9478073120117 42.11199569702148 118.8474426269531 41.94818115234375 C 118.7470397949219 41.78433609008789 118.6290130615234 41.62833404541016 118.4927978515625 41.47859191894531 L 118.4647827148438 41.44778442382812 L 118.438346862793 41.41523361206055 C 118.2741394042969 41.21290969848633 118.1006927490234 41.03519058227539 117.9172821044922 40.8817138671875 C 117.7338409423828 40.72819519042969 117.5404434204102 40.59892654418945 117.3363571166992 40.49353408813477 C 117.1322250366211 40.38811492919922 116.9173889160156 40.30657958984375 116.6911315917969 40.24857711791992 C 116.4648284912109 40.1905632019043 116.2270812988281 40.15607452392578 115.9771728515625 40.14474868774414 C 115.7441329956055 40.13419342041016 115.5034103393555 40.14899063110352 115.2554626464844 40.18899536132812 C 115.0074615478516 40.22900772094727 114.7522201538086 40.29423904418945 114.4902191162109 40.38454437255859 C 114.2281494140625 40.47488021850586 113.9592895507812 40.59029769897461 113.6840896606445 40.73065948486328 C 113.408805847168 40.87105941772461 113.127197265625 41.03641891479492 112.8396911621094 41.22660827636719 C 112.5248413085938 41.43487930297852 112.2024841308594 41.67323684692383 111.8732223510742 41.94114303588867 C 111.5438537597656 42.20914840698242 111.2075576782227 42.5067253112793 110.8649215698242 42.83331298828125 C 110.5221710205078 43.16001510620117 110.1730804443359 43.51577377319336 109.8182373046875 43.90002822875977 C 109.463264465332 44.284423828125 109.1025390625 44.69733428955078 108.7366485595703 45.13820648193359 C 107.4497909545898 46.67887878417969 106.118034362793 48.32243347167969 104.7436752319336 50.06587982177734 C 103.3672714233398 51.81194305419922 101.9480133056641 53.65834808349609 100.4882354736328 55.60211181640625 C 99.02613067626953 57.5489616394043 97.52324676513672 59.59364318847656 95.98193359375 61.73316192626953 C 94.43800354003906 63.87626266479492 92.85538482666016 66.11468505859375 91.23641204833984 68.44541931152344 C 88.43626403808594 72.482177734375 85.81183624267578 76.30479431152344 83.36826324462891 79.90570068359375 C 80.91824340820312 83.51612854003906 78.65102386474609 86.90223693847656 76.57162475585938 90.056640625 C 74.48757171630859 93.21811676025391 72.59303283691406 96.14553833007812 70.89285278320312 98.83172607421875 C 69.18956756591797 101.5228271484375 67.68206787109375 103.9706726074219 66.37499237060547 106.1682968139648 C 64.83437347412109 108.7546234130859 63.42742156982422 111.1121368408203 62.15649032592773 113.2369689941406 C 60.88383102416992 115.3646774291992 59.74791717529297 117.258430480957 58.75099182128906 118.9144973754883 C 57.75301361083984 120.5723419189453 56.89461517333984 121.9915008544922 56.17791366577148 123.1684417724609 C 55.46067047119141 124.3462829589844 54.88555908203125 125.2811737060547 54.45458984375 125.9697952270508 L 51.93224716186523 124.8798065185547 C 52.27273941040039 122.6178741455078 52.7206916809082 120.2251129150391 53.27458190917969 117.7068328857422 C 53.82815170288086 115.1900253295898 54.4874267578125 112.5484237670898 55.2508544921875 109.7874298095703 C 56.01366806030273 107.028694152832 56.88028717041016 104.1513442993164 57.84909820556641 101.1608581542969 C 58.81692123413086 98.1734619140625 59.88651275634766 95.07382202148438 61.05619812011719 91.86740875244141 L 61.06023025512695 91.85636901855469 L 61.06441116333008 91.84542083740234 C 62.41684341430664 88.3045654296875 63.80442047119141 84.84552764892578 65.22437286376953 81.47393035888672 C 66.64218139648438 78.10745239257812 68.09217834472656 74.82837677001953 69.57160186767578 71.64224243164062 C 71.0487060546875 68.46115112304688 72.55506134033203 65.3729248046875 74.08795166015625 62.383056640625 C 75.61831665039062 59.39808654785156 77.17505645751953 56.51130676269531 78.75543975830078 53.72812271118164 C 79.43227386474609 52.52907943725586 79.96483612060547 51.50004577636719 80.38298797607422 50.61819839477539 C 80.80094909667969 49.73675155639648 81.10472106933594 49.00214385986328 81.32398986816406 48.39175796508789 C 81.543212890625 47.78152465820312 81.67801666259766 47.29536056518555 81.75801849365234 46.91080474853516 C 81.83799743652344 46.52627563476562 81.86321258544922 46.2432861328125 81.86321258544922 46.03945922851562 C 81.86321258544922 45.75616073608398 81.83523559570312 45.47992706298828 81.77888488769531 45.2098388671875 C 81.72252655029297 44.93973159790039 81.63777923583984 44.67575454711914 81.52424621582031 44.4169807434082 C 81.41071319580078 44.15817260742188 81.26836395263672 43.90456008911133 81.0968017578125 43.65521240234375 C 80.92519378662109 43.40581512451172 80.724365234375 43.16067886352539 80.49385833740234 42.91886520385742 L 80.48466491699219 42.90923309326172 L 80.47564697265625 42.8994255065918 C 80.28977966308594 42.69740676879883 80.1065673828125 42.5203857421875 79.92540740966797 42.3680305480957 C 79.74419403076172 42.21564865112305 79.56502532958984 42.08790969848633 79.38726043701172 41.9844856262207 C 79.20947265625 41.88103485107422 79.03310394287109 41.80191040039062 78.85751342773438 41.74673461914062 C 78.68189239501953 41.69155502319336 78.50706481933594 41.66033935546875 78.33238983154297 41.65272903442383 C 78.10662841796875 41.64289093017578 77.83233642578125 41.67065048217773 77.50301361083984 41.76320648193359 C 77.17355346679688 41.85579299926758 76.78897857666016 42.01321792602539 76.34270477294922 42.26273727416992 C 75.89621734619141 42.51238250732422 75.38790893554688 42.85422134399414 74.81119537353516 43.31560897827148 C 74.23412322998047 43.77727127075195 73.58846282958984 44.35869979858398 72.86754608154297 45.08729553222656 Z" stroke="none" fill="#fff"/>
      </g>
      <g id="M-2" data-name="M" transform="translate(335.969 765.955)" fill="#fff">
        <path d="M53.306,125.122q1.294-2.065,4.276-7.014t7.642-12.765q1.969-3.307,4.516-7.33t5.668-8.754q3.121-4.732,6.813-10.168t7.95-11.569q9.763-14.042,17.591-23.4,4.65-5.6,8.216-5.433,2.043.094,3.4,1.77,1.206,1.328,1.206,3.279,0,2.885-3.095,8.962-.3.627-1.857,3.657t-4.364,8.473q-5.048,9.867-8.483,16.94T97.54,93.095q-5.008,11.749-8.691,21.811t-6.031,18.408q-2.752,9.993-2.752,14.678,0,1.041.157,2.167.394,3.377.394,3.984,0,2.515-1.733,4.717-1.5,2.027-3.4,2.066-2.218.046-3.647-2.8-1.192-2.157-1.192-6.081,0-1.532.145-3.25t.434-3.62q.289-1.9.723-3.99t1.012-4.358q.578-2.271,1.3-4.725t1.59-5.09q.867-2.636,1.877-5.454T79.9,115.74q1.154-3,2.451-6.177t2.737-6.535q1.44-3.357,3.022-6.891t3.306-7.246q1.724-3.711,3.589-7.6t3.871-7.947q2.006-4.061,4.152-8.294t4.431-8.639q-9.545,11.062-20.237,27.2T64.663,121q-5.3,9.382-8.767,12.735-3.4,3.278-6.487,3.3T44.84,134.15q-.982-1.94-.982-4.5,0-2.752.377-5.9t1.129-6.683q.753-3.537,1.881-7.462t2.632-8.235q1.5-4.31,3.38-9T57.384,82.6q2.249-5.07,4.868-10.514t5.607-11.257Q59.766,69.6,52.252,81.36q-13.81,21.961-24.822,45.4Q22.169,138.133,14.6,157.235q-3.805,9.787-8.817,9.9-1.278.029-2.132-1.125-.683-.8-.683-1.973,0-1.717,3.155-9.449,3.353-8.464,5.913-14.538t4.334-9.768q8.964-18.643,19.458-35.99t22.484-33.34q4.935-6.566,8.333-10.808t5.27-6.173q3.884-3.923,6.413-3.811,1.577.07,3.072,1.7,1.807,1.9,1.807,4.236,0,2.6-3.3,8.453-9.5,16.744-17.571,37.893-3.5,9.607-5.762,17.783T53.306,125.122Z" stroke="none"/>
        <path d="M 5.786455154418945 168.6856689453125 C 5.463794231414795 168.693359375 5.15137243270874 168.6632843017578 4.851057529449463 168.5964660644531 C 4.550649166107178 168.5296173095703 4.262361526489258 168.4259643554688 3.988060474395752 168.2864227294922 C 3.71368145942688 168.1468811035156 3.453303813934326 167.9714660644531 3.208797216415405 167.7610931396484 C 2.964229583740234 167.5506591796875 2.73554801940918 167.3053131103516 2.524622917175293 167.0259857177734 C 2.355486392974854 166.8237609863281 2.207177400588989 166.6099548339844 2.079850435256958 166.3850402832031 C 1.952507853507996 166.1600646972656 1.84615695476532 165.9239501953125 1.760952115058899 165.6771392822266 C 1.675739645957947 165.4302520751953 1.611680746078491 165.1727142333984 1.568923830986023 164.9048461914062 C 1.526165366172791 164.6369934082031 1.504712820053101 164.3588562011719 1.504712820053101 164.0708465576172 C 1.504712820053101 163.8333740234375 1.528045296669006 163.5299682617188 1.608511447906494 163.0970764160156 C 1.688971638679504 162.6642150878906 1.826545715332031 162.1019592285156 2.054996967315674 161.3468170166016 C 2.283394575119019 160.5918579101562 2.602582931518555 159.6442565917969 3.046223402023315 158.4408111572266 C 3.489660978317261 157.2379302978516 4.057323455810547 155.7796783447266 4.782683372497559 154.0033569335938 C 5.90255069732666 151.1786193847656 6.958964824676514 148.5471496582031 7.950628280639648 146.1119689941406 C 8.941272735595703 143.6792907714844 9.867431640625 141.4421691894531 10.72778701782227 139.4036865234375 C 11.58737468719482 137.3670196533203 12.38139152526855 135.5283050537109 13.10850238800049 133.8907012939453 C 13.83506679534912 132.2543640136719 14.4949254989624 130.8185729980469 15.08672428131104 129.5865478515625 C 16.59536552429199 126.4515228271484 18.14195823669434 123.3340759277344 19.72343635559082 120.2397079467773 C 21.30231285095215 117.1504364013672 22.91584205627441 114.0843887329102 24.56097412109375 111.0469665527344 C 26.20328521728516 108.0147705078125 27.87697601318359 105.0113067626953 29.57902908325195 102.0419387817383 C 31.27805328369141 99.07786560058594 33.00523376464844 96.14794158935547 34.75756454467773 93.2574462890625 C 36.50666427612305 90.37229919433594 38.29300689697266 87.50634765625 40.11307144165039 84.66464996337891 C 41.92964935302734 81.82836151123047 43.77968978881836 79.01644134521484 45.65969085693359 76.23381042480469 C 47.53597259521484 73.45668792724609 49.44197845458984 70.70896148681641 51.37423706054688 67.99545288085938 C 53.30255508422852 65.28751373291016 55.25692367553711 62.61385726928711 57.23392105102539 59.97929382324219 C 58.91130447387695 57.74958038330078 60.44923782348633 55.72865676879883 61.8524169921875 53.91049957275391 C 63.25351333618164 52.09506225585938 64.52064514160156 50.48128890991211 65.65841674804688 49.06343078613281 C 66.79478454589844 47.64730072021484 67.80240631103516 46.42619323730469 68.68567657470703 45.39457321166992 C 69.568115234375 44.36393356323242 70.32668304443359 43.52214050292969 70.96566009521484 42.86382293701172 L 70.9705810546875 42.85875701904297 L 70.97554016113281 42.85374450683594 C 71.69737243652344 42.12554931640625 72.38915252685547 41.49411010742188 73.05312347412109 40.95806884765625 C 73.71661376953125 40.42241287231445 74.35234832763672 39.98198699951172 74.96255493164062 39.63545227050781 C 75.57238006591797 39.28915023803711 76.15670776367188 39.03660202026367 76.71775817871094 38.87650299072266 C 77.27847290039062 38.71648025512695 77.81594848632812 38.64878082275391 78.33238983154297 38.67211532592773 C 78.68275451660156 38.68793487548828 79.02947998046875 38.74483871459961 79.37197113037109 38.84249114990234 C 79.71434020996094 38.94010543823242 80.052490234375 39.07843780517578 80.38585662841797 39.25714874267578 C 80.71910858154297 39.4358024597168 81.04756927490234 39.65481185913086 81.37067413330078 39.91383743286133 C 81.69366455078125 40.17276763916016 82.01131439208984 40.47171020507812 82.32302856445312 40.81031799316406 C 82.69399261474609 41.20133972167969 83.01913452148438 41.60686874389648 83.29814910888672 42.02616500854492 C 83.57707214355469 42.4453239440918 83.80994415283203 42.87828063964844 83.99645233154297 43.32427215576172 C 84.18291473388672 43.77016830444336 84.32307434082031 44.22915649414062 84.41661071777344 44.70046997070312 C 84.51013946533203 45.17173385620117 84.55705261230469 45.6553840637207 84.55705261230469 46.15067291259766 C 84.55705261230469 46.6645622253418 84.48779296875 47.2326545715332 84.34669494628906 47.86174774169922 C 84.20558166503906 48.49093627929688 83.99259948730469 49.18123626708984 83.70513916015625 49.93946838378906 C 83.4176025390625 50.69794845581055 83.05549621582031 51.52451324462891 82.61617279052734 52.42605209350586 C 82.17665100097656 53.32802200317383 81.65978240966797 54.30517959594727 81.06288146972656 55.36445999145508 C 79.50475311279297 58.11322402954102 77.9698486328125 60.96455001831055 76.46077728271484 63.91317367553711 C 74.94926452636719 66.8665771484375 73.46376037597656 69.91742706298828 72.00691986083984 73.06038665771484 C 70.54779815673828 76.208251953125 69.11750793457031 79.44831085205078 67.71871948242188 82.77513885498047 C 66.31784820556641 86.10695648193359 64.94865417480469 89.52557373046875 63.61385726928711 93.02553558349609 C 62.77537155151367 95.32797241210938 61.98946380615234 97.57324981689453 61.25677871704102 99.75924682617188 C 60.52352142333984 101.9469451904297 59.84365463256836 104.0750198364258 59.21781539916992 106.1413421630859 C 58.59156036376953 108.2090530395508 58.01947402954102 110.2146759033203 57.50217437744141 112.156135559082 C 56.98459625244141 114.0986633300781 56.52191543579102 115.9767074584961 56.11474609375 117.7881927490234 C 56.62453842163086 116.9435958862305 57.17329406738281 116.0324783325195 57.76071548461914 115.0553970336914 C 58.34775924682617 114.0788955688477 58.97336196899414 113.0365829467773 59.63717651367188 111.9290237426758 C 60.30053329467773 110.8222351074219 61.00199890136719 109.6503677368164 61.74122619628906 108.4139938354492 C 62.47987747192383 107.178596496582 63.25617980957031 105.8788909912109 64.06977081298828 104.5154495239258 C 65.38877868652344 102.3016586303711 66.90885925292969 99.83753967285156 68.62532806396484 97.13014221191406 C 70.33865356445312 94.42768859863281 72.24694061279297 91.48398590087891 74.34529113769531 88.30622863769531 C 76.43892669677734 85.13562774658203 78.72093963623047 81.73332977294922 81.18627166748047 78.10678863525391 C 83.64505767822266 74.48985290527344 86.28521728515625 70.65129852294922 89.1015625 66.59870147705078 C 90.73616027832031 64.24983215332031 92.33444976806641 61.99356079101562 93.89400482177734 59.83295059204102 C 95.45093536376953 57.67598724365234 96.96939849853516 55.61420440673828 98.44701385498047 53.65064239501953 C 99.92227935791016 51.69023513793945 101.35693359375 49.82758331298828 102.7486190795898 48.06573867797852 C 104.1381988525391 46.30656433105469 105.4850616455078 44.64774322509766 106.7868423461914 43.09231948852539 C 107.6366271972656 42.07038879394531 108.4620132446289 41.18423461914062 109.2657089233398 40.43195724487305 C 110.0686950683594 39.68032836914062 110.8500823974609 39.06232452392578 111.6125411987305 38.57606887817383 C 112.374382019043 38.09021759033203 113.1173553466797 37.73588562011719 113.8441696166992 37.51123809814453 C 114.5704040527344 37.28677368164062 115.2805099487305 37.19178771972656 115.9771728515625 37.22445297241211 C 116.4057464599609 37.24455261230469 116.8179168701172 37.30679702758789 117.2130813598633 37.41082000732422 C 117.6080474853516 37.51478958129883 117.9860458374023 37.66051483154297 118.3464660644531 37.8476448059082 C 118.7067413330078 38.03469467163086 119.0494384765625 38.26313018798828 119.3739852905273 38.53259658813477 C 119.6984100341797 38.80195999145508 120.0047149658203 39.11235046386719 120.2922744750977 39.46340942382812 C 120.5554656982422 39.75708770751953 120.7861557006836 40.06831359863281 120.9841384887695 40.39647674560547 C 121.1820907592773 40.72456359863281 121.3473510742188 41.06959533691406 121.4797134399414 41.43096542358398 C 121.6120529174805 41.79228973388672 121.7115325927734 42.16997146606445 121.7779159545898 42.56341934204102 C 121.8442916870117 42.95683288574219 121.8776168823242 43.36604690551758 121.8776168823242 43.79043960571289 C 121.8776168823242 44.33897018432617 121.8112869262695 44.94732666015625 121.6776962280273 45.61841583251953 C 121.544075012207 46.28960800170898 121.3431549072266 47.02363586425781 121.0739059448242 47.82341384887695 C 120.804573059082 48.62342071533203 120.4668579101562 49.48934173583984 120.0597457885742 50.42414474487305 C 119.6524276733398 51.35934448242188 119.1755752563477 52.36361312866211 118.6281204223633 53.43994140625 C 118.5213012695312 53.6605339050293 118.3143157958984 54.07356262207031 118.0053176879883 54.68264770507812 C 117.6962051391602 55.29191970825195 117.2849273681641 56.09749984741211 116.7695999145508 57.10312652587891 C 116.2539520263672 58.10932159423828 115.6340103149414 59.31600570678711 114.9077682495117 60.72709274291992 C 114.1809310913086 62.13929748535156 113.3474807739258 63.75655746459961 112.4052734375 65.5828857421875 C 110.7429733276367 68.8348388671875 109.2081069946289 71.8673095703125 107.8032760620117 74.67499542236328 C 106.3963012695312 77.48700714111328 105.1201705932617 80.07273101806641 103.9774398803711 82.42704010009766 C 102.8332901000977 84.78427886962891 101.8232192993164 86.90885925292969 100.9496383666992 88.79575347900391 C 100.0752258300781 90.6844482421875 99.33786010742188 92.33445739746094 98.7398681640625 93.74102020263672 C 97.09359741210938 97.60647583007812 95.5506591796875 101.3471832275391 94.11372375488281 104.9563751220703 C 92.67453002929688 108.5711898803711 91.34199523925781 112.0532073974609 90.11872100830078 115.3957061767578 C 88.89382171630859 118.7426147460938 87.77877044677734 121.9488220214844 86.77610778808594 125.0075912475586 C 85.77234649658203 128.0696868896484 84.88147735595703 130.9832763671875 84.10597229003906 133.7417602539062 C 83.66045379638672 135.3607482910156 83.26966857910156 136.8745422363281 82.93405914306641 138.2808685302734 C 82.59833526611328 139.6877136230469 82.31787109375 140.98681640625 82.09313201904297 142.1759643554688 C 81.86833190917969 143.3653869628906 81.69930267333984 144.4446258544922 81.58645629882812 145.4114990234375 C 81.47361755371094 146.3784942626953 81.4169921875 147.23291015625 81.41699981689453 147.9726409912109 C 81.41699981689453 148.1263732910156 81.41996765136719 148.2824249267578 81.42591094970703 148.4405517578125 C 81.43184661865234 148.5986785888672 81.44073486328125 148.7588806152344 81.45256042480469 148.9208374023438 C 81.46437835693359 149.0828094482422 81.47914886474609 149.2465515136719 81.49681091308594 149.4117584228516 C 81.51449584960938 149.5770111083984 81.53507995605469 149.7437133789062 81.55856323242188 149.9116516113281 L 81.56114196777344 149.9301147460938 L 81.56329345703125 149.9486389160156 C 81.65282440185547 150.71728515625 81.72283935546875 151.3418121337891 81.77749633789062 151.8513336181641 C 81.8321533203125 152.3608093261719 81.8714599609375 152.7553405761719 81.89958190917969 153.0640106201172 C 81.92769622802734 153.3726654052734 81.94461822509766 153.5954742431641 81.95450592041016 153.7615203857422 C 81.96439361572266 153.9275817871094 81.96727752685547 154.0368957519531 81.96727752685547 154.1185760498047 C 81.96727752685547 154.6268615722656 81.92414855957031 155.1275482177734 81.83817291259766 155.6198272705078 C 81.75218200683594 156.1121215820312 81.62333679199219 156.5960845947266 81.45193481445312 157.0708618164062 C 81.28048706054688 157.5457458496094 81.06642150878906 158.011474609375 80.81003570556641 158.4673156738281 C 80.5535888671875 158.9232635498047 80.25474548339844 159.3693389892578 79.91380310058594 159.8047180175781 C 79.59893798828125 160.2288665771484 79.26983642578125 160.6019287109375 78.92708587646484 160.9235229492188 C 78.58421325683594 161.2452392578125 78.22767639160156 161.5154418945312 77.85812377929688 161.7337646484375 C 77.48842620849609 161.9521484375 77.10567474365234 162.1186065673828 76.71050262451172 162.2326965332031 C 76.31516265869141 162.3468627929688 75.90738677978516 162.4085998535156 75.48779296875 162.4175567626953 C 75.14407348632812 162.4248657226562 74.76423645019531 162.3936614990234 74.36437225341797 162.29638671875 C 73.96431732177734 162.1990661621094 73.54420471191406 162.0356750488281 73.12014007568359 161.7786254882812 C 72.69588470458984 161.5214996337891 72.26766967773438 161.1706237792969 71.85165405273438 160.6985321044922 C 71.43544769287109 160.2261810302734 71.03147125244141 159.6324920654297 70.65591430664062 158.8899230957031 C 70.42487335205078 158.4686584472656 70.22346496582031 158.0131225585938 70.05131530761719 157.5213928222656 C 69.87913513183594 157.029541015625 69.73622131347656 156.5015106201172 69.62220001220703 155.9353179931641 C 69.50815582275391 155.3690490722656 69.42301940917969 154.7646484375 69.36639404296875 154.1201782226562 C 69.30976104736328 153.4756622314453 69.28163909912109 152.7910919189453 69.28163909912109 152.0645294189453 C 69.28163909912109 151.0061187744141 69.33213043212891 149.8808135986328 69.43276214599609 148.6909790039062 C 69.53336334228516 147.5012359619141 69.68409729003906 146.2471771240234 69.88455963134766 144.9311218261719 C 70.08496856689453 143.6153411865234 70.33509063720703 142.23779296875 70.63449859619141 140.8008880615234 C 70.93382263183594 139.3644409179688 71.28237915039062 137.8688201904297 71.67976379394531 136.3164825439453 C 72.07244873046875 134.7825775146484 72.51580810546875 133.1811981201172 73.00875091552734 131.5156860351562 C 73.50143432617188 129.8510437011719 74.04358673095703 128.1225128173828 74.63410949707031 126.3334121704102 C 75.22422790527344 124.5454330444336 75.86259460449219 122.697135925293 76.54807281494141 120.7918548583984 C 77.23303985595703 118.8879699707031 77.9649658203125 116.927360534668 78.74272155761719 114.9133911132812 C 80.01470947265625 111.61962890625 81.42047882080078 108.1539840698242 82.95720672607422 104.5224151611328 C 84.49137115478516 100.896842956543 86.15562438964844 97.10691833496094 87.94704437255859 93.15865325927734 C 89.7349853515625 89.21800994873047 91.64909362792969 85.12074279785156 93.68637084960938 80.87293243408203 C 95.71917724609375 76.63447570800781 97.87404632568359 72.24727630615234 100.1479339599609 67.71747589111328 C 97.54879760742188 71.14872741699219 94.88509368896484 74.84567260742188 92.15932464599609 78.80524444580078 C 89.42549133300781 82.77656555175781 86.62887573242188 87.0125732421875 83.77196502685547 91.51027679443359 C 80.90623474121094 96.02188873291016 77.97950744628906 100.7973709106445 74.99430847167969 105.8337326049805 C 71.99952697753906 110.8862915039062 68.94554138183594 116.2019882202148 65.83494567871094 121.7779159545898 L 65.83311462402344 121.7811965942383 L 65.83126831054688 121.7844696044922 C 64.92507934570312 123.3902359008789 64.06104278564453 124.8620529174805 63.23666763305664 126.2034378051758 C 62.41157150268555 127.546012878418 61.62625503540039 128.7577819824219 60.87820053100586 129.8423919677734 C 60.12954330444336 130.9278564453125 59.41827011108398 131.8858184814453 58.74181365966797 132.7199401855469 C 58.06486511230469 133.5546264648438 57.4228401184082 134.2652435302734 56.81316375732422 134.8554382324219 C 56.18492889404297 135.461669921875 55.55821990966797 135.9940185546875 54.93408966064453 136.4518890380859 C 54.30953979492188 136.9100494384766 53.68757629394531 137.2936401367188 53.06924438476562 137.6020355224609 C 52.45051574707031 137.91064453125 51.8354377746582 138.1439819335938 51.2250862121582 138.3014373779297 C 50.61433029174805 138.4589996337891 50.00830841064453 138.5405883789062 49.40808868408203 138.5456237792969 C 48.76658630371094 138.5510101318359 48.1600456237793 138.4761047363281 47.59191131591797 138.3229675292969 C 47.02344512939453 138.1697692871094 46.49347305297852 137.9382171630859 46.00546264648438 137.6304626464844 C 45.5172004699707 137.3225555419922 45.07098007202148 136.9383544921875 44.67026138305664 136.4800262451172 C 44.26937103271484 136.021484375 43.91405868530273 135.48876953125 43.60777282714844 134.8840026855469 C 43.41632080078125 134.5059967041016 43.24842834472656 134.1124114990234 43.10428237915039 133.7040252685547 C 42.96011734008789 133.2955932617188 42.8397102355957 132.8723449707031 42.74323654174805 132.4351196289062 C 42.64675521850586 131.9978485107422 42.57421875 131.5466003417969 42.52579879760742 131.0821380615234 C 42.47738265991211 130.6176452636719 42.45308303833008 130.1399688720703 42.45308303833008 129.6498870849609 C 42.45308303833008 128.7034912109375 42.48583602905273 127.7203979492188 42.55110931396484 126.7025146484375 C 42.61637878417969 125.6847229003906 42.71416091918945 124.6322326660156 42.84421539306641 123.5470199584961 C 42.97425079345703 122.4619445800781 43.13655090332031 121.3442306518555 43.33086013793945 120.1958465576172 C 43.52512359619141 119.0476760864258 43.75138473510742 117.8689193725586 44.00937652587891 116.6615295410156 C 44.26485061645508 115.4659271240234 44.55332565307617 114.2333068847656 44.87411880493164 112.9661102294922 C 45.19479751586914 111.699333190918 45.5477409362793 110.3980865478516 45.93224334716797 109.0647659301758 C 46.31657791137695 107.7319793701172 46.732421875 106.3672409057617 47.17905426025391 104.9729690551758 C 47.6254768371582 103.5793609619141 48.10263061523438 102.1563262939453 48.60979843139648 100.7063064575195 C 49.37042999267578 98.5316162109375 50.20481491088867 96.27838134765625 51.11161804199219 93.94950103759766 C 52.01755523681641 91.62286376953125 52.99563980102539 89.22109222412109 54.04450225830078 86.74713897705078 C 55.09220504760742 84.27593231201172 56.21037673950195 81.73308563232422 57.39763641357422 79.12153625488281 C 58.58339309692383 76.51326751708984 59.8379020690918 73.83688354492188 61.15973663330078 71.09531402587891 C 60.50082015991211 71.95925140380859 59.84479522705078 72.8394775390625 59.19198226928711 73.735595703125 C 58.53871536254883 74.63233947753906 57.88866424560547 75.54498291015625 57.24214172363281 76.47318267822266 C 56.59517669677734 77.40201568603516 55.95173645019531 78.34638214111328 55.31215286254883 79.30593109130859 C 54.67212295532227 80.26611328125 54.03596115112305 81.24147796630859 53.40395355224609 82.23162841796875 C 51.13825988769531 85.83781433105469 48.92049789428711 89.49055480957031 46.75461196899414 93.18308258056641 C 44.58375549316406 96.88408660888672 42.46526718139648 100.6246566772461 40.40313339233398 104.3979339599609 C 38.33651351928711 108.1794281005859 36.32675552368164 111.9933090209961 34.37786865234375 115.832649230957 C 32.42498397827148 119.6798553466797 30.53348731994629 123.5521087646484 28.70741844177246 127.4423522949219 C 27.84120559692383 129.3165893554688 26.92385482788086 131.3586883544922 25.95706748962402 133.5646362304688 C 24.98930358886719 135.7728118896484 23.97189712524414 138.1453857421875 22.90655326843262 140.6784362792969 C 21.84002113342285 143.2142944335938 20.72533416748047 145.9112091064453 19.56418609619141 148.7652740478516 C 18.4016284942627 151.6227722167969 17.19238471984863 154.6380615234375 15.93814563751221 157.8072052001953 C 15.60160446166992 158.6733245849609 15.25953674316406 159.4830932617188 14.9106559753418 160.2388610839844 C 14.56164932250977 160.9949035644531 14.20582008361816 161.6968994140625 13.84187698364258 162.3471069335938 C 13.47779655456543 162.9975280761719 13.10558795928955 163.5961456298828 12.72396087646484 164.1452484130859 C 12.34218215942383 164.694580078125 11.95096588134766 165.1943054199219 11.54901695251465 165.6467742919922 C 11.11265563964844 166.1380004882812 10.66433525085449 166.5703277587891 10.20488452911377 166.9433288574219 C 9.745212554931641 167.3165130615234 9.274388313293457 167.6303253173828 8.793232917785645 167.8842468261719 C 8.31183910369873 168.1383056640625 7.820096492767334 168.3324432373047 7.318829536437988 168.4661560058594 C 6.817304134368896 168.5999755859375 6.306235313415527 168.6732940673828 5.786455154418945 168.6856689453125 Z M 72.86754608154297 45.08729553222656 C 72.25817108154297 45.71682357788086 71.51930236816406 46.54126739501953 70.65254211425781 47.55857849121094 C 69.78498840332031 48.57683563232422 68.78908538818359 49.78858947753906 67.66640472412109 51.19197082519531 C 66.54237365722656 52.59704208374023 65.29093170166016 54.1945686340332 63.91355514526367 55.98279571533203 C 62.53415679931641 57.77366638183594 61.02806854248047 59.75628280639648 59.39667129516602 61.92903137207031 C 55.47643280029297 67.16326904296875 51.66021728515625 72.53388214111328 47.9554443359375 78.03066253662109 C 44.23609161376953 83.54906463623047 40.6300048828125 89.19324493408203 37.14468002319336 94.95263671875 C 33.64652633666992 100.7332305908203 30.27097511291504 106.6283569335938 27.02557945251465 112.6271286010742 C 23.76912689208984 118.6463317871094 20.64465141296387 124.7681732177734 17.65974235534668 130.9814605712891 C 17.07758712768555 132.1954498291016 16.42738342285156 133.6129760742188 15.71048641204834 135.2308502197266 C 14.99305057525635 136.8499145507812 14.20872116088867 138.6698608398438 13.35882759094238 140.6875610351562 C 12.50818347930908 142.7070465087891 11.59174537658691 144.9249267578125 10.61082363128662 147.338134765625 C 9.628901481628418 149.7537994384766 8.58223819732666 152.3655395507812 7.472120761871338 155.1703338623047 L 7.469042301177979 155.1780853271484 L 7.46587610244751 155.1858062744141 C 6.764016628265381 156.9071960449219 6.223637104034424 158.2991027832031 5.807913303375244 159.4237060546875 C 5.392009735107422 160.5487823486328 5.10097599029541 161.4060211181641 4.897792339324951 162.0580444335938 C 4.69456672668457 162.7101898193359 4.579265594482422 163.1569061279297 4.514772415161133 163.4609680175781 C 4.450276374816895 163.7651062011719 4.436600685119629 163.9265441894531 4.436600685119629 164.0082244873047 C 4.436600685119629 164.1092987060547 4.442626476287842 164.2034301757812 4.455042839050293 164.2917022705078 C 4.467458724975586 164.3799896240234 4.486265182495117 164.46240234375 4.51182746887207 164.5401153564453 C 4.537388324737549 164.6177978515625 4.569703102111816 164.6907501220703 4.609136581420898 164.7600860595703 C 4.648568153381348 164.8293914794922 4.695118427276611 164.8950958251953 4.749149799346924 164.9582824707031 L 4.783627986907959 164.9985961914062 L 4.815285205841064 165.0414886474609 C 4.906328678131104 165.1648101806641 4.995313167572021 165.2610778808594 5.081887722015381 165.3359832763672 C 5.168453693389893 165.410888671875 5.25261116027832 165.4644622802734 5.334009647369385 165.5024261474609 C 5.415400981903076 165.5403747558594 5.494035720825195 165.562744140625 5.569561958312988 165.5752563476562 C 5.645082473754883 165.5877227783203 5.717496871948242 165.5903472900391 5.786455154418945 165.5888214111328 C 6.10448694229126 165.5817565917969 6.418007850646973 165.5346984863281 6.728094100952148 165.4470825195312 C 7.03808069229126 165.3594970703125 7.3446364402771 165.2313690185547 7.648836135864258 165.0621185302734 C 7.952939033508301 164.8928985595703 8.25468921661377 164.6826019287109 8.555159568786621 164.4306488037109 C 8.855535507202148 164.1787567138672 9.154630661010742 163.8852081298828 9.453517913818359 163.5494689941406 C 9.787903785705566 163.173828125 10.11888885498047 162.7472229003906 10.44591808319092 162.2706756591797 C 10.77283668518066 161.7942810058594 11.09580516815186 161.2679901123047 11.41427040100098 160.6928100585938 C 11.73263263702393 160.1178283691406 12.04649639129639 159.4939880371094 12.35531234741211 158.8222961425781 C 12.66403007507324 158.1508331298828 12.96770572662354 157.4315490722656 13.26578807830811 156.6654815673828 L 13.26765441894531 156.6607360839844 L 13.26955223083496 156.6559295654297 C 14.53324317932129 153.4680480957031 15.75190925598145 150.4342651367188 16.92383193969727 147.5585784912109 C 18.09432601928711 144.6864318847656 19.21830177307129 141.9716949462891 20.29404067993164 139.4183807373047 C 21.36857604980469 136.8679504394531 22.39509010314941 134.4783325195312 23.37185859680176 132.2535552978516 C 24.34763336181641 130.0310363769531 25.27386474609375 127.972785949707 26.14882850646973 126.0828552246094 L 26.15078735351562 126.0785903930664 L 26.15278244018555 126.0743713378906 C 27.99744415283203 122.1509094238281 29.90810585021973 118.2458724975586 31.88070106506348 114.366340637207 C 33.84922027587891 110.4948043823242 35.87914657592773 106.6491775512695 37.9664421081543 102.8364181518555 C 40.04916000366211 99.03202056884766 42.18872451782227 95.26081848144531 44.38111877441406 91.52970123291016 C 46.56845474243164 87.80720520019531 48.80811309814453 84.12500762939453 51.09612655639648 80.48991394042969 L 51.09893417358398 80.4854736328125 L 51.10177230834961 80.48104858398438 C 52.36550140380859 78.50460052490234 53.64595413208008 76.5855712890625 54.94075012207031 74.7269287109375 C 56.23376846313477 72.87084197998047 57.54103469848633 71.07502746582031 58.86020660400391 69.34246826171875 C 60.17752075195312 67.61233520507812 61.50665664672852 65.94530487060547 62.84526443481445 64.34428405761719 C 64.18198394775391 62.74555206298828 65.52810668945312 61.21269226074219 66.88130950927734 59.74857330322266 L 69.05698394775391 61.59526062011719 C 67.09989166259766 65.40673828125 65.25644683837891 69.11114501953125 63.52991104125977 72.70162200927734 C 61.80020141601562 76.29872894287109 60.18827819824219 79.78056335449219 58.69737243652344 83.14028167724609 C 57.20409393310547 86.50533294677734 55.83260726928711 89.74701690673828 54.58607482910156 92.85848999023438 C 53.3378791809082 95.97409820556641 52.21530532836914 98.95832061767578 51.22142791748047 101.8043899536133 C 50.23549270629883 104.6277008056641 49.37022399902344 107.3315048217773 48.62680816650391 109.9110412597656 C 47.88280868530273 112.4925994873047 47.26105880737305 114.9490432739258 46.76266479492188 117.2756805419922 C 46.26400756835938 119.6035461425781 45.88896560668945 121.8008575439453 45.63857269287109 123.8630676269531 C 45.38810348510742 125.9258041381836 45.26241302490234 127.8528213500977 45.26241302490234 129.6395874023438 C 45.26241302490234 130.0006256103516 45.27943420410156 130.3508148193359 45.31335830688477 130.6896362304688 C 45.3472785949707 131.0284576416016 45.39809799194336 131.3558959960938 45.4656982421875 131.6714019775391 C 45.53329467773438 131.9868621826172 45.61766815185547 132.2903594970703 45.71868133544922 132.5813598632812 C 45.8196907043457 132.8723297119141 45.93734741210938 133.1507720947266 46.07151794433594 133.4161224365234 C 46.25424575805664 133.7775421142578 46.45762634277344 134.0903472900391 46.68408203125 134.3560943603516 C 46.91047668457031 134.6217651367188 47.15993499755859 134.8404083251953 47.43486404418945 135.0135498046875 C 47.70971298217773 135.1866455078125 48.010009765625 135.3142700195312 48.33815002441406 135.3979187011719 C 48.66617965698242 135.4815521240234 49.02202606201172 135.5212860107422 49.40808868408203 135.5186614990234 C 49.83343887329102 135.5157928466797 50.26969528198242 135.4521789550781 50.71602630615234 135.3283233642578 C 51.16215133666992 135.2045440673828 51.61833572387695 135.0205688476562 52.0837516784668 134.7768859863281 C 52.54893493652344 134.5333099365234 53.02333831787109 134.2300872802734 53.50611877441406 133.86767578125 C 53.98865127563477 133.5054779052734 54.47956466674805 133.0841674804688 54.97801971435547 132.6042327880859 C 55.5287971496582 132.0722503662109 56.12133026123047 131.4118194580078 56.75426483154297 130.6249847412109 C 57.38678359985352 129.8386840820312 58.05958938598633 128.9261779785156 58.77133178710938 127.889518737793 C 59.48254013061523 126.8536529541016 60.23256301879883 125.6938934326172 61.02005386352539 124.4123153686523 C 61.80688095092773 123.1318054199219 62.63104248046875 121.7297668457031 63.49117660522461 120.2082977294922 C 65.48809814453125 116.6349258422852 67.46565246582031 113.1611709594727 69.42059326171875 109.7921752929688 C 71.37143707275391 106.4302368164062 73.29985046386719 103.172477722168 75.20261383056641 100.0240249633789 C 77.10150146484375 96.88197326660156 78.97492980957031 93.84860992431641 80.81974029541016 90.92901611328125 C 82.66089630126953 88.01519775390625 84.47362518310547 85.21450805664062 86.25483703613281 82.531982421875 C 88.03589630126953 79.84966278076172 89.79824829101562 77.26613616943359 91.53901672363281 74.78504943847656 C 93.27650451660156 72.30863189697266 94.99256896972656 69.93417358398438 96.68437957763672 67.66527557373047 C 98.37306213378906 65.40052795410156 100.0376739501953 63.2408561706543 101.6753463745117 61.18982696533203 C 103.3101119995117 59.14244079589844 104.9181289672852 57.20320129394531 106.4966506958008 55.37567520141602 L 108.5945816040039 57.17976379394531 C 105.6069030761719 62.94394302368164 102.7893676757812 68.50688934326172 100.1476135253906 73.85751342773438 C 97.49822235107422 79.22354125976562 95.02665710449219 84.37390899658203 92.73835754394531 89.29754638671875 C 90.44436645507812 94.23342132568359 88.33549499511719 98.939453125 86.41706085205078 103.4047012329102 C 84.49464416503906 107.8792266845703 82.76426696777344 112.1100997924805 81.23105621337891 116.0865707397461 C 79.70804595947266 120.0365905761719 78.37067413330078 123.7571640014648 77.22109985351562 127.2414016723633 C 76.07010650634766 130.7299499511719 75.10781860351562 133.9801483154297 74.33620452880859 136.9854125976562 C 73.56394195556641 139.9931488037109 72.98297119140625 142.7543029785156 72.59500885009766 145.2625122070312 C 72.20688629150391 147.7717437744141 72.01210021972656 150.0268249511719 72.01210021972656 152.0216369628906 C 72.01210021972656 152.6033630371094 72.03305816650391 153.1513824462891 72.07485961914062 153.6649475097656 C 72.11663818359375 154.1784515380859 72.17926025390625 154.657470703125 72.26252746582031 155.1011657714844 C 72.34580230712891 155.5448455810547 72.44973754882812 155.9532165527344 72.57417297363281 156.3254852294922 C 72.69859313964844 156.6976928710938 72.84352111816406 157.0338134765625 73.00878143310547 157.3330383300781 L 73.02317047119141 157.3590850830078 L 73.03656005859375 157.3858032226562 C 73.26985168457031 157.8508453369141 73.50188446044922 158.2120361328125 73.72819519042969 158.4920196533203 C 73.95445251464844 158.7719573974609 74.17497253417969 158.9707641601562 74.38524627685547 159.1110534667969 C 74.59548187255859 159.2513580322266 74.79549407958984 159.3331756591797 74.98076629638672 159.3791809082031 C 75.16599273681641 159.4251708984375 75.33650970458984 159.4353790283203 75.48779296875 159.432373046875 C 75.69966125488281 159.4281921386719 75.90667724609375 159.3943176269531 76.10951995849609 159.3302917480469 C 76.31232452392578 159.2662811279297 76.51096343994141 159.172119140625 76.70613098144531 159.0474243164062 C 76.90126800537109 158.9227447509766 77.09291839599609 158.7675170898438 77.28178405761719 158.5813140869141 C 77.47061920166016 158.3951263427734 77.65667724609375 158.1780090332031 77.84064483642578 157.9294891357422 L 77.85411071777344 157.9113006591797 L 77.86808013916016 157.8936004638672 C 78.10337066650391 157.5949096679688 78.30838012695312 157.294677734375 78.48355102539062 156.9918060302734 C 78.65869140625 156.68896484375 78.80400085449219 156.3834533691406 78.91990661621094 156.0741577148438 C 79.03579711914062 155.7649230957031 79.12229919433594 155.4518737792969 79.17981719970703 155.1339416503906 C 79.23733520507812 154.8159942626953 79.26590728759766 154.4931793212891 79.26590728759766 154.164306640625 C 79.26590728759766 154.1258697509766 79.26358032226562 154.0547943115234 79.25472259521484 153.9237518310547 C 79.24587249755859 153.792724609375 79.23048400878906 153.6016998291016 79.204345703125 153.3233184814453 C 79.17822265625 153.0449523925781 79.14134979248047 152.6792297363281 79.08951568603516 152.1987457275391 C 79.03766632080078 151.7182464599609 78.97087097167969 151.1230010986328 78.8848876953125 150.3855590820312 C 78.85653686523438 150.1817169189453 78.83169555664062 149.9788513183594 78.81035614013672 149.77734375 C 78.78901672363281 149.5758361816406 78.77120208740234 149.3756866455078 78.75692749023438 149.1772003173828 C 78.74266052246094 148.9787139892578 78.73192596435547 148.7819519042969 78.72476959228516 148.5872192382812 C 78.71760559082031 148.3924713134766 78.71401977539062 148.1997528076172 78.71401977539062 148.0094451904297 C 78.71401214599609 147.1834716796875 78.77162933349609 146.2544403076172 78.88771057128906 145.218017578125 C 79.00374603271484 144.1816864013672 79.17821502685547 143.0381622314453 79.41185760498047 141.7830810546875 C 79.64546966552734 140.5283355712891 79.93820953369141 139.1622772216797 80.29086303710938 137.6806793212891 C 80.64337921142578 136.1996307373047 81.05570983886719 134.6033630371094 81.52861022949219 132.8876342773438 L 81.52977752685547 132.8833770751953 L 81.53096771240234 132.8791351318359 C 82.31783294677734 130.0841827392578 83.22092437744141 127.1340866088867 84.23772430419922 124.0355453491211 C 85.25342559814453 120.9404144287109 86.38233184814453 117.6979217529297 87.62188720703125 114.3148651123047 C 88.85978698730469 110.9363403320312 90.20774078369141 107.4184417724609 91.66307830810547 103.7679748535156 C 93.11613464355469 100.1232528686523 94.67591857910156 96.34724426269531 96.33975219726562 92.44682312011719 C 96.94620513916016 91.02265167236328 97.69259643554688 89.354736328125 98.57656860351562 87.44793701171875 C 99.45967864990234 85.54295349121094 100.4798355102539 83.40013885498047 101.6345291137695 81.02448272705078 C 102.7877807617188 78.65183258056641 104.0749130249023 76.04763031005859 105.4933319091797 73.21709442138672 C 106.9095764160156 70.39093017578125 108.456298828125 67.33997344970703 110.1308364868164 64.06954193115234 L 110.1320877075195 64.06709289550781 L 110.1333312988281 64.06465911865234 C 111.067008972168 62.25788879394531 111.8974456787109 60.64916610717773 112.6240463256836 59.23977279663086 C 113.3500595092773 57.83148193359375 113.9725570678711 56.62187194824219 114.4908447265625 55.61228942871094 C 115.0088272094727 54.60327911376953 115.4228363037109 53.79384613037109 115.7320938110352 53.18545913696289 C 116.0412521362305 52.57727813720703 116.2458114624023 52.16988372802734 116.3449401855469 51.96489334106445 L 116.3516006469727 51.95114135742188 L 116.3585357666016 51.93753433227539 C 116.9652862548828 50.74723434448242 117.4518814086914 49.70735168457031 117.8405151367188 48.79921340942383 C 118.2289886474609 47.89145278930664 118.519645690918 47.11512756347656 118.7345581054688 46.45171356201172 C 118.9494094848633 45.78845596313477 119.0885772705078 45.23796463012695 119.1740188598633 44.78182601928711 C 119.2594680786133 44.32573318481445 119.2912063598633 43.96393585205078 119.2912063598633 43.67810440063477 C 119.2912063598633 43.4526481628418 119.2753524780273 43.23988723754883 119.2430801391602 43.03822326660156 C 119.2108001708984 42.83654403686523 119.1620788574219 42.64595031738281 119.0963287353516 42.46481704711914 C 119.0305862426758 42.28367233276367 118.9478073120117 42.11199569702148 118.8474426269531 41.94818115234375 C 118.7470397949219 41.78433609008789 118.6290130615234 41.62833404541016 118.4927978515625 41.47859191894531 L 118.4647827148438 41.44778442382812 L 118.438346862793 41.41523361206055 C 118.2741394042969 41.21290969848633 118.1006927490234 41.03519058227539 117.9172821044922 40.8817138671875 C 117.7338409423828 40.72819519042969 117.5404434204102 40.59892654418945 117.3363571166992 40.49353408813477 C 117.1322250366211 40.38811492919922 116.9173889160156 40.30657958984375 116.6911315917969 40.24857711791992 C 116.4648284912109 40.1905632019043 116.2270812988281 40.15607452392578 115.9771728515625 40.14474868774414 C 115.7441329956055 40.13419342041016 115.5034103393555 40.14899063110352 115.2554626464844 40.18899536132812 C 115.0074615478516 40.22900772094727 114.7522201538086 40.29423904418945 114.4902191162109 40.38454437255859 C 114.2281494140625 40.47488021850586 113.9592895507812 40.59029769897461 113.6840896606445 40.73065948486328 C 113.408805847168 40.87105941772461 113.127197265625 41.03641891479492 112.8396911621094 41.22660827636719 C 112.5248413085938 41.43487930297852 112.2024841308594 41.67323684692383 111.8732223510742 41.94114303588867 C 111.5438537597656 42.20914840698242 111.2075576782227 42.5067253112793 110.8649215698242 42.83331298828125 C 110.5221710205078 43.16001510620117 110.1730804443359 43.51577377319336 109.8182373046875 43.90002822875977 C 109.463264465332 44.284423828125 109.1025390625 44.69733428955078 108.7366485595703 45.13820648193359 C 107.4497909545898 46.67887878417969 106.118034362793 48.32243347167969 104.7436752319336 50.06587982177734 C 103.3672714233398 51.81194305419922 101.9480133056641 53.65834808349609 100.4882354736328 55.60211181640625 C 99.02613067626953 57.5489616394043 97.52324676513672 59.59364318847656 95.98193359375 61.73316192626953 C 94.43800354003906 63.87626266479492 92.85538482666016 66.11468505859375 91.23641204833984 68.44541931152344 C 88.43626403808594 72.482177734375 85.81183624267578 76.30479431152344 83.36826324462891 79.90570068359375 C 80.91824340820312 83.51612854003906 78.65102386474609 86.90223693847656 76.57162475585938 90.056640625 C 74.48757171630859 93.21811676025391 72.59303283691406 96.14553833007812 70.89285278320312 98.83172607421875 C 69.18956756591797 101.5228271484375 67.68206787109375 103.9706726074219 66.37499237060547 106.1682968139648 C 64.83437347412109 108.7546234130859 63.42742156982422 111.1121368408203 62.15649032592773 113.2369689941406 C 60.88383102416992 115.3646774291992 59.74791717529297 117.258430480957 58.75099182128906 118.9144973754883 C 57.75301361083984 120.5723419189453 56.89461517333984 121.9915008544922 56.17791366577148 123.1684417724609 C 55.46067047119141 124.3462829589844 54.88555908203125 125.2811737060547 54.45458984375 125.9697952270508 L 51.93224716186523 124.8798065185547 C 52.27273941040039 122.6178741455078 52.7206916809082 120.2251129150391 53.27458190917969 117.7068328857422 C 53.82815170288086 115.1900253295898 54.4874267578125 112.5484237670898 55.2508544921875 109.7874298095703 C 56.01366806030273 107.028694152832 56.88028717041016 104.1513442993164 57.84909820556641 101.1608581542969 C 58.81692123413086 98.1734619140625 59.88651275634766 95.07382202148438 61.05619812011719 91.86740875244141 L 61.06023025512695 91.85636901855469 L 61.06441116333008 91.84542083740234 C 62.41684341430664 88.3045654296875 63.80442047119141 84.84552764892578 65.22437286376953 81.47393035888672 C 66.64218139648438 78.10745239257812 68.09217834472656 74.82837677001953 69.57160186767578 71.64224243164062 C 71.0487060546875 68.46115112304688 72.55506134033203 65.3729248046875 74.08795166015625 62.383056640625 C 75.61831665039062 59.39808654785156 77.17505645751953 56.51130676269531 78.75543975830078 53.72812271118164 C 79.43227386474609 52.52907943725586 79.96483612060547 51.50004577636719 80.38298797607422 50.61819839477539 C 80.80094909667969 49.73675155639648 81.10472106933594 49.00214385986328 81.32398986816406 48.39175796508789 C 81.543212890625 47.78152465820312 81.67801666259766 47.29536056518555 81.75801849365234 46.91080474853516 C 81.83799743652344 46.52627563476562 81.86321258544922 46.2432861328125 81.86321258544922 46.03945922851562 C 81.86321258544922 45.75616073608398 81.83523559570312 45.47992706298828 81.77888488769531 45.2098388671875 C 81.72252655029297 44.93973159790039 81.63777923583984 44.67575454711914 81.52424621582031 44.4169807434082 C 81.41071319580078 44.15817260742188 81.26836395263672 43.90456008911133 81.0968017578125 43.65521240234375 C 80.92519378662109 43.40581512451172 80.724365234375 43.16067886352539 80.49385833740234 42.91886520385742 L 80.48466491699219 42.90923309326172 L 80.47564697265625 42.8994255065918 C 80.28977966308594 42.69740676879883 80.1065673828125 42.5203857421875 79.92540740966797 42.3680305480957 C 79.74419403076172 42.21564865112305 79.56502532958984 42.08790969848633 79.38726043701172 41.9844856262207 C 79.20947265625 41.88103485107422 79.03310394287109 41.80191040039062 78.85751342773438 41.74673461914062 C 78.68189239501953 41.69155502319336 78.50706481933594 41.66033935546875 78.33238983154297 41.65272903442383 C 78.10662841796875 41.64289093017578 77.83233642578125 41.67065048217773 77.50301361083984 41.76320648193359 C 77.17355346679688 41.85579299926758 76.78897857666016 42.01321792602539 76.34270477294922 42.26273727416992 C 75.89621734619141 42.51238250732422 75.38790893554688 42.85422134399414 74.81119537353516 43.31560897827148 C 74.23412322998047 43.77727127075195 73.58846282958984 44.35869979858398 72.86754608154297 45.08729553222656 Z" stroke="none" fill="#fff"/>
      </g>
    </g>
  </g>
</svg>
